<?xml version="1.0" encoding="UTF-8" standalone="no"?>
<!-- Created with Inkscape (http://www.inkscape.org/) -->

<svg
   xmlns:dc="http://purl.org/dc/elements/1.1/"
   xmlns:cc="http://creativecommons.org/ns#"
   xmlns:rdf="http://www.w3.org/1999/02/22-rdf-syntax-ns#"
   xmlns:svg="http://www.w3.org/2000/svg"
   xmlns="http://www.w3.org/2000/svg"
   xmlns:sodipodi="http://sodipodi.sourceforge.net/DTD/sodipodi-0.dtd"
   xmlns:inkscape="http://www.inkscape.org/namespaces/inkscape"
   width="64"
   height="45"
   id="svg2"
   version="1.1"
   inkscape:version="0.48.3.1 r9886"
   sodipodi:docname="radio_rj_logo.svg">
  <defs
     id="defs4">
    <linearGradient
       id="SVGID_2_"
       gradientUnits="userSpaceOnUse"
       x1="144.76511"
       y1="227.18359"
       x2="144.76511"
       y2="70.472504">
      <stop
         offset="0"
         style="stop-color:#21697C"
         id="stop4133" />
      <stop
         offset="1"
         style="stop-color:#123D49"
         id="stop4135" />
    </linearGradient>
    <linearGradient
       id="SVGID_2_-6"
       gradientUnits="userSpaceOnUse"
       x1="144.76511"
       y1="227.18359"
       x2="144.76511"
       y2="70.472504">
      <stop
         offset="0"
         style="stop-color:#21697C"
         id="stop4133-5" />
      <stop
         offset="1"
         style="stop-color:#123D49"
         id="stop4135-9" />
    </linearGradient>
    <linearGradient
       id="SVGID_1_"
       gradientUnits="userSpaceOnUse"
       x1="144.76421"
       y1="1.9375"
       x2="144.7641"
       y2="282.10941">
      <stop
         offset="0"
         style="stop-color:#46C8F5"
         id="stop4124" />
      <stop
         offset="1"
         style="stop-color:#0D7B99"
         id="stop4126" />
    </linearGradient>
    <linearGradient
       x1="0"
       y1="0"
       x2="1"
       y2="0"
       id="linearGradient312"
       gradientUnits="userSpaceOnUse"
       gradientTransform="matrix(0,-82.30423,-82.30423,0,55.296387,104.37598)"
       spreadMethod="pad">
      <stop
         id="stop314"
         style="stop-color:#f9f9f9;stop-opacity:1"
         offset="0" />
      <stop
         id="stop316"
         style="stop-color:#d1d1d3;stop-opacity:1"
         offset="1" />
    </linearGradient>
    <linearGradient
       x1="0"
       y1="0"
       x2="1"
       y2="0"
       id="linearGradient280"
       gradientUnits="userSpaceOnUse"
       gradientTransform="matrix(0,-36.206055,-36.206055,0,106,103.95264)"
       spreadMethod="pad">
      <stop
         id="stop282"
         style="stop-color:#f9f9f9;stop-opacity:1"
         offset="0" />
      <stop
         id="stop284"
         style="stop-color:#d1d1d3;stop-opacity:1"
         offset="1" />
    </linearGradient>
  </defs>
  <sodipodi:namedview
     id="base"
     pagecolor="#ffffff"
     bordercolor="#666666"
     borderopacity="1.0"
     inkscape:pageopacity="0.0"
     inkscape:pageshadow="2"
     inkscape:zoom="3.3836133"
     inkscape:cx="5.3500506"
     inkscape:cy="37.197271"
     inkscape:document-units="px"
     inkscape:current-layer="layer1"
     showgrid="false"
     inkscape:window-width="1280"
     inkscape:window-height="781"
     inkscape:window-x="0"
     inkscape:window-y="-4"
     inkscape:window-maximized="1" />
  <metadata
     id="metadata7">
    <rdf:RDF>
      <cc:Work
         rdf:about="">
        <dc:format>image/svg+xml</dc:format>
        <dc:type
           rdf:resource="http://purl.org/dc/dcmitype/StillImage" />
        <dc:title />
      </cc:Work>
    </rdf:RDF>
  </metadata>
  <g
     inkscape:label="Layer 1"
     inkscape:groupmode="layer"
     id="layer1"
     transform="translate(0,-1007.3622)">
    <path
       style="fill:#ffffff"
       d="m 49.203167,1015.1238 0.422294,12.3504 -0.527608,3.6559 c -0.662947,4.594 -2.528361,8.2765 -5.650036,11.154 l -2.430385,2.2402 c 0,0 2.079328,-0.6434 3.025937,-1.1651 0.924933,-0.5097 1.7639,-1.1771 2.541605,-1.8916 0.904868,-0.8313 1.806708,-1.7093 2.443103,-2.7604 0.890356,-1.4707 1.444947,-3.1452 1.837703,-4.8189 0.474149,-2.0205 0.418196,-4.1298 0.600917,-6.1971 0.221659,-2.5078 0.600928,-7.5289 0.600928,-7.5289 l 1.096285,3.6559 c 1.361116,4.5392 0.602784,7.9556 0.08208,11.882 -0.166263,1.2536 -0.523822,2.4902 -1.014206,3.656 -0.532322,1.2653 -1.211718,2.4884 -2.067035,3.5622 -0.862715,1.0831 -1.900605,2.0426 -3.035676,2.8358 -1.215644,0.8494 -2.615806,1.4035 -3.96982,2.0085 -2.192595,0.9795 -4.414327,1.9192 -6.71181,2.6182 -0.895772,0.2725 -2.74199,0.6097 -2.74199,0.6097 l -1.280165,-0.015 -0.1702,-5.6179 0.01452,-10.4507 c 0,0 2.832043,-1.0595 3.684312,-2.2105 1.123658,-1.5176 1.243175,-2.8226 1.347015,-4.3308 0.205724,-2.988 0.182168,-8.3444 0.182168,-8.3444 0.0669,-5.9547 0.272545,-10.7843 0.456997,-10.7324 0.184455,0.052 1.260795,0.3882 2.391869,0.7471 l 2.056492,0.6528 0,10.5095 0,10.5095 c 0,0 -0.590043,1.3752 -1.000094,1.9963 -0.974115,1.4757 -2.176752,2.7987 -3.427491,4.0484 -0.74946,0.7489 -2.427394,2.052 -2.427394,2.052 l 1.396123,0 c 0.767876,0 2.346916,-0.8262 3.432715,-1.4219 0.726616,-0.3988 1.44297,-0.8481 2.03658,-1.4265 0.708765,-0.6906 1.309146,-1.5087 1.765637,-2.3867 0.469351,-0.9028 0.96588,-2.8956 0.96588,-2.8956 l 0,-9.1855 0.06017,-10.1481 1.310826,0.9627 1.190485,0.6619 m -15.545926,-5.231 0.02259,7.7752 0.02259,7.7753 c 0,0 -1.473909,0.2988 -2.130215,0.6447 -0.811891,0.4278 -1.544642,1.0311 -2.147402,1.7231 -0.441852,0.5073 -1.035048,1.7328 -1.035048,1.7328 l -0.01399,5.1793 -0.01399,5.1793 -2.6e-5,1.0662 0,5.0271 c 0,2.7648 -0.186302,5.0269 -0.413994,5.0269 -0.227698,0 -1.461593,-0.4773 -2.741995,-1.0607 l -2.327995,-1.0606 0,-9.4318 c 0,0 -0.272127,-6.2997 0,-9.4319 0.120184,-1.3832 0.224487,-2.8686 0.718413,-4.1032 0.493928,-1.2343 1.500538,-2.466 2.24515,-3.3034 0.744612,-0.8374 1.529104,-1.234 2.330006,-1.6691 0.800903,-0.4352 2.475407,-0.942 2.475407,-0.942 0,0 -0.796216,-0.096 -1.187885,-0.036 -1.314551,0.1993 -2.629318,0.6182 -3.7712,1.2992 -0.764585,0.4561 -1.390829,1.1285 -1.965349,1.8085 -0.830281,0.9829 -1.574073,2.0639 -2.102248,3.2372 -0.543917,1.208 -0.847823,2.5229 -1.060501,3.8307 -0.433277,2.6642 -0.423786,8.0863 -0.423786,8.0863 l 0,8.2074 -0.860055,0 c -0.473032,0 -1.125098,-0.7494 -1.720574,-1.2029 l -1.102687,-0.8399 -1.144196,-0.6997 -6.32e-4,-1.9052 c 0,0 -0.344819,-7.5807 -0.0033,-11.3478 0.128537,-1.4178 0.387949,-2.8293 0.769297,-4.2009 0.377877,-1.3591 0.788816,-2.7381 1.495784,-3.9588 0.814237,-1.4059 1.949515,-2.6136 3.097377,-3.7633 1.167932,-1.1699 3.823839,-3.158 3.823839,-3.158 l -0.807487,0 c -0.444111,0 -3.113502,1.7874 -4.422019,2.9945 -1.320749,1.2182 -2.450379,2.6629 -3.372372,4.2051 -0.655864,1.097 -1.134788,2.3042 -1.499305,3.5292 -0.352491,1.1847 -0.535438,2.4198 -0.65173,3.6503 -0.154344,1.6331 -0.05793,4.921 -0.05793,4.921 l -0.05794,4.921 -0.93139,-2.285 -0.931388,-2.2851 -0.08987,-5.0271 -0.08987,-5.0269 c 0,0 0.97324,-3.0122 1.656776,-4.4343 0.705126,-1.4671 1.455774,-2.9472 2.504349,-4.1922 1.152499,-1.3684 2.577606,-2.513 4.072493,-3.496 1.37464,-0.9037 2.861627,-1.6857 4.435738,-2.164 1.745263,-0.5302 4.590884,-0.6557 5.421557,-0.742 m 3.608937,17.6235 c 5.711197,-0.1677 4.654035,5.8738 0.08985,5.8692 -4.564184,0 -5.801052,-5.7016 -0.08985,-5.8692 z m -0.06951,1.5013 c -4.409973,0.09 -4.171473,2.681 0.07748,2.577 4.248952,-0.1042 4.332492,-2.667 -0.07748,-2.577 z"
       id="path6345"
       inkscape:connector-curvature="0"
       sodipodi:nodetypes="ccsscaaaaacsaaaaaaccccssscscccaaccaaaccccccccaaccccsscccazzzcaaaaaccsscccaaaacsaaaaccccccaaaaczzzzzz" />
  </g>
</svg>
