<?xml version="1.0" encoding="UTF-8" standalone="no"?>
<!-- Created with Inkscape (http://www.inkscape.org/) -->

<svg
   xmlns:dc="http://purl.org/dc/elements/1.1/"
   xmlns:cc="http://creativecommons.org/ns#"
   xmlns:rdf="http://www.w3.org/1999/02/22-rdf-syntax-ns#"
   xmlns:svg="http://www.w3.org/2000/svg"
   xmlns="http://www.w3.org/2000/svg"
   xmlns:sodipodi="http://sodipodi.sourceforge.net/DTD/sodipodi-0.dtd"
   xmlns:inkscape="http://www.inkscape.org/namespaces/inkscape"
   width="64"
   height="45"
   id="svg2"
   version="1.1"
   inkscape:version="0.48.3.1 r9886"
   sodipodi:docname="radioverda_logo.svg">
  <defs
     id="defs4">
    <linearGradient
       id="SVGID_2_"
       gradientUnits="userSpaceOnUse"
       x1="144.76511"
       y1="227.18359"
       x2="144.76511"
       y2="70.472504">
      <stop
         offset="0"
         style="stop-color:#21697C"
         id="stop4133" />
      <stop
         offset="1"
         style="stop-color:#123D49"
         id="stop4135" />
    </linearGradient>
    <linearGradient
       id="SVGID_2_-6"
       gradientUnits="userSpaceOnUse"
       x1="144.76511"
       y1="227.18359"
       x2="144.76511"
       y2="70.472504">
      <stop
         offset="0"
         style="stop-color:#21697C"
         id="stop4133-5" />
      <stop
         offset="1"
         style="stop-color:#123D49"
         id="stop4135-9" />
    </linearGradient>
    <linearGradient
       id="SVGID_1_"
       gradientUnits="userSpaceOnUse"
       x1="144.76421"
       y1="1.9375"
       x2="144.7641"
       y2="282.10941">
      <stop
         offset="0"
         style="stop-color:#46C8F5"
         id="stop4124" />
      <stop
         offset="1"
         style="stop-color:#0D7B99"
         id="stop4126" />
    </linearGradient>
    <linearGradient
       x1="0"
       y1="0"
       x2="1"
       y2="0"
       id="linearGradient312"
       gradientUnits="userSpaceOnUse"
       gradientTransform="matrix(0,-82.30423,-82.30423,0,55.296387,104.37598)"
       spreadMethod="pad">
      <stop
         id="stop314"
         style="stop-color:#f9f9f9;stop-opacity:1"
         offset="0" />
      <stop
         id="stop316"
         style="stop-color:#d1d1d3;stop-opacity:1"
         offset="1" />
    </linearGradient>
    <linearGradient
       x1="0"
       y1="0"
       x2="1"
       y2="0"
       id="linearGradient280"
       gradientUnits="userSpaceOnUse"
       gradientTransform="matrix(0,-36.206055,-36.206055,0,106,103.95264)"
       spreadMethod="pad">
      <stop
         id="stop282"
         style="stop-color:#f9f9f9;stop-opacity:1"
         offset="0" />
      <stop
         id="stop284"
         style="stop-color:#d1d1d3;stop-opacity:1"
         offset="1" />
    </linearGradient>
  </defs>
  <sodipodi:namedview
     id="base"
     pagecolor="#ffffff"
     bordercolor="#666666"
     borderopacity="1.0"
     inkscape:pageopacity="0.0"
     inkscape:pageshadow="2"
     inkscape:zoom="8.0543882"
     inkscape:cx="11.980866"
     inkscape:cy="25.540329"
     inkscape:document-units="px"
     inkscape:current-layer="layer1"
     showgrid="false"
     inkscape:window-width="1280"
     inkscape:window-height="781"
     inkscape:window-x="0"
     inkscape:window-y="-4"
     inkscape:window-maximized="1" />
  <metadata
     id="metadata7">
    <rdf:RDF>
      <cc:Work
         rdf:about="">
        <dc:format>image/svg+xml</dc:format>
        <dc:type
           rdf:resource="http://purl.org/dc/dcmitype/StillImage" />
        <dc:title />
      </cc:Work>
    </rdf:RDF>
  </metadata>
  <g
     inkscape:label="Layer 1"
     inkscape:groupmode="layer"
     id="layer1"
     transform="translate(0,-1007.3622)">
    <path
       style="fill:#ffffff"
       d="m 4.4576815,1032.6902 c 0.1868515,0 11.3854985,-3.5218 18.6553825,-5.8668 4.406403,-1.4215 9.777724,-3.1068 10.318232,-3.2377 0.296818,-0.072 0.594762,-0.2198 0.662106,-0.3287 0.128245,-0.2075 0.412856,-2.8812 0.952764,-8.9505 0.177023,-1.99 0.402717,-3.7017 0.501551,-3.8038 0.111294,-0.1141 0.179785,-0.041 0.179942,0.1954 5.24e-4,0.8951 1.020103,4.4783 1.78314,6.2672 0.832188,1.9512 2.260735,4.4369 3.314116,5.7669 l 0.569292,0.7188 2.200351,-0.7587 c 1.210193,-0.4169 2.276765,-0.7584 2.37016,-0.7584 0.262665,0 0.04978,0.4119 -1.16855,2.262 l -1.127018,1.7111 1.043097,0.9593 c 2.695406,2.4784 6.673213,4.6006 10.914521,5.8229 0.77984,0.2249 1.417895,0.455 1.417895,0.5115 0,0.055 -1.826149,0.085 -4.058105,0.059 l -4.058101,-0.044 -0.107895,3.8928 c -0.09017,3.2533 -0.168402,4.0211 -0.476362,4.6749 -0.202661,0.4303 -0.344792,0.8703 -0.31584,0.9779 0.02895,0.1079 0.0021,0.1457 -0.05974,0.084 -0.06179,-0.062 -0.540891,0.3006 -1.06463,0.8054 -2.005538,1.9331 -4.563949,2.7205 -8.856767,2.726 l -2.667258,0 -1.04859,1.4625 c -0.576732,0.8043 -1.444633,2.0326 -1.928669,2.7296 -0.484043,0.697 -0.925238,1.271 -0.980436,1.2756 -0.05521,0 0.01116,-0.9817 0.147392,-2.1919 0.136272,-1.2101 0.303193,-4.5103 0.370945,-7.3339 l 0.123197,-5.1337 -3.181066,0 c -2.84541,0 -3.248205,0.041 -3.817363,0.3931 -0.382267,0.2365 -0.679823,0.6073 -0.745329,0.9291 -0.05997,0.2946 -0.10422,2.1638 -0.09831,4.1537 l 0.01079,3.6181 -3.053218,0.054 -3.053214,0.054 -1.94e-4,-6.6055 -2e-4,-6.6055 -5.817947,0.032 c -3.1998732,0.018 -6.3239922,0.041 -6.9424854,0.049 l -1.1245347,0.016 m 48.1374241,-6.558 c -0.519875,-2.8214 -1.941994,-5.3707 -4.310112,-7.7261 -1.871412,-1.8613 -3.356497,-2.7296 -4.92765,-2.8806 -0.53201,-0.051 -1.013057,-0.167 -1.068996,-0.2574 -0.178943,-0.2896 0.89113,-0.4281 2.415469,-0.313 3.811089,0.2883 6.879808,3.2647 8.092226,7.8488 0.364937,1.3798 0.502834,4.6091 0.196813,4.6091 -0.08897,0 -0.267961,-0.5762 -0.39775,-1.2808 z m 3.439966,0.7714 c -0.07834,-0.079 -0.142446,-0.382 -0.142446,-0.6749 0,-0.832 -0.918038,-3.7927 -1.591341,-5.132 -2.59125,-5.1543 -7.173648,-9.1338 -10.517641,-9.1338 -0.816096,0 -1.206892,-0.2677 -0.683808,-0.4685 0.169529,-0.065 1.039821,-0.1179 1.933987,-0.1179 5.240185,0 9.419643,3.824 10.919515,9.9907 0.558112,2.2947 0.613831,6.0688 0.08175,5.5367 z m 3.4163,-1.3898 c -0.489881,-3.3892 -2.430186,-7.7129 -4.808608,-10.7151 -2.057729,-2.5975 -4.289794,-4.5398 -6.510641,-5.665 -1.32907,-0.6735 -3.392311,-1.2695 -4.413806,-1.2749 -0.295802,0 -0.537823,-0.085 -0.537823,-0.1866 0,-0.5353 4.543749,-0.4845 6.313003,0.07 3.838231,1.2042 7.079642,4.4121 8.938212,8.8455 1.038109,2.4765 1.40715,4.2454 1.516621,7.2693 0.116136,3.2089 -0.146116,4.0829 -0.496958,1.656 z m -25.793859,22.526 1.526787,-2.243 -1.366928,0 c -1.581736,0 -1.500895,-0.108 -1.68993,2.249 -0.06903,0.8604 -0.16846,1.7185 -0.220963,1.9066 -0.217803,0.781 0.309698,0.2048 1.751034,-1.9126 z m 7.799003,-4.9623 c 0.249024,-0.097 0.643028,-0.3575 0.875564,-0.5783 0.398336,-0.3784 0.424246,-0.5911 0.447906,-3.6774 0.01376,-1.8017 -0.01091,-3.2355 -0.05516,-3.1864 -0.04418,0.049 -1.015778,1.4247 -2.159151,3.0567 -1.655002,2.3623 -2.07887,3.1035 -2.07887,3.6344 0,0.3669 0.05868,0.7256 0.130374,0.7974 0.192908,0.1929 2.315284,0.1589 2.839341,-0.047 z m -1.463609,-4.0479 c 2.880426,-4.0675 2.796447,-3.9026 2.796447,-5.4942 l 0,-1.4287 2.689098,-0.017 c 2.116217,-0.016 2.584945,-0.059 2.200181,-0.2262 -3.194497,-1.391 -4.84239,-2.4498 -6.766812,-4.3478 -2.564246,-2.529 -4.454327,-6.0039 -5.15978,-9.4865 -0.390453,-1.9276 -0.418027,-1.8561 -0.813595,2.1075 -0.132192,1.3244 -0.333959,2.529 -0.448386,2.677 -0.114442,0.1474 -1.792179,0.7645 -3.728332,1.3702 -1.936153,0.6057 -6.424513,2.0273 -9.974133,3.1587 -3.549613,1.1314 -8.125976,2.5853 -10.169697,3.2305 -2.043719,0.6453 -4.0238754,1.296 -4.4003493,1.4461 -0.5906916,0.2353 1.5736045,0.2589 15.7923693,0.1726 l 16.476871,-0.1004 0,4.4058 c 0,2.4233 0.03973,4.406 0.08822,4.406 0.04852,0 0.686576,-0.8451 1.41789,-1.8777 z m -14.17683,-6.3598 c -0.315728,-0.1141 -1.219976,-0.037 -1.374972,0.1179 -0.03915,0.039 -0.01343,0.2533 0.0572,0.4758 l 0.128359,0.4043 0.762095,-0.4386 c 0.606183,-0.3489 0.693607,-0.4634 0.427323,-0.5598 z"
       id="path4972"
       inkscape:connector-curvature="0"
       sodipodi:nodetypes="ccccsccccccsccccsccsccccccssccscsccccccccccccsccccsccscscssccccccsccsccccsccccccccscccscccssccccccccssccccccccc" />
  </g>
</svg>
