<?xml version="1.0" encoding="UTF-8" standalone="no"?>
<!-- Created with Inkscape (http://www.inkscape.org/) -->

<svg
   xmlns:dc="http://purl.org/dc/elements/1.1/"
   xmlns:cc="http://creativecommons.org/ns#"
   xmlns:rdf="http://www.w3.org/1999/02/22-rdf-syntax-ns#"
   xmlns:svg="http://www.w3.org/2000/svg"
   xmlns="http://www.w3.org/2000/svg"
   xmlns:sodipodi="http://sodipodi.sourceforge.net/DTD/sodipodi-0.dtd"
   xmlns:inkscape="http://www.inkscape.org/namespaces/inkscape"
   width="20"
   height="20"
   id="svg12086"
   version="1.1"
   inkscape:version="0.48.4 r9939"
   sodipodi:docname="New document 218">
  <defs
     id="defs12088" />
  <sodipodi:namedview
     id="base"
     pagecolor="#ffffff"
     bordercolor="#666666"
     borderopacity="1.0"
     inkscape:pageopacity="0.0"
     inkscape:pageshadow="2"
     inkscape:zoom="42.75"
     inkscape:cx="9.0262063"
     inkscape:cy="10.233918"
     inkscape:document-units="px"
     inkscape:current-layer="layer1"
     showgrid="false"
     inkscape:window-width="1680"
     inkscape:window-height="1050"
     inkscape:window-x="0"
     inkscape:window-y="0"
     inkscape:window-maximized="0" />
  <metadata
     id="metadata12091">
    <rdf:RDF>
      <cc:Work
         rdf:about="">
        <dc:format>image/svg+xml</dc:format>
        <dc:type
           rdf:resource="http://purl.org/dc/dcmitype/StillImage" />
        <dc:title></dc:title>
      </cc:Work>
    </rdf:RDF>
  </metadata>
  <g
     inkscape:label="Layer 1"
     inkscape:groupmode="layer"
     id="layer1"
     transform="translate(0,-1032.3622)">
    <path
       style="fill:#ffffff;fill-opacity:1;stroke:none;stroke-width:0.29132637000000000;stroke-miterlimit:4;stroke-dasharray:none"
       d="M 3.4375 0.65625 C 2.6639822 0.70855122 1.9239631 1.0629304 1.375 1.75 C 0.27707386 3.1241391 0.41458858 5.2236645 1.6875 6.4375 L 5.40625 10 L 1.6875 13.53125 C 0.41458858 14.745085 0.27707386 16.844611 1.375 18.21875 C 2.4729261 19.592889 4.3833386 19.713835 5.65625 18.5 L 10 14.34375 L 14.34375 18.5 C 15.616661 19.713835 17.527074 19.592889 18.625 18.21875 C 19.722926 16.844611 19.554161 14.745085 18.28125 13.53125 L 14.5625 10 L 18.28125 6.4375 C 19.554161 5.2236645 19.722926 3.1241391 18.625 1.75 C 17.527074 0.3758609 15.616661 0.25491451 14.34375 1.46875 L 10 5.625 L 5.65625 1.46875 C 5.0197943 0.86183226 4.2110178 0.60394878 3.4375 0.65625 z "
       transform="translate(0,1032.3622)"
       id="rect12094" />
  </g>
</svg>
