<?xml version="1.0" encoding="UTF-8" standalone="no"?>
<!-- Created with Inkscape (http://www.inkscape.org/) -->

<svg
   xmlns:dc="http://purl.org/dc/elements/1.1/"
   xmlns:cc="http://creativecommons.org/ns#"
   xmlns:rdf="http://www.w3.org/1999/02/22-rdf-syntax-ns#"
   xmlns:svg="http://www.w3.org/2000/svg"
   xmlns="http://www.w3.org/2000/svg"
   xmlns:sodipodi="http://sodipodi.sourceforge.net/DTD/sodipodi-0.dtd"
   xmlns:inkscape="http://www.inkscape.org/namespaces/inkscape"
   width="64"
   height="45"
   id="svg2"
   version="1.1"
   inkscape:version="0.48.3.1 r9886"
   sodipodi:docname="crj_logo.svg">
  <defs
     id="defs4">
    <linearGradient
       id="SVGID_2_"
       gradientUnits="userSpaceOnUse"
       x1="144.76511"
       y1="227.18359"
       x2="144.76511"
       y2="70.472504">
      <stop
         offset="0"
         style="stop-color:#21697C"
         id="stop4133" />
      <stop
         offset="1"
         style="stop-color:#123D49"
         id="stop4135" />
    </linearGradient>
    <linearGradient
       id="SVGID_2_-6"
       gradientUnits="userSpaceOnUse"
       x1="144.76511"
       y1="227.18359"
       x2="144.76511"
       y2="70.472504">
      <stop
         offset="0"
         style="stop-color:#21697C"
         id="stop4133-5" />
      <stop
         offset="1"
         style="stop-color:#123D49"
         id="stop4135-9" />
    </linearGradient>
    <linearGradient
       id="SVGID_1_"
       gradientUnits="userSpaceOnUse"
       x1="144.76421"
       y1="1.9375"
       x2="144.7641"
       y2="282.10941">
      <stop
         offset="0"
         style="stop-color:#46C8F5"
         id="stop4124" />
      <stop
         offset="1"
         style="stop-color:#0D7B99"
         id="stop4126" />
    </linearGradient>
    <linearGradient
       x1="0"
       y1="0"
       x2="1"
       y2="0"
       id="linearGradient312"
       gradientUnits="userSpaceOnUse"
       gradientTransform="matrix(0,-82.30423,-82.30423,0,55.296387,104.37598)"
       spreadMethod="pad">
      <stop
         id="stop314"
         style="stop-color:#f9f9f9;stop-opacity:1"
         offset="0" />
      <stop
         id="stop316"
         style="stop-color:#d1d1d3;stop-opacity:1"
         offset="1" />
    </linearGradient>
    <linearGradient
       x1="0"
       y1="0"
       x2="1"
       y2="0"
       id="linearGradient280"
       gradientUnits="userSpaceOnUse"
       gradientTransform="matrix(0,-36.206055,-36.206055,0,106,103.95264)"
       spreadMethod="pad">
      <stop
         id="stop282"
         style="stop-color:#f9f9f9;stop-opacity:1"
         offset="0" />
      <stop
         id="stop284"
         style="stop-color:#d1d1d3;stop-opacity:1"
         offset="1" />
    </linearGradient>
  </defs>
  <sodipodi:namedview
     id="base"
     pagecolor="#ffffff"
     bordercolor="#666666"
     borderopacity="1.0"
     inkscape:pageopacity="0.0"
     inkscape:pageshadow="2"
     inkscape:zoom="2.7025451"
     inkscape:cx="-15.92283"
     inkscape:cy="32.480342"
     inkscape:document-units="px"
     inkscape:current-layer="layer1"
     showgrid="false"
     inkscape:window-width="838"
     inkscape:window-height="757"
     inkscape:window-x="440"
     inkscape:window-y="19"
     inkscape:window-maximized="0" />
  <metadata
     id="metadata7">
    <rdf:RDF>
      <cc:Work
         rdf:about="">
        <dc:format>image/svg+xml</dc:format>
        <dc:type
           rdf:resource="http://purl.org/dc/dcmitype/StillImage" />
        <dc:title />
      </cc:Work>
    </rdf:RDF>
  </metadata>
  <g
     inkscape:label="Layer 1"
     inkscape:groupmode="layer"
     id="layer1"
     transform="translate(0,-1007.3622)">
    <path
       style="fill:#ffffff"
       d="m 6.5189455,1034.4626 c -3.744838,-2.0007 -3.7606296,-7.2194 -0.027627,-9.1238 1.7415723,-0.8885 5.6362275,-1.0049 6.3136025,-0.1887 0.79602,0.9591 -0.183658,1.5715 -2.514175,1.5715 -1.8326911,0 -2.2005582,0.121 -3.1002328,1.0208 -1.3773584,1.3773 -1.3728607,2.8714 0.012818,4.2572 1.0218268,1.0217 1.0726209,1.0324 4.4525778,0.9335 l 3.41896,-0.1002 0.174611,-4.0161 0.17461,-4.016 3.748734,-0.099 c 4.273555,-0.1129 5.482019,0.2766 6.194456,1.9965 0.681115,1.6444 -0.183062,3.7304 -1.780134,4.2969 -0.362356,0.1286 -0.272438,0.3964 0.366442,1.0914 0.742697,0.8079 1.116441,0.9209 3.044609,0.9209 l 2.197984,0 0.09839,-4.1033 0.09839,-4.1033 1.047665,0 1.047664,0 0,5.0636 0,5.0638 -4.032301,0.098 -4.032298,0.098 -1.863465,-2.3254 c -2.345275,-2.9267 -2.413394,-3.4236 -0.488478,-3.5638 1.780996,-0.1296 2.427095,-0.7561 1.864271,-1.8077 -0.350115,-0.6542 -0.654472,-0.7249 -2.730703,-0.6335 l -2.33667,0.1028 -0.174611,4.016 -0.17461,4.0161 -4.889104,0.094 c -4.2228343,0.081 -5.055672,0 -6.1113793,-0.5594 z m 28.4116265,0.294 c -0.963167,-0.3887 -1.87078,-1.6891 -1.87078,-2.6804 0,-2.2364 3.269613,-3.4819 4.889104,-1.8624 1.253344,1.2533 0.873464,3.5524 -0.72342,4.3781 -1.114248,0.5763 -1.250772,0.586 -2.294904,0.1647 z m 0.22455,-4.0396 c 0,-0.5763 -0.551923,-0.6736 -0.873054,-0.1541 -0.284794,0.4608 0.132778,1.1148 0.547963,0.8582 0.178798,-0.1105 0.325091,-0.4274 0.325091,-0.7041 z m 4.889105,3.11 c 0.07323,-1.9403 0.601905,-3.2641 1.891538,-3.2641 1.245342,0 1.958729,1.3747 1.897881,3.2499 -0.05202,1.6031 -0.986174,1.5248 -0.928235,-0.017 0.112488,-2.9936 -2.094094,-2.7952 -2.052055,0.063 0.02104,1.4307 -0.861148,1.3465 -0.809129,-0.032 z m 5.238325,-2.0417 c 0,-1.979 -0.03575,-3.3202 0.349222,-3.3176 0.367933,0 0.349221,1.3386 0.349221,3.3176 0,1.9789 0.0187,3.3146 -0.349221,3.3176 -0.356526,0 -0.349222,-1.3387 -0.349222,-3.3176 z m 3.186648,-1.1496 c 0.497425,0 0.522474,4.4037 0,4.3944 -0.522476,-0.01 -0.497423,-4.3897 0,-4.3944 z m 2.284496,4.2343 c -0.136912,-0.1368 -0.0084,-0.4069 -0.02859,-0.8069 -0.09509,-1.9792 0.527421,-3.4502 1.818005,-3.4006 1.542472,-0.059 1.917284,2.294 1.838672,3.4472 -0.06512,0.638 -0.221559,0.9932 -0.368702,0.9932 -0.192073,0 -0.501448,-0.1298 -0.501448,-0.9706 -0.249542,-3.9172 -2.059615,-2.9893 -1.962046,-0.07 -0.06774,1.0382 -0.319895,1.2835 -0.795901,0.8075 z m 5.539813,-0.454 c -1.303963,-1.4409 -0.326696,-3.8531 1.561017,-3.8531 0.516677,0 1.207685,0.2965 1.535558,0.6588 0.183991,0.2033 0.442484,0.3807 0.347578,0.4734 l -2.48474,1.7631 -0.400067,-0.3345 c 0.372057,-0.6603 1.229136,-0.9585 1.833253,-1.5518 0.09296,-0.092 -0.329844,-0.3105 -0.632025,-0.3105 -0.63223,0 -1.596436,0.9492 -1.596436,1.5715 0,0.5393 0.883221,1.4193 1.371083,1.4193 0.178349,0 1.044528,-0.2128 1.428674,-0.597 0.719373,-0.7193 1.041678,-0.8675 1.041678,-0.3594 0,0.6092 -1.657409,1.8071 -2.50024,1.8071 -0.48605,0 -1.163454,-0.3092 -1.505333,-0.6869 z m -8.330562,-4.4321 c -0.315811,-0.3158 0.466846,-1.2057 0.851388,-0.968 0.481491,0.2976 0.364264,1.1979 -0.155972,1.1979 -0.256099,0 -0.569033,-0.1034 -0.695416,-0.2299 z m -10.198231,-1.5268 c -0.972939,-1.0751 -0.350476,-2.5723 1.129349,-2.7165 0.869227,-0.085 1.232994,0.084 1.69266,0.7858 0.543316,0.8292 0.544283,0.9564 0.01345,1.7666 -0.698671,1.0664 -1.953232,1.1389 -2.835462,0.1641 z m 0.882624,-1.7355 c 0,-0.1921 -0.157151,-0.3493 -0.349223,-0.3493 -0.192072,0 -0.349221,0.1572 -0.349221,0.3493 0,0.192 0.157149,0.3491 0.349221,0.3491 0.192072,0 0.349223,-0.1571 0.349223,-0.3491 z m 7.651104,1.1839 c -0.347834,-0.419 -0.325303,-0.6273 0.115565,-1.0682 0.6402,-0.6402 1.313094,-0.3502 1.313094,0.5659 0,0.8473 -0.884285,1.1583 -1.428659,0.5023 z m -3.941888,-1.0168 c -0.685741,-0.6858 -0.699075,-0.8996 -0.10661,-1.7098 0.910012,-1.2446 2.942182,0.1503 2.120335,1.4553 -0.524542,0.833 -1.33306,0.9351 -2.013725,0.2545 z"
       id="path5618"
       inkscape:connector-curvature="0"
       sodipodi:nodetypes="csssssscccssccscccccccccscsscccscccssccsccsssssssssssszzzscccsccscssccccsssssscccsccsssccsssssssssssss" />
  </g>
</svg>
