<?xml version="1.0" encoding="UTF-8" standalone="no"?>
<svg
   xmlns:dc="http://purl.org/dc/elements/1.1/"
   xmlns:cc="http://creativecommons.org/ns#"
   xmlns:rdf="http://www.w3.org/1999/02/22-rdf-syntax-ns#"
   xmlns:svg="http://www.w3.org/2000/svg"
   xmlns="http://www.w3.org/2000/svg"
   xmlns:sodipodi="http://sodipodi.sourceforge.net/DTD/sodipodi-0.dtd"
   xmlns:inkscape="http://www.inkscape.org/namespaces/inkscape"
   version="1.1"
   width="64"
   height="64"
   viewBox="0 0 63.999999 64.000002"
   id="svg3072"
   inkscape:version="0.48.4 r9939"
   sodipodi:docname="github-logo.svg">
  <metadata
     id="metadata3100">
    <rdf:RDF>
      <cc:Work
         rdf:about="">
        <dc:format>image/svg+xml</dc:format>
        <dc:type
           rdf:resource="http://purl.org/dc/dcmitype/StillImage" />
      </cc:Work>
    </rdf:RDF>
  </metadata>
  <defs
     id="defs3098" />
  <sodipodi:namedview
     pagecolor="#ffffff"
     bordercolor="#666666"
     borderopacity="1"
     objecttolerance="10"
     gridtolerance="10"
     guidetolerance="10"
     inkscape:pageopacity="0"
     inkscape:pageshadow="2"
     inkscape:window-width="557"
     inkscape:window-height="983"
     id="namedview3096"
     showgrid="false"
     inkscape:zoom="3.4731698"
     inkscape:cx="32.198271"
     inkscape:cy="31.976214"
     inkscape:window-x="1121"
     inkscape:window-y="48"
     inkscape:window-maximized="0"
     inkscape:current-layer="svg3072" />
  <g
     id="g3102"
     transform="matrix(1.1711914,0,0,1.1711914,-4.4955102,-3.3652295)">
    <path
       style="fill:#9cdaf1"
       inkscape:connector-curvature="0"
       id="path3074"
       d="m 46.477903,48.559494 c 0,2.91996 -6.76343,5.28682 -15.10558,5.28682 -8.34352,0 -15.10703,-2.36686 -15.10703,-5.28682 0,-2.92005 6.76326,-5.28741 15.10703,-5.28741 8.34207,0 15.10558,2.36779 15.10558,5.28741 z" />
    <path
       style="fill:#7dbbe6"
       inkscape:connector-curvature="0"
       id="path3076"
       d="m 27.266683,53.649204 v -3.76866 c 0,-0.4866 -0.0881,-0.89356 -0.23504,-1.23733 0.97448,0.75683 1.04039,2.65863 1.04039,2.65863 v 2.41818 c 0.87694,0.0685 1.78254,0.10992 2.70952,0.12239 l -0.0244,-2.40621 c -0.13427,-3.28927 -2.95355,-3.6919 -2.95355,-3.6919 -1.03029,-0.23393 -1.01503,0.28321 -0.91146,0.61723 -1.01079,-1.72386 -3.71989,-1.50121 -3.71989,-1.50121 -0.94013,0.33521 -0.0675,0.93962 -0.0675,0.93962 1.4772,0.53682 1.61129,2.14803 1.61129,2.14803 v 3.35924 c 0.81341,0.13944 1.66533,0.25454 2.55126,0.34122 l -5.9e-4,7.7e-4 z" />
    <path
       style="fill:#7dbbe6"
       inkscape:connector-curvature="0"
       id="path3078"
       d="m 39.148393,46.860074 c 0,0 -2.70944,-0.22274 -3.72014,1.50154 0.10356,-0.33402 0.11917,-0.85166 -0.91129,-0.61756 0,0 -2.81911,0.40271 -2.95329,3.69189 l -0.0249,2.40987 c 0.92563,-0.003 1.83124,-0.0361 2.70962,-0.0954 v -2.44871 c 0,0 0.0661,-1.9018 1.04046,-2.65863 -0.1469,0.34377 -0.23503,0.75064 -0.23503,1.23742 v 3.80767 c 0.88373,-0.0774 1.73658,-0.18194 2.55083,-0.31112 v -3.42912 c 0,0 0.13427,-1.6113 1.61113,-2.14812 0,-0.001 0.87177,-0.60586 -0.0683,-0.94148 l 8.5e-4,0.002 z" />
    <path
       inkscape:connector-curvature="0"
       id="path3080"
       d="m 58.031113,26.643324 0.0398,-0.19746 c -4.43143,-0.88609 -8.97914,-0.89508 -11.73048,-0.78075 0.45183,-1.62843 0.58796,-3.50224 0.58796,-5.59174 0,-2.99681 -1.1258,-5.39438 -2.95381,-7.21848 0.31952,-1.03097 0.74607,-3.3205599 -0.42587,-6.2519799 0,0 -2.06804,-0.65658 -6.74519,2.47391 -1.83234,-0.45777 -3.78223,-0.6839 -5.73509,-0.6839 -2.14862,0 -4.31981,0.27363 -6.34468,0.82894 -4.8266,-3.29266 -6.95732,-2.61818 -6.95732,-2.61818 -1.39085,3.4781499 -0.53088,6.0532399 -0.26964,6.6928599 -1.63471,1.76422 -2.63277,4.01649 -2.63277,6.7775 0,2.0845 0.23733,3.95467 0.81698,5.57996 -2.77467,-0.10093 -7.1564801,-0.0621 -11.4298901,0.79237 l 0.0393,0.19755 c 4.2992,-0.85981 8.7085701,-0.88967 11.4663601,-0.78534 0.12765,0.33648 0.27006,0.66277 0.42961,0.9783 -2.72717,0.0878 -7.3838801,0.43546 -11.8466101,1.6945 l 0.055,0.1933 c 4.49801,-1.26812 9.1950901,-1.60705 11.8958001,-1.68975 1.62945,3.03743 4.84195,4.99903 10.5571,5.61498 -0.81112,0.54522 -1.63869,1.47186 -1.97398,3.03965 -1.10535,0.52867 -4.60463,1.81927 -6.70414,-1.79171 0,0 -1.17516,-2.14871 -3.42472,-2.31682 0,0 -2.18204,-0.0335 -0.15055,1.35981 0,0 1.46007,0.68788 2.46746,3.27357 0,0 1.31417,4.40997 7.65597,2.99511 v 4.55535 c 0,0 -0.1341,1.61121 -1.6113,2.14803 0,0 -0.87278,0.60425 0.0675,0.93945 0,0 4.09453,0.3358 4.09453,-3.02022 v -4.96731 c 0,0 -0.16243,-1.96999 0.80526,-2.65465 v 8.15861 c 0,0 -0.0668,1.94658 -1.0738,2.6851 0,0 -0.67168,1.2079 0.80535,0.8727 0,0 2.81912,-0.40272 2.95355,-3.6919 l 0.0639,-8.25674 h 0.67762 l 0.0645,8.25674 c 0.13401,3.28918 2.95338,3.6919 2.95338,3.6919 1.47652,0.3352 0.80527,-0.8727 0.80527,-0.8727 -1.0068,-0.73852 -1.07381,-2.6851 -1.07381,-2.6851 v -8.08829 c 0.96719,0.75318 0.80536,2.58416 0.80536,2.58416 v 4.96714 c 0,3.35619 4.09452,3.02022 4.09452,3.02022 0.93954,-0.33512 0.0675,-0.93936 0.0675,-0.93936 -1.47703,-0.53691 -1.61121,-2.14812 -1.61121,-2.14812 v -6.51126 c 0,-2.53913 -1.06906,-3.88367 -2.11478,-4.59343 6.09497,-0.60442 9.01994,-2.57238 10.36762,-5.63025 2.66975,0.0734 7.47412,0.39864 12.06976,1.69492 l 0.0548,-0.1933 c -4.56943,-1.28881 -9.34225,-1.62232 -12.03897,-1.70086 0.12782,-0.30908 0.23919,-0.63029 0.33826,-0.96066 2.73751,-0.11382 7.30677,-0.1123 11.75516,0.77643 l -0.007,-0.003 z" />
    <path
       style="fill:#f4cbb2"
       inkscape:connector-curvature="0"
       id="path3082"
       d="m 40.967243,19.932744 c 1.31282,1.18924 2.0806,2.62547 2.0806,4.17281 0,7.22493 -5.38581,7.42069 -12.02888,7.42069 -6.64417,0 -12.02938,-1.00052 -12.02938,-7.42069 0,-1.53716 0.75709,-2.96432 2.05362,-4.14881 2.16279,-1.97398 5.82296,-0.92876 9.97568,-0.92876 4.13405,-6e-4 7.78176,-1.0565 9.9476,0.90399 l 7.6e-4,7.7e-4 z" />
    <path
       style="fill:#ffffff"
       inkscape:connector-curvature="0"
       id="path3084"
       d="m 27.017733,24.473164 c 0,1.99009 -1.12062,3.603 -2.50291,3.603 -1.38228,0 -2.50291,-1.61308 -2.50291,-3.603 0,-1.98976 1.12063,-3.60225 2.50291,-3.60225 1.38238,0.002 2.50291,1.61283 2.50291,3.60225 z m 13.42906,0 c 0,1.99009 -1.12062,3.603 -2.50299,3.603 -1.38229,0 -2.503,-1.61308 -2.503,-3.603 0,-1.98976 1.12071,-3.60225 2.503,-3.60225 1.38237,0.002 2.50299,1.61283 2.50299,3.60225 z" />
    <path
       style="fill:#ad5c51"
       inkscape:connector-curvature="0"
       id="path3086"
       d="m 26.215693,24.518704 c 0,1.32656 -0.74802,2.40139 -1.66872,2.40139 -0.9207,0 -1.66855,-1.07499 -1.66855,-2.40139 0,-1.32707 0.74734,-2.40248 1.66855,-2.40248 0.92011,0 1.66813,1.07507 1.66813,2.4018 l 5.9e-4,6.8e-4 z m 13.42753,0 c 0,1.32656 -0.74793,2.40139 -1.66872,2.40139 -0.92062,0 -1.66855,-1.07499 -1.66855,-2.40139 0,-1.32707 0.74734,-2.40248 1.66855,-2.40248 0.92028,0 1.66821,1.07507 1.66821,2.4018 l 5.1e-4,6.8e-4 z" />
    <circle
       transform="matrix(0.08481851,0,0,0.08481851,4.2509229,6.5455841)"
       style="fill:#ad5c51"
       sodipodi:ry="7.3790002"
       sodipodi:rx="7.3790002"
       sodipodi:cy="249.089"
       sodipodi:cx="316.03601"
       id="circle3088"
       r="7.3790002"
       cy="249.089"
       cx="316.03601"
       d="m 323.41501,249.089 c 0,4.07531 -3.30369,7.379 -7.379,7.379 -4.07531,0 -7.379,-3.30369 -7.379,-7.379 0,-4.0753 3.30369,-7.379 7.379,-7.379 4.07531,0 7.379,3.3037 7.379,7.379 z" />
    <path
       style="fill:#ad5c51"
       inkscape:connector-curvature="0"
       id="path3090"
       d="m 29.596053,29.255824 c -0.037,-0.10501 0.0182,-0.21977 0.12247,-0.25675 0.10475,-0.037 0.21985,0.0183 0.25658,0.12239 0.16124,0.45489 0.59263,0.76032 1.07389,0.76032 0.48126,0 0.91256,-0.30535 1.07388,-0.76032 0.037,-0.10483 0.15174,-0.15937 0.25658,-0.12239 0.10492,0.0371 0.15937,0.15174 0.12256,0.25675 -0.2173,0.61493 -0.80196,1.028 -1.45311,1.028 -0.65123,0 -1.23445,-0.41103 -1.45201,-1.02673 l -8.4e-4,-10e-4 z" />
    <path
       style="fill:#c3e4d8"
       inkscape:connector-curvature="0"
       id="path3092"
       d="m 15.717873,32.118444 c 0,0.16701 -0.19567,0.30187 -0.43656,0.30187 -0.24071,0 -0.43656,-0.13486 -0.43656,-0.30187 0,-0.16709 0.19585,-0.30238 0.43656,-0.30238 0.24089,0 0.43656,0.1352 0.43656,0.30289 v -5.1e-4 z m 1.20875,0.67126 c 0,0.167 -0.19568,0.30178 -0.43656,0.30178 -0.2408,0 -0.43656,-0.13478 -0.43656,-0.30178 0,-0.1671 0.19585,-0.30247 0.43656,-0.30247 0.24088,0 0.43656,0.1352 0.43656,0.30289 v -4.2e-4 z m 0.73852,0.8732 c 0,0.16692 -0.19568,0.30179 -0.43657,0.30179 -0.24071,0 -0.43656,-0.13487 -0.43656,-0.30179 0,-0.16718 0.19585,-0.30238 0.43656,-0.30238 0.24089,0 0.43657,0.13512 0.43657,0.30281 v -4.3e-4 z m 0.67125,1.0068 c 0,0.16701 -0.19568,0.30187 -0.43656,0.30187 -0.24072,0 -0.43656,-0.13486 -0.43656,-0.30187 0,-0.16709 0.19584,-0.30247 0.43656,-0.30247 0.24088,0 0.43656,0.13529 0.43656,0.30289 v -4.2e-4 z m 0.73784,0.94004 c 0,0.16701 -0.19568,0.30179 -0.43657,0.30179 -0.24071,0 -0.43656,-0.13478 -0.43656,-0.30179 0,-0.16709 0.19585,-0.30246 0.43656,-0.30246 0.24089,0 0.43657,0.1352 0.43657,0.30289 v -4.3e-4 z m 1.00823,0.80484 c 0,0.16701 -0.19567,0.30187 -0.43656,0.30187 -0.24071,0 -0.43656,-0.13486 -0.43656,-0.30187 0,-0.16717 0.19585,-0.30237 0.43656,-0.30237 0.24089,0 0.43656,0.13511 0.43656,0.30288 v -5.1e-4 z m 1.40935,0.53758 c 0,0.16701 -0.19568,0.30187 -0.43656,0.30187 -0.24072,0 -0.43656,-0.13486 -0.43656,-0.30187 0,-0.16717 0.19584,-0.30237 0.43656,-0.30237 0.24088,0 0.43656,0.13511 0.43656,0.30288 v -5.1e-4 z m 1.40357,0 c 0,0.16701 -0.19567,0.30187 -0.43656,0.30187 -0.24071,0 -0.43656,-0.13486 -0.43656,-0.30187 0,-0.16717 0.19585,-0.30237 0.43656,-0.30237 0.24089,0 0.43656,0.13511 0.43656,0.30288 v -5.1e-4 z m 1.42351,-0.23316 c 0,0.16692 -0.19567,0.30178 -0.43656,0.30178 -0.24071,0 -0.43656,-0.13486 -0.43656,-0.30178 0,-0.16726 0.19585,-0.30247 0.43656,-0.30247 0.24089,0 0.43656,0.13512 0.43656,0.30289 v -4.2e-4 z" />
    <path
       style="fill:#9cdaf1"
       inkscape:connector-curvature="0"
       id="path3094"
       d="m 14.114893,33.014384 -0.43605,1.5191 c 0,0 -0.11375,0.5492 0.4039,0.64649 0.54038,-0.0105 0.49577,-0.51579 0.45836,-0.67991 l -0.42621,-1.48568 z" />
  </g>
</svg>
