<?xml version="1.0" encoding="UTF-8" standalone="no"?>
<!-- Created with Inkscape (http://www.inkscape.org/) -->

<svg
   xmlns:dc="http://purl.org/dc/elements/1.1/"
   xmlns:cc="http://creativecommons.org/ns#"
   xmlns:rdf="http://www.w3.org/1999/02/22-rdf-syntax-ns#"
   xmlns:svg="http://www.w3.org/2000/svg"
   xmlns="http://www.w3.org/2000/svg"
   xmlns:sodipodi="http://sodipodi.sourceforge.net/DTD/sodipodi-0.dtd"
   xmlns:inkscape="http://www.inkscape.org/namespaces/inkscape"
   width="64"
   height="64"
   id="svg3835"
   version="1.1"
   inkscape:version="0.48.4 r9939"
   sodipodi:docname="lernu_logo.svg">
  <defs
     id="defs3837" />
  <sodipodi:namedview
     id="base"
     pagecolor="#ffffff"
     bordercolor="#666666"
     borderopacity="1.0"
     inkscape:pageopacity="0.0"
     inkscape:pageshadow="2"
     inkscape:zoom="3.6875"
     inkscape:cx="-62.101695"
     inkscape:cy="32"
     inkscape:document-units="px"
     inkscape:current-layer="layer1"
     showgrid="false"
     inkscape:window-width="557"
     inkscape:window-height="983"
     inkscape:window-x="1121"
     inkscape:window-y="48"
     inkscape:window-maximized="0" />
  <metadata
     id="metadata3840">
    <rdf:RDF>
      <cc:Work
         rdf:about="">
        <dc:format>image/svg+xml</dc:format>
        <dc:type
           rdf:resource="http://purl.org/dc/dcmitype/StillImage" />
        <dc:title />
      </cc:Work>
    </rdf:RDF>
  </metadata>
  <g
     inkscape:label="Layer 1"
     inkscape:groupmode="layer"
     id="layer1"
     transform="translate(0,-988.3622)">
    <path
       style="fill:#ffffff"
       d="m 9.5363761,1037.3877 c 0,-0.1214 0.3967931,-1.3381 0.8817629,-2.7042 0.988503,-2.7842 1.369942,-2.1828 -3.5669354,-5.6251 -9.0957424,-6.3423 -7.18324412,-16.0385 4.3005064,-21.8032 5.866555,-2.945 10.843257,-3.8984 20.521196,-3.9313 9.560599,-0.032 14.053867,0.7318 19.823626,3.3719 2.102679,0.9622 3.263826,1.2245 3.661041,0.8273 0.319943,-0.3199 1.233038,-0.5521 2.029102,-0.5159 1.16244,0.054 1.223901,0.1178 0.312183,0.3317 -2.055043,0.4812 -2.554216,1.8603 -2.554216,7.0563 0,6.9562 1.17226,7.292 3.165416,0.9069 0.562319,-1.8014 1.282051,-3.1888 1.599416,-3.0829 1.062967,0.3543 3.181615,5.0953 3.181615,7.1197 0,6.302 -6.413323,11.8116 -17.425886,14.9703 -3.655118,1.0483 -5.861611,1.2719 -12.657091,1.283 -4.707546,0.012 -9.940449,-0.3198 -12.225867,-0.7647 l -3.99562,-0.7781 -3.525124,1.7795 c -1.938819,0.9787 -3.5251249,1.6803 -3.5251249,1.5588 z m 2.7462969,-18.3847 c 0.860769,-7.9463 0.854035,-8.0884 -0.383345,-8.0884 -0.90617,0 -1.129195,0.7989 -1.703629,6.1019 -0.8607686,7.9463 -0.8540351,8.0883 0.383345,8.0883 0.906169,0 1.129195,-0.7988 1.703629,-6.1018 z m 9.618039,4.9158 c 0.135943,-0.7169 -0.32924,-0.8917 -2.265308,-0.8514 -2.112878,0.043 -2.460466,-0.1189 -2.61776,-1.2263 -0.1571,-1.1061 0.07293,-1.2771 1.718416,-1.2771 3.385542,0 5.57652,-2.5925 3.741673,-4.4273 -1.204769,-1.2049 -4.685818,-0.814 -6.331034,0.7108 -1.193142,1.1057 -1.501894,1.9141 -1.501894,3.9327 0,3.4188 1.072746,4.431 4.462655,4.211 1.854662,-0.1203 2.672252,-0.4342 2.793252,-1.0724 z m -4.985493,-4.9441 c 0,-0.879 1.37668,-1.8164 2.667737,-1.8164 1.484883,0 1.780992,1.399 0.407659,1.9259 -1.277821,0.4904 -3.075396,0.4264 -3.075396,-0.1091 z m 9.872331,5.2323 c 0.189492,-0.4939 0.34453,-1.8476 0.34453,-3.0083 0,-2.4243 0.805412,-3.4727 2.667734,-3.4727 0.927086,0 1.305489,-0.3291 1.305489,-1.1352 0,-1.2968 -1.611965,-1.5422 -2.795448,-0.4258 -0.601658,0.5676 -0.804104,0.5676 -1.012225,0 -0.143084,-0.3903 -0.749709,-0.7095 -1.348057,-0.7095 -0.95527,0 -1.088852,0.4325 -1.095658,3.5475 -0.0042,1.9512 -0.161763,4.1223 -0.350001,4.8246 -0.271818,1.0144 -0.107502,1.2772 0.798429,1.2772 0.627373,0 1.295717,-0.404 1.485207,-0.8978 z m 7.852191,-1.9459 c 0.278949,-2.9032 1.634666,-5.1028 3.145023,-5.1028 0.667486,0 0.784076,0.7684 0.602979,3.9732 -0.211914,3.7505 -0.156435,3.9733 0.989076,3.9733 1.082082,0 1.25158,-0.4068 1.564246,-3.7551 0.202289,-2.1663 0.108482,-4.2078 -0.221693,-4.8246 -0.714008,-1.3342 -3.194908,-1.4043 -4.602846,-0.1302 -0.96587,0.8741 -1.038,0.8741 -1.038,0 0,-0.537 -0.451668,-0.9394 -1.054349,-0.9394 -0.873489,0 -1.1169,0.5984 -1.419007,3.4889 -0.573567,5.4876 -0.497301,6.1604 0.69833,6.1604 0.861114,0 1.114885,-0.5401 1.336241,-2.8437 z m 13.590868,1.9043 c 0.96587,-0.874 1.037999,-0.874 1.037999,0 0,0.561 0.457287,0.9394 1.135208,0.9394 0.901331,0 1.136222,-0.3801 1.14014,-1.8446 0.0028,-1.0147 0.166002,-3.1858 0.362863,-4.8248 0.32681,-2.7208 0.259228,-2.9799 -0.777276,-2.9799 -0.938158,0 -1.193216,0.4898 -1.469403,2.8218 -0.41496,3.5036 -1.248323,5.1247 -2.634614,5.1247 -1.41055,0 -1.62542,-0.7815 -1.287536,-4.6827 0.257807,-2.9768 0.183115,-3.2638 -0.849297,-3.2638 -0.981478,0 -1.178578,0.4992 -1.482624,3.7552 -0.202289,2.1662 -0.108481,4.2077 0.221694,4.8246 0.714007,1.3342 3.194908,1.4042 4.602846,0.1301 z m 8.303322,0.2582 c 0.960027,-0.96 0.845747,-1.9722 -0.271053,-2.4007 -1.205718,-0.4627 -2.720535,0.9997 -2.265072,2.1865 0.408238,1.0639 1.58697,1.1635 2.536125,0.2142 z"
       id="path3856"
       inkscape:connector-curvature="0" />
  </g>
</svg>
