<?xml version="1.0" encoding="UTF-8" standalone="no"?>
<svg
   xmlns:dc="http://purl.org/dc/elements/1.1/"
   xmlns:cc="http://creativecommons.org/ns#"
   xmlns:rdf="http://www.w3.org/1999/02/22-rdf-syntax-ns#"
   xmlns:svg="http://www.w3.org/2000/svg"
   xmlns="http://www.w3.org/2000/svg"
   xmlns:sodipodi="http://sodipodi.sourceforge.net/DTD/sodipodi-0.dtd"
   xmlns:inkscape="http://www.inkscape.org/namespaces/inkscape"
   width="64"
   height="45"
   id="svg4044"
   version="1.1"
   inkscape:version="0.48.3.1 r9886"
   sodipodi:docname="maximiliano_logo.svg">
  <metadata
     id="metadata4062">
    <rdf:RDF>
      <cc:Work
         rdf:about="">
        <dc:format>image/svg+xml</dc:format>
        <dc:type
           rdf:resource="http://purl.org/dc/dcmitype/StillImage" />
      </cc:Work>
    </rdf:RDF>
  </metadata>
  <defs
     id="defs4060" />
  <sodipodi:namedview
     pagecolor="#ffffff"
     bordercolor="#666666"
     borderopacity="1"
     objecttolerance="10"
     gridtolerance="10"
     guidetolerance="10"
     inkscape:pageopacity="0"
     inkscape:pageshadow="2"
     inkscape:window-width="640"
     inkscape:window-height="480"
     id="namedview4058"
     showgrid="false"
     inkscape:zoom="4.28125"
     inkscape:cx="32"
     inkscape:cy="22.5"
     inkscape:window-x="0"
     inkscape:window-y="19"
     inkscape:window-maximized="0"
     inkscape:current-layer="svg_1" />
  <title
     id="title4046">Green and white globe</title>
  <g
     id="g4048"
     transform="translate(0,-435)">
    <title
       id="title4050">Layer 1</title>
    <switch
       id="switch4052">
      <g
         id="svg_1">
        <path
           style="fill:#ffffff;stroke:none"
           d="m 51.863554,457.51188 c 0.163096,8.80594 -6.324431,17.17029 -14.87422,19.25833 -7.69967,2.05364 -16.46526,-1.0202 -21.086094,-7.54128 -4.786249,-6.47808 -5.098998,-15.89816 -0.573894,-22.59665 4.121427,-6.36523 12.044253,-10.00987 19.557797,-8.80472 7.738217,1.09793 14.525055,7.11889 16.357298,14.74463 0.411976,1.61198 0.621658,3.2758 0.619113,4.93969 z M 35.883321,443.42293 c 1.010962,-0.0196 -1.38679,-0.66104 -0.367591,0.38145 0.52651,-0.0238 1.674899,-0.0322 0.367591,-0.38145 z m 7.328577,3.18746 c 0.396749,0.17191 -0.1124,-0.39071 0,0 m -0.04477,-0.21968 c 0.53988,0.10462 -0.43054,-0.5431 0,0 z m 0.246578,0.14472 c 0.240499,-0.0219 -0.170127,-0.27426 0,0 z m -0.758064,-1.33712 c 0.386972,0.0676 -0.451167,-0.3216 0,0 z m 4.2842,5.70348 c 0.340697,-0.15697 -0.244902,-0.39196 0,0 z m 4.780453,7.34745 0.0078,-0.15071 -0.0078,0.15071 m -19.393745,19.12939 -0.227522,0.002 m -2.072747,-20.29023 c 0.327187,0.30922 0.448179,-0.11189 0,0 z m 2.207985,20.2595 c -0.260391,0.0853 0.531872,-0.0474 0,0 z m 4.207598,-8.8209 c 0.589982,-0.0226 0.07888,-0.5332 0,0 z m -2.477451,-0.38573 0.0955,0.0618 0.01794,0.0116 m -4.697196,-3.01876 c 0.02007,0.3165 0.302888,-0.16431 0,0 z m 6.94941,1.49698 0.107932,0.0311 -0.107932,-0.0311 z m 0.24539,0.39075 0.09262,0.066 0.02584,0.0184 m -4.286844,-1.57576 c 0.3698,0.0841 0.142338,-0.29042 0,-1e-5 m -1.301921,-1.8072 c -0.06585,-0.22366 -0.284667,0.10938 -0.369955,-0.0916 m 0.521972,0.26107 0.04745,-0.16892 -0.125145,-0.13027 m 0.439356,0.7318 c 0.07721,-0.13077 -0.09878,-0.23524 -0.185572,-0.27394 m 0.330928,0.27549 0.06597,0.0927 0.0503,0.0707 m -5.48e-4,0.16213 c 0.05012,0.0863 0.100247,0.17254 0.150371,0.2588 m 0.202351,0.21348 0.102206,-0.12392 -0.144702,-0.0779 m 0.385644,0.12574 0.11157,0.0222 0.01755,0.003 m 0.409902,0.19633 c -0.08441,-0.0358 -0.258924,-0.12038 -0.322541,0.0123 m -2.966684,-1.00619 0.112379,-0.0176 0.05259,-0.008 m 1.700967,-3.41088 0.113955,-0.0553 0.05156,-0.11459 m 0.382359,-1.72568 c 0.823902,-0.0772 0.344727,-0.36508 0,0 z m -1.2276,-5.44523 c 0.04994,0.28865 0.372671,-0.097 0,0 z m -0.496348,1.07951 c 0.321365,0.40574 0.304017,-0.20801 0,0 z m 0.926216,-6.75883 c -0.134125,0.77016 0.941274,-0.18608 0,0 m -0.648452,-1.97271 c -0.05884,1.76301 1.10173,-0.99007 0,0 z m -0.265543,-0.0464 c 0.109872,0.29774 0.124754,-0.24598 0,0 z m -0.144174,0.64736 c 0.248349,0.39634 0.517629,-0.14066 0,0 z m -0.57632,-0.20125 c -0.301858,0.38138 0.242943,0.10942 0,0 z m -0.368316,0.69988 c 0.179133,0.19719 0.0938,-0.30725 0,0 z m -6.38e-4,-1.07942 c 0.29165,0.33481 0.398019,-0.13747 0,0 z m -0.168249,0.0213 c -0.0793,0.26028 0.273016,-0.11634 0,0 m 0.07159,0.10341 c -0.105046,0.42017 0.572153,-0.14682 0,0 z m -0.840227,0.28844 0.154599,-0.0146 -0.154599,0.0146 0,0 z m -6.432909,-4.34393 c -0.07508,0.0432 -0.15016,0.0865 -0.22524,0.12967 m -0.955853,0.86922 c -0.195328,0.0908 0.0048,0.14928 0,0 z m -0.960961,1.46962 c 0.12866,0.0804 0.116821,-0.24998 0,0 z m -0.03018,0.16269 c -0.116921,0.21393 0.18042,-0.0671 0,0 z m 0.02571,0.26381 0.0067,0.0637 0.0621,-0.006 m -0.03183,0.69933 c 0.156882,0.23476 0.379711,-0.11017 0,0 z m 0.141983,0.14254 c 0.100495,0.37175 0.367031,-0.17111 0,0 z m 3.106845,-1.66751 c -0.340697,0.17586 -0.109676,0.56688 0,0 z m -1.125194,0.84242 c -0.349687,0.23352 0.230997,0.35908 0,0 z m -0.706084,2.01293 c -0.326083,0.6102 1.008888,-0.0992 0,0 z m 16.570867,-0.92175 -0.04547,-0.10427 -0.01208,-0.0277 m -1.74574,-0.0983 c 0.09254,0.20774 0.249694,-0.0969 0,0 z m 12.652251,1.00054 c -0.260484,-0.44824 0.104355,0.22766 -0.222954,-0.19679 m -2.059988,-2.75521 -0.158469,-0.16441 -0.282069,-0.29227 m -6.800679,-4.39208 c -0.988953,-0.36558 -1.826447,-0.67016 -0.346813,-0.11128 l 0.346813,0.11128 0,0 z m -16.399066,0.80576 c -0.80785,0.51381 1.758306,-0.86107 0,0 z m -0.223779,0.17134 -0.02289,0.0257 -0.02462,0.0279 m -0.124657,0.0828 c -0.28659,0.15109 -0.0305,0.21246 0,0 z m -0.250957,0.24813 -0.06822,0.0941 0.06822,-0.0941 z m -0.169887,0.22032 -0.005,0.0357 m 0.153657,0.24038 c -0.232281,0.025 -0.0071,0.19999 0,0 z m 3.652523,-1.77538 c -0.295558,-0.0924 -0.0044,0.17389 0,0 z m -2.733512,2.50034 c -0.119014,0.26714 0.279402,-0.0274 0,0 z m 1.738995,-2.16266 c -1.913835,0.0184 -1.580175,0.41545 0,0 z m 1.021328,3.52057 c 0.0089,-0.11348 -0.285881,-0.14258 -0.168338,0.01 m 0,-9e-5 c -0.228898,0.45423 0.429915,-0.14013 0,0 z m 2.970518,-2.25267 c -0.653325,-0.1062 0.02965,0.3474 0,0 z m 0.176722,0.0772 c -0.132333,-0.14208 -0.125584,0.13501 0,0 z m -0.172256,0.41309 c -0.482164,-0.12985 -0.543374,0.32155 0,0 z m 9.283872,0.30467 c -0.270105,-0.32115 -0.372949,0.20387 -2e-6,0 m -3.421083,0.50136 c -0.698118,-0.28796 -0.581495,0.0399 0,0 m -0.11344,0.13304 c -0.290213,-0.36798 -0.568997,0.25132 0,0 z m 0.185573,-0.0274 c -0.05533,-0.21762 -0.176874,0.15135 0,0 z m 0.194507,0.32308 c 0.124423,-0.46349 -0.50182,-0.0873 2e-6,0 m 5.771506,5.09917 c 0.255466,-0.20223 -0.273013,-0.18842 0,0 z m 0.939167,-0.29737 c 0.0037,0.006 -0.24774,-0.17244 -0.08107,-0.007 m 0.214111,0.39959 0.09566,-0.0139 m 0.09329,0.81725 c -0.05888,-0.50233 -0.301925,-0.17605 0,0 z m 0.499812,-3.83418 c 0.248103,-0.0943 -0.459083,-0.25192 0,0 z m -0.173352,-0.11964 c 0.182921,-0.0397 -0.226879,-0.11192 0,0 z m 5.446873,3.18244 c 0.623174,0.16015 -0.432054,-0.67581 0,0 z m 0.442725,-0.0123 c 0.05338,-0.7635 -0.259691,-0.33838 0,0 z m -0.520967,-1.68428 c -0.184307,-0.56281 -0.423748,-0.50416 0,0 z m 0.105689,0.69313 c 0.116544,-0.0598 -0.321577,-0.29099 0,0 z m -0.516044,-0.20061 -0.05417,-0.0402 0.03009,0.0592 m 0.154292,0.11682 0.05307,0.0408 m -4.087866,9.64654 0.112274,-0.0182 0.0079,-0.001 m 0.523889,-0.1594 0.0876,-0.0725 0.02976,-0.0247 m 2.8682,1.30739 c 0.234699,0.0598 -0.01383,-0.37302 0,0 z m 0.210103,-0.0989 0.0818,-0.0694 -0.0818,0.0694 z m 0.226425,-0.31306 c 0.09397,-0.3104 -0.195097,-0.60076 0,0 z m -33.738115,-3.59043 0.02289,-0.006 m 0.0145,0.0521 c -0.119314,0.18204 0.140982,0.0777 1e-6,0 m -0.0067,0.45613 c -0.12394,0.23607 0.102418,0.16467 0,0 z m -0.01286,0.34826 0.01897,0.0956 m -0.01669,0.071 c -0.09018,0.28589 0.08316,0.21175 0,0 z m 33.228365,-8.2413 c -0.332817,-1.17412 -0.22886,0.0588 0,0 z m -0.247216,3.00627 c -0.352891,-0.70697 0.70127,0.6441 0,0 m 0.347799,0.4109 c 0.810761,1.02522 -0.08829,-0.93471 0,0 z m 0.751772,-0.17837 c 0.598963,-0.39668 -0.38037,-0.94258 -10e-6,0 m -21.313291,21.61468 c -0.182537,0.37272 0.493012,0.28895 0,0 z m 4.528403,-4.52001 c 0.728139,0.48976 0.618752,-0.40907 0,0 z m -2.055972,-1.32153 c 1.258845,-0.68679 2.689995,1.42599 3.189604,0.61844 -0.988218,-0.37637 -2.241236,-1.46357 -3.189604,-0.61844 z m 3.319324,1.29417 c 0.885461,0.39019 2.891974,-0.39327 0.874931,-0.49638 -0.918364,-0.15141 0.356539,0.83645 -0.874931,0.49638 z m 2.414249,-0.0224 c 0.827332,0.223 0.240959,-0.5365 0,0 z m -3.600453,-2.18009 c -0.08283,0.53356 0.540129,0.59617 0,0 z m 3.379137,-8.5621 c 0.498222,0.44069 0.984345,-0.0644 0,0 z m 0.189953,1.08051 c 0.70758,0.50639 0.584787,-0.16472 0,0 m -3.948625,-5.20193 c 0.530389,0.0239 0.162068,-0.42406 0,0 z m 0.582433,-0.003 c -0.296772,0.7264 0.432003,-0.0992 0,0 z m 4.421714,4.59042 c 1.421552,0.57544 1.886682,-0.64221 0.492669,-0.84169 0.0076,-1.4958 -0.331392,0.49592 -0.492669,0.84169 z m -5.464842,-5.14777 c 1.667448,0.90752 0.343578,-1.52635 0.07999,-0.0505 l -0.07999,0.0505 m 1.564738,-1.16386 c 0.392705,0.65519 0.336055,-0.74092 0,0 m -1.316517,-1.43378 c 0.636102,0.78043 3.03913,1.38652 1.137395,2.49739 0.535122,-0.28848 2.485693,1.47728 1.406356,0.15277 1.518976,0.80063 -0.602514,-1.29659 0.808747,-0.60602 -0.111989,-0.75781 -1.180928,-1.55419 -1.927741,-2.18968 -0.504715,0.45206 -0.660733,-1.04026 -0.977477,0.17309 0.455724,-0.83692 -0.219886,-0.74039 -0.44728,-0.0276 z m -0.281677,-1.09847 c 0.318624,0.55045 0.366536,-0.55071 0,0 z m 0.281682,-0.56228 c -0.285852,1.47091 2.134219,0.71823 0.418552,0.44896 -0.123422,-0.16356 -0.186304,-0.39522 -0.418552,-0.44896 z m 0.827278,-1.14544 c 0.979813,0.14395 -1.274856,1.98728 0.526411,1.41308 0.237346,-0.72667 1.93552,-2.57261 -0.526411,-1.41308 z m -1.153197,0.34269 c -0.206589,0.63146 1.095178,0.8004 0,0 z m -0.370593,0.71101 c -0.06793,1.05029 0.960108,0.22747 0,0 z m -1.270007,-0.6221 c 0.391671,0.68338 1.111243,-0.38798 0,0 z m 0.139708,0.50419 c 1.177733,1.36626 0.998582,-0.6064 0,0 z m -1.268908,0.35719 c -0.0505,1.13203 2.030218,-0.56378 0.374985,-0.24212 l -0.333836,0.2248 -0.04116,0.0173 c 0,0 7e-6,0 7e-6,0 z m 15.066043,26.63889 c 0.710823,-1.20257 2.25856,-2.5841 2.194011,-3.83138 -1.777521,0.33769 -3.118945,0.37077 -4.381152,0.93826 0.662143,-0.76906 -0.691913,-1.98142 -1.886578,-1.27299 -1.434188,-0.85443 -2.605003,-0.79838 -4.117873,-0.82102 -0.912824,-0.84153 -1.188625,1.63381 -0.984582,-0.28428 -1.184127,2.7e-4 -1.597446,1.70155 -2.654823,0.77645 -1.841437,0.77981 -0.963132,-1.46983 -1.732321,-2.00377 -1.995517,0.38598 -0.799686,-0.95799 -0.752134,-1.8931 -1.034282,-0.0826 -2.354906,1.6073 -3.007025,-0.28663 -0.747832,-1.7955 1.103553,-3.53059 2.691916,-2.34461 -0.436536,-0.86516 2.497884,-0.008 2.065382,1.20787 1.442632,1.24089 -0.668839,-2.2932 1.207952,-2.35918 1.347203,-0.0227 0.218492,-2.75873 0.823544,-1.26778 -0.01732,-1.34945 1.680757,-1.07153 1.490993,-2.20961 0.654486,-0.42223 1.478125,-1.17822 1.038735,-0.0733 0.901107,-0.39346 1.694082,-1.57981 0.395411,-0.7312 -1.042403,-0.46248 0.167231,-1.66863 -1.231316,-0.83941 -1.218809,1.43214 0.519729,-1.44541 1.429046,-0.73013 2.100275,-0.76223 0.169984,-1.66466 -0.38931,-2.37214 -0.574939,-0.88165 -0.74275,-1.01071 -1.22446,-0.31332 -0.376509,-0.80296 -2.098191,-2.14013 -1.89796,-0.20274 0.375082,0.92044 -0.224418,1.99659 -0.487912,2.69425 -0.231832,-1.21198 -1.155807,-1.80066 -2.177472,-2.46843 -0.873585,-1.93557 2.785232,-2.12488 2.248053,-3.65047 -0.552763,0.13489 -0.495036,0.93549 -0.919198,0.0768 -0.228257,-0.84784 0.724038,-2.32979 -0.339542,-0.99399 -0.06101,0.67673 -0.467059,1.70985 -0.508376,0.59471 -0.463698,1.04442 -1.166404,-0.44875 -1.90183,-0.21461 -0.159253,-1.53379 -2.368765,-1.81312 -1.757186,-3.8265 -0.713542,-1.0074 -1.489057,0.38667 -1.990734,-0.3161 0.09594,1.54981 -1.559363,-0.21536 -1.792715,1.43212 0.0014,1.45906 -2.298307,-0.59487 -0.713799,0.78967 0.905814,0.39138 1.877784,-0.27839 1.126327,0.48845 1.467831,-0.14477 -0.221565,3.36605 0.647529,2.1321 -0.750294,1.10344 -0.0156,0.66738 -0.674626,1.98831 -0.06855,1.0914 0.364222,2.37245 -0.409983,2.00496 -0.853588,1.39624 -2.194743,3.30189 -1.035724,4.98392 -0.07649,1.35922 0.264068,3.84923 0.778764,3.9794 -0.159695,-0.57394 -0.780537,-3.99751 -0.06127,-2.30671 0.728206,1.8542 0.70027,4.06051 2.169983,5.34872 1.378849,1.02112 2.987631,1.58264 4.293282,2.59992 0.582439,0.93884 1.886814,2.04615 2.784825,1.30188 1.644081,1.27452 -1.239529,2.32707 -0.560319,3.06387 -0.665293,0.86832 1.41569,1.95132 2.021303,2.56106 2.326109,-0.20457 0.756672,2.26042 0.37765,2.53617 1.651315,0.0555 3.858041,-0.53322 4.632044,-0.90832 1.860362,-0.30382 3.00551,-1.92138 4.683878,-2.60104 l 0.251577,-0.17228 0.238006,-0.20393 M 29.238101,447.67411 c 0.132422,1.46159 1.206033,-0.84119 0,0 z m -1.627284,-0.35773 c 0.50396,0.75438 -0.885436,0.8786 0.486945,1.24141 1.053738,0.88309 1.344655,-1.47444 0.308417,-1.32391 -0.231324,-0.19449 -0.594522,-0.11899 -0.795362,0.0825 z m -5.525662,3.10465 c -0.772846,0.88802 0.329255,0.50531 0.01673,0.0671 l -0.01673,-0.0671 z m -0.228612,1.49533 c -0.167377,1.0842 0.561016,1.52757 0.191801,0.21169 l -0.191801,-0.21169 z m 15.189615,-4.52785 c 0.20169,-0.6587 -0.999189,-1.56771 -1.722076,-2.05203 -0.384231,-1.103 -1.152422,-0.28574 -1.265341,-0.67251 -0.973968,-0.19075 -2.432241,1.91918 -1.346915,2.50399 1.324278,-0.0449 1.580629,1.62009 2.110355,1.81896 -0.575779,1.5913 3.458247,3.58192 2.016853,0.93063 -0.236392,-0.33138 1.143197,-3.21442 0.207124,-2.52904 z m 1.314593,0.97874 c 0.999376,0.89495 1.532327,-1.18971 0.442382,-0.78167 0.149683,0.46929 -0.641192,0.35418 -0.442382,0.78167 z m -9.083528,-7.5364 c -0.908198,-0.0892 -0.04368,0.67297 0,0 z m 3.109669,-0.0497 c -0.722442,-0.13924 -0.289609,0.65655 0,0 z m 0.408624,0.4751 c -0.426508,-0.88723 -0.712814,0.54883 0,0 z m 4.224833,0.2091 c 0.05554,-0.51442 -2.526257,-0.15547 -2.111132,-0.17982 0.692676,0.20709 1.394929,0.23355 2.111132,0.17982 z m 5.990272,8.58673 c 1.190995,-0.43168 -1.285853,-1.92674 -0.256233,-0.37226 0.148357,0.0457 0.398992,0.15201 0.256233,0.37226 z m -29.472523,4.6402 c -0.302742,0.31095 0.08194,0.75446 0,0 z m 11.204243,-15.69964 c -0.918852,1.11395 2.630357,-0.88747 0.917588,0.75205 -1.296732,0.44275 -1.214833,1.31333 -1.829704,1.87551 0.05109,-1.68268 -2.730749,-0.1668 -0.960281,-0.0591 1.23361,-0.32351 -0.737433,2.3066 0.947474,1.47565 0.563269,0.2733 -1.061664,1.38142 0.407332,0.8496 1.282457,-1.05169 1.445614,-2.29902 3.111504,-2.8312 1.152154,-0.32639 1.773284,-1.21011 2.871195,-0.91987 0.572854,0.12827 2.099604,-0.52809 1.049513,0.27283 1.199299,0.6192 2.826015,-0.49677 3.756692,-0.15183 -0.06658,0.20174 2.192397,-0.98978 0.514398,-0.0109 -1.055475,1.08149 1.320828,-0.58395 1.216443,0.56906 0.602951,-0.0611 2.029258,0.88032 1.69368,1.04954 0.87821,-0.28461 2.212972,1.2532 0.917058,0.7892 -0.472636,-1.59938 -1.698461,1.46704 -0.171307,1.67597 0.890474,-0.0961 2.227064,2.81307 3.165839,2.02614 -0.71775,-0.94175 1.897639,0.1995 0.352929,-0.88941 -0.536449,-0.54133 -2.863913,-1.25606 -2.375855,-1.7145 0.667273,0.65677 1.809802,0.87368 1.279672,-0.24445 0.500753,1.14532 2.540531,1.56703 1.892178,3.21363 -1.262976,-0.92992 -0.678956,0.11392 0.177111,0.36814 0.432957,0.8436 0.745989,2.6096 1.010519,2.95648 1.763918,-0.21502 0.432496,1.55358 0.790842,2.187 0.40765,1.45345 2.064695,1.34282 1.634607,-0.27506 -0.611533,-1.17066 -1.772598,-3.57292 0.230536,-3.56021 0.65693,0.26894 -0.528018,-1.04261 -0.991019,-0.26945 -1.589427,-0.88948 2.69176,-0.36794 0.57823,-1.33386 -0.517685,-1.07284 1.239439,0.45085 0.348462,-0.99925 -0.926434,-1.69104 1.415323,0.92283 1.305617,1.70682 -0.09803,0.99027 1.055046,2.86345 -0.277778,2.91642 -1.037305,-1.3852 -0.441036,2.14372 -1.041952,2.6899 0.153829,2.03997 0.366011,4.11958 0.462944,6.26496 0.719711,0.99982 0.543866,3.14569 2.419853,2.55155 0.867655,-0.92368 1.306269,-4.32346 1.637422,-3.58751 -0.04292,2.31874 0.198864,-1.3938 0.05063,-2.1968 -0.497514,-8.0722 -6.376946,-15.50224 -14.187165,-17.69066 -4.19351,-1.23639 -8.799721,-1.07562 -12.872445,0.53133 m 19.159461,10.87551 c 0.80678,-1.62038 -1.25385,-1.85576 -2.126873,-1.88 0.577768,0.85557 1.578423,0.64049 2.083256,1.53911 l 0.03081,0.29006 0.0128,0.0508 c 0,0 4e-6,0 4e-6,0 z"
           id="land"
           inkscape:connector-curvature="0" />
      </g>
    </switch>
  </g>
</svg>
