<?xml version="1.0" encoding="UTF-8" standalone="no"?>
<!-- Created with Inkscape (http://www.inkscape.org/) -->

<svg
   xmlns:dc="http://purl.org/dc/elements/1.1/"
   xmlns:cc="http://creativecommons.org/ns#"
   xmlns:rdf="http://www.w3.org/1999/02/22-rdf-syntax-ns#"
   xmlns:svg="http://www.w3.org/2000/svg"
   xmlns="http://www.w3.org/2000/svg"
   xmlns:sodipodi="http://sodipodi.sourceforge.net/DTD/sodipodi-0.dtd"
   xmlns:inkscape="http://www.inkscape.org/namespaces/inkscape"
   width="64"
   height="45"
   id="svg2"
   version="1.1"
   inkscape:version="0.48.4 r9939"
   sodipodi:docname="muzaiko_logo.svg">
  <defs
     id="defs4">
    <linearGradient
       id="SVGID_2_"
       gradientUnits="userSpaceOnUse"
       x1="144.76511"
       y1="227.18359"
       x2="144.76511"
       y2="70.472504">
      <stop
         offset="0"
         style="stop-color:#21697C"
         id="stop4133" />
      <stop
         offset="1"
         style="stop-color:#123D49"
         id="stop4135" />
    </linearGradient>
    <linearGradient
       id="SVGID_2_-6"
       gradientUnits="userSpaceOnUse"
       x1="144.76511"
       y1="227.18359"
       x2="144.76511"
       y2="70.472504">
      <stop
         offset="0"
         style="stop-color:#21697C"
         id="stop4133-5" />
      <stop
         offset="1"
         style="stop-color:#123D49"
         id="stop4135-9" />
    </linearGradient>
    <linearGradient
       id="SVGID_1_"
       gradientUnits="userSpaceOnUse"
       x1="144.76421"
       y1="1.9375"
       x2="144.7641"
       y2="282.10941">
      <stop
         offset="0"
         style="stop-color:#46C8F5"
         id="stop4124" />
      <stop
         offset="1"
         style="stop-color:#0D7B99"
         id="stop4126" />
    </linearGradient>
    <linearGradient
       x1="0"
       y1="0"
       x2="1"
       y2="0"
       id="linearGradient312"
       gradientUnits="userSpaceOnUse"
       gradientTransform="matrix(0,-82.30423,-82.30423,0,55.296387,104.37598)"
       spreadMethod="pad">
      <stop
         id="stop314"
         style="stop-color:#f9f9f9;stop-opacity:1"
         offset="0" />
      <stop
         id="stop316"
         style="stop-color:#d1d1d3;stop-opacity:1"
         offset="1" />
    </linearGradient>
    <linearGradient
       x1="0"
       y1="0"
       x2="1"
       y2="0"
       id="linearGradient280"
       gradientUnits="userSpaceOnUse"
       gradientTransform="matrix(0,-36.206055,-36.206055,0,106,103.95264)"
       spreadMethod="pad">
      <stop
         id="stop282"
         style="stop-color:#f9f9f9;stop-opacity:1"
         offset="0" />
      <stop
         id="stop284"
         style="stop-color:#d1d1d3;stop-opacity:1"
         offset="1" />
    </linearGradient>
  </defs>
  <sodipodi:namedview
     id="base"
     pagecolor="#ffffff"
     bordercolor="#666666"
     borderopacity="1.0"
     inkscape:pageopacity="0.0"
     inkscape:pageshadow="2"
     inkscape:zoom="1"
     inkscape:cx="-265"
     inkscape:cy="32.500021"
     inkscape:document-units="px"
     inkscape:current-layer="layer1"
     showgrid="false"
     inkscape:window-width="1680"
     inkscape:window-height="1050"
     inkscape:window-x="0"
     inkscape:window-y="0"
     inkscape:window-maximized="0" />
  <metadata
     id="metadata7">
    <rdf:RDF>
      <cc:Work
         rdf:about="">
        <dc:format>image/svg+xml</dc:format>
        <dc:type
           rdf:resource="http://purl.org/dc/dcmitype/StillImage" />
        <dc:title />
      </cc:Work>
    </rdf:RDF>
  </metadata>
  <g
     inkscape:label="Layer 1"
     inkscape:groupmode="layer"
     id="layer1"
     transform="translate(0,-1007.3622)">
    <path
       style="fill:#ffffff"
       d="m 13.803539,1051.6094 c 0.351188,0.072 0.681452,0.099 0.733924,0.055 0.05246,-0.034 -0.366634,-1.0002 -0.931325,-2.1454 l -1.026715,-2.082 -1.303521,0.8342 c -0.716936,0.4583 -1.3599093,0.8719 -1.428832,0.9191 -0.4752908,0.3231 2.516106,2.1527 3.956469,2.4191 z m 2.428312,-0.4827 c 0.01861,-0.3945 0.126364,-2.1909 0.239451,-3.9907 0.113083,-1.8002 0.138707,-3.2729 0.05695,-3.2729 -0.347234,0 -3.203601,3.0453 -3.203601,3.4144 0,0.2233 0.461841,1.3422 1.026313,2.4863 1.039647,2.1088 1.819191,2.6733 1.880891,1.3629 z m 0.527106,0.8002 1.395664,-0.2233 c 1.272453,-0.2036 3.864525,-1.451 4.224431,-2.0338 0.08141,-0.1318 -1.055253,-1.5303 -2.525924,-3.1085 l -2.673946,-2.8701 -0.02164,1.9157 c -0.01192,1.0536 -0.10643,2.9068 -0.210112,4.118 z m 28.777569,-0.2275 c 0.106337,0.1087 1.342693,0.135 2.747449,0.059 2.58569,-0.1415 4.976554,-1.0766 5.704097,-2.2302 0.02282,-0.035 0.15856,-0.1826 0.16565,-0.2486 0.05401,-0.5042 -0.471777,-1.7929 -1.36836,-4.1756 -1.227326,-3.2625 -1.64328,-4.4836 -2.143496,-4.5593 -0.327395,-0.049 -0.690888,0.3916 -1.341599,1.0722 -0.557562,0.5832 -0.940056,0.8019 -1.271184,1.4353 -0.906969,2.3596 -1.487531,4.5712 -2.26504,7.0976 -0.23191,0.7424 -0.333863,1.439 -0.227517,1.5495 z m -0.920092,-0.1889 c 0.08999,0 0.436583,-0.9664 0.770212,-2.152 0.333626,-1.1853 0.66257,-2.3142 0.730972,-2.5086 0.120431,-0.3416 -6.382284,-5.6811 -7.390879,-6.068 -0.421363,-0.1611 -0.498405,0.1258 -0.492546,1.838 0.01153,3.3351 1.734204,6.3155 4.600904,7.9593 0.889746,0.5112 1.691345,0.9313 1.781337,0.9313 z m -21.589456,-2.5661 c 0.603237,0.031 2.429673,-3.0278 2.429673,-4.0699 0,-0.5033 -4.543004,-4.7877 -5.415578,-5.1079 -1.13178,0.9003 -1.707062,1.8825 -2.616269,3.1215 l 2.659056,3.0206 c 1.46248,1.6615 2.786887,3.0194 2.943118,3.0357 z m -13.7906995,-0.3041 c 0.4818233,0 3.1681245,-1.6512 3.0645615,-1.8829 -0.0515,-0.1153 -0.443307,-1.0327 -0.870707,-2.0375 l -0.777091,-1.826 -2.0519948,0 -2.0519908,0 0.2218155,1.182 c 0.2149844,1.1463 1.1906531,3.3515 1.8425532,4.165 0.1758482,0.2203 0.4561304,0.3994 0.6228534,0.3994 z m 45.7522375,-0.1022 c 0.175593,-0.055 0.74323,-0.88 1.261409,-1.8345 0.792106,-1.4587 0.964021,-2.1895 1.079414,-4.5857 l 0.137242,-2.8512 c -1.038809,-0.9156 -2.077706,-1.8309 -3.116597,-2.7462 -1.017148,1.0156 -2.03438,2.0313 -3.051607,3.0469 l 1.685432,4.5349 c 0.926993,2.4934 1.82911,4.4895 2.004707,4.4358 z m -42.058268,-2.4519 c 0.141115,0 0.999524,-0.7544 1.907568,-1.6763 l 1.650988,-1.6761 -1.382189,-1.5887 -1.382195,-1.5891 -0.918231,1.0834 c -1.693421,1.9978 -1.682626,1.9509 -0.875792,3.7705 0.408803,0.9219 0.858735,1.6763 0.999851,1.6763 z m 33.294195,-0.3409 c 0.264834,0.033 0.942111,-1.9985 0.942111,-2.8248 0,-0.9719 -0.943831,-4.1777 -1.229884,-4.1777 -0.124727,0 -1.058633,0.8407 -2.075333,1.8681 l -1.848543,1.8683 2.018168,1.6225 c 1.109996,0.892 2.09706,1.6258 2.193481,1.6436 z m -23.162265,-4.295 c 1.229163,1.1353 2.325844,2.0565 2.437055,2.0728 0.317847,0.015 0.507253,-1.0197 0.470286,-2.5643 l -0.03397,-1.4184 c -1.702737,-0.05 -3.405476,-0.1021 -5.108213,-0.153 l 2.234844,2.0637 z m -16.3073779,-0.536 -0.221381,1.6931 0.9213218,-0.1497 c 0.5067279,-0.081 1.4467056,-0.1545 2.088831,-0.1764 0.9927071,-0.022 1.3637451,-0.2599 2.4781741,-1.5915 l 1.310662,-1.5654 -1.962178,-1.6395 c -1.079199,-0.9014 -2.1097176,-1.5893 -2.2900405,-1.5307 -0.6596838,0.2199 -2.1100356,3.3142 -2.3253894,4.9609 z m 10.2749909,1.3408 c 0.05823,0 0.670772,-0.7642 1.361204,-1.699 l 1.255329,-1.6993 -0.174439,-2.7959 c -0.16396,-2.6283 -0.223125,-2.8147 -0.984885,-3.1049 -1.398184,-0.5311 -2.006977,-0.2245 -2.615964,1.3179 -0.312022,0.7902 -0.86917,2.1965 -1.238104,3.1258 l -0.670787,1.6894 1.48089,1.5831 c 0.81449,0.8703 1.528522,1.5829 1.586756,1.5829 z m 30.758449,0 c 2.22387,-2.1132 3.798936,-3.8436 6.064342,-6.2255 l -1.495728,-1.3908 c -1.798582,-1.6724 -2.489781,-1.9725 -4.652369,-1.9562 -1.86179,0 -2.400484,-0.033 -2.079085,1.7438 0.612627,2.7189 1.254955,5.0502 2.16284,7.8287 z m -6.199569,-0.3197 c 0.180668,4e-4 1.226915,-0.9059 2.324994,-2.0136 l 1.996503,-2.0145 -0.550951,-2.2959 c -0.303025,-1.2621 -0.710556,-2.2953 -0.905614,-2.2953 -0.524916,0 -3.089086,1.7097 -3.882199,2.5886 -0.378826,0.4203 -1.016597,1.3983 -1.417274,2.1744 l -0.728489,1.4111 1.417266,1.2227 c 0.779504,0.6716 1.565094,1.2225 1.745764,1.2225 z m -21.5595,-4.4109 0,1.2416 c 1.968791,-0.06 3.93758,-0.1218 5.906371,-0.1823 l -0.05176,-1.1175 c -0.02846,-0.6145 -0.06434,-1.2051 -0.0798,-1.3142 -0.03214,-0.226 -4.926675,-3.4146 -5.690918,-3.7079 -0.440987,-0.169 -0.478509,0.063 -0.294616,1.8226 0.115899,1.1096 0.210733,2.5755 0.210733,3.2588 z m -6.376629,0.6728 c 0.323226,-0.3624 1.906949,-4.6538 1.906949,-5.167 0,-0.316 -0.279688,-0.3794 -1.037607,-0.2329 -1.28875,0.2478 -4.457954,1.8315 -4.6145606,2.3061 -0.063732,0.1935 0.7023116,1.0249 1.7023106,1.8484 0.999999,0.8232 1.9193,1.3837 2.042908,1.2454 z m 43.491003,-0.1121 c 0.131712,0 0.239449,-1.3442 0.239449,-2.9989 l 0,-3.0088 -2.953193,-3.3909 -2.953188,-3.3911 -0.09751,3.7659 -0.09751,3.7655 2.811246,2.6241 c 1.546185,1.4437 2.918995,2.6179 3.050706,2.6342 z m -34.2449,-4.6592 c 1.480561,0.9629 2.790739,1.6899 2.9115,1.6151 0.281352,-0.174 0.24671,-7.1479 -0.0364,-7.3229 -0.229514,-0.1433 -5.851256,3.6723 -5.673975,3.8498 1.082536,0.7386 1.901806,1.2739 2.798871,1.858 z m -2.949288,-2.6914 c 2.192236,-1.3247 3.759012,-2.4936 5.986189,-4.0599 0,-1.0215 0,-2.0432 0,-3.0647 l -2.713738,-1.3588 c -1.492554,-0.7476 -2.893323,-1.3613 -3.112817,-1.3778 -0.302885,-0.015 -0.399078,1.1749 -0.399078,4.9304 0,2.7219 0.10774,4.9472 0.239444,4.9308 z m 37.194187,0.016 c 0.131711,0 0.239448,-2.4363 0.239448,-5.4216 0,-2.985 -0.107766,-5.425 -0.239448,-5.425 -0.42335,0 -5.507303,4.1473 -5.507303,4.4872 0,0.1801 1.185266,1.6836 2.633925,3.3408 1.448662,1.6575 2.741667,3.0186 2.873378,3.0186 z m -18.566967,-1.2715 c 0.950269,0 1.488551,-0.2744 2.716116,-1.3859 l 1.53097,-1.3861 -0.642592,-1.0151 -0.642596,-1.0146 c -1.753634,1.189 -3.612097,2.4755 -5.156322,3.8099 -0.07237,0.2007 0.105395,0.3251 0.389548,0.5348 0.340853,0.2513 1.153046,0.457 1.804876,0.457 z m -2.874411,-1.5954 c 0.286581,0 5.398385,-3.4575 5.398385,-3.6509 0,-0.1903 -3.875262,-3.1168 -3.983511,-3.0078 -0.300274,0.3003 -2.031463,6.1638 -1.888263,6.3949 0.08951,0.1449 0.30252,0.2638 0.473389,0.2638 z m -2.052001,-1.8606 c 0.475923,0.4965 0.906088,0.9028 0.955925,0.9028 0.04983,0 0.540403,-1.4478 1.090153,-3.2175 l 0.999543,-3.2169 c -0.465808,-0.6021 -1.107871,-1.0887 -1.662152,-1.5469 -0.114863,0 -0.667854,1.3896 -1.228829,3.0874 l -1.019961,3.0878 0.865321,0.9029 z m 9.618476,-0.055 c 0.537576,0 6.893335,-6.7079 6.600825,-6.9668 -0.349282,-0.3091 -4.926824,-1.9738 -5.416651,-1.9738 -0.175594,0 -0.808136,1.6459 -1.405645,3.6549 -0.505126,1.6984 -0.905906,2.9555 -0.986528,3.5406 0.05902,0.8451 0.668363,1.1284 1.207999,1.7451 z m -11.061461,-1.5957 c 1.018676,-2.0721 1.483021,-3.7894 2.2646,-6.1355 -0.50421,-0.4964 -1.008319,-0.9929 -1.512445,-1.4893 -1.974455,0.7495 -3.950869,1.5339 -5.876714,2.3804 1.539488,2.0489 3.097898,3.4644 5.124559,5.2444 z m 10.847529,-6.3846 c -1.538142,1.2322 -2.549741,2.3567 -4.022822,3.8456 0.645319,0.7315 1.700871,1.177 2.397455,1.4866 1.020221,-1.7004 1.393654,-3.6052 1.625367,-5.3322 z m 11.694353,2.9494 c 2.726267,-2.1161 3.387906,-3.1842 1.755949,-2.8364 -0.482892,0.1022 -1.847742,0.3571 -3.033007,0.5636 l -2.155028,0.3754 0,2.2064 c 0,2.5456 -0.277992,2.5706 3.432086,-0.309 z m -31.846516,0.578 c 1.31696,0.6758 2.528748,1.1926 2.692854,1.1454 0.298417,-0.083 0.496906,-2.281 0.26677,-2.9539 -0.08289,-0.2424 -0.550683,-0.2747 -1.46097,-0.1009 -0.736461,0.1415 -1.913695,0.3516 -2.616074,0.4688 l -1.277057,0.213 2.394477,1.2278 z m -3.026125,-1.8715 c 0.09113,0.091 0.845396,0.049 1.67613,-0.094 0.830736,-0.1431 2.064103,-0.3466 2.740815,-0.4523 l 1.230386,-0.1926 -0.215693,-1.4958 c -0.45371,-3.1464 -0.193509,-2.9888 -3.065895,-1.8548 l -2.527521,0.9975 -0.0027,1.4635 c -0.0011,0.8047 0.07259,1.5378 0.163739,1.6289 z m 6.556163,-1.0161 c 0.466611,0 5.224044,-1.9391 5.55925,-2.2657 0.197613,-0.1928 -0.337528,-0.9488 -1.479967,-2.0913 l -1.789512,-1.7893 -1.632854,0.8886 c -1.779589,0.9683 -1.830296,1.1119 -1.287133,3.6448 0.190149,0.887 0.473758,1.6129 0.630216,1.6129 z m 22.649551,-0.6464 c 2.14199,0.7597 1.7925,0.7478 4.566295,0.1513 1.263826,-0.2709 2.621123,-0.5612 3.016214,-0.6442 0.573377,-0.1206 0.718348,-0.3682 0.718348,-1.2296 0,-0.9453 -0.358937,-1.4167 -2.911657,-3.8247 -1.601407,-1.5104 -3.004743,-2.7468 -3.118523,-2.7468 -0.113777,0 -1.692489,1.4908 -3.508237,3.313 l -3.301366,3.3123 1.391489,0.5228 c 0.76532,0.2882 2.181664,0.8032 3.147437,1.146 z m -28.973144,-2.2452 c 0.774959,-0.034 3.271015,-1.1865 3.165289,-1.4608 -0.126836,-0.3285 -3.157993,-1.0563 -3.398619,-0.8156 -0.09115,0.091 -0.165748,0.6446 -0.165748,1.2292 0,0.6484 0.156068,1.0634 0.399078,1.0472 z m 37.114353,-1.5861 0.103404,-1.5128 c 0.149412,-2.1867 -0.418091,-3.8062 -1.536481,-4.3844 -1.270872,-0.6569 -2.343922,-0.6033 -3.240679,0.1635 l -0.75371,0.6443 2.713733,2.5445 z m -35.917116,-1.1048 c 1.959064,0.5326 3.195214,0.5622 3.180895,0.075 -0.03297,-1.1214 -0.897719,-4.7881 -1.200713,-5.0914 -0.251615,-0.2524 -0.612829,-0.2396 -1.300814,0.046 -1.472031,0.6095 -2.002418,1.3992 -2.06213,3.0697 l -0.05392,1.5091 1.436685,0.3915 z m 4.017976,0.4733 c 0.384348,0 2.686555,-1.3147 2.686555,-1.5339 0,-0.3519 -3.467281,-3.7256 -3.645681,-3.5472 -0.08228,0.083 -0.02908,0.7205 0.118191,1.4182 0.147282,0.6976 0.361213,1.8072 0.475417,2.4658 0.114209,0.6581 0.278682,1.1971 0.365518,1.1971 z"
       id="path5225"
       inkscape:connector-curvature="0"
       sodipodi:nodetypes="cccccccccccscccccccscccccscscccccccccccccsccscscccccccsccccccccsccccccscsscccccccccccccccccccccsccscccccsccscccccccsccccccccsccccccscccccscccccccccccccccccsccscsccsccccccsssccscsccccccccccccccccccccccscccssccccccccccccscccccscccccscccscsccccccccsccccccccccccccccsscccs" />
  </g>
</svg>
