<?xml version="1.0" encoding="UTF-8" standalone="no"?>
<!-- Generator: Adobe Illustrator 14.0.0, SVG Export Plug-In . SVG Version: 6.00 Build 43363)  -->

<svg
   xmlns:dc="http://purl.org/dc/elements/1.1/"
   xmlns:cc="http://creativecommons.org/ns#"
   xmlns:rdf="http://www.w3.org/1999/02/22-rdf-syntax-ns#"
   xmlns:svg="http://www.w3.org/2000/svg"
   xmlns="http://www.w3.org/2000/svg"
   xmlns:sodipodi="http://sodipodi.sourceforge.net/DTD/sodipodi-0.dtd"
   xmlns:inkscape="http://www.inkscape.org/namespaces/inkscape"
   version="1.1"
   id="svg2"
   x="0px"
   y="0px"
   width="64"
   height="64"
   viewBox="304 -1.725 63.999998 64.000002"
   enable-background="new 304 -1.725 190.253 88.297"
   xml:space="preserve"
   inkscape:version="0.48.4 r9939"
   sodipodi:docname="opengl-logo.svg"><metadata
     id="metadata3080"><rdf:RDF><cc:Work
         rdf:about=""><dc:format>image/svg+xml</dc:format><dc:type
           rdf:resource="http://purl.org/dc/dcmitype/StillImage" /></cc:Work></rdf:RDF></metadata><defs
     id="defs3078" /><sodipodi:namedview
     pagecolor="#ffffff"
     bordercolor="#666666"
     borderopacity="1"
     objecttolerance="10"
     gridtolerance="10"
     guidetolerance="10"
     inkscape:pageopacity="0"
     inkscape:pageshadow="2"
     inkscape:window-width="1680"
     inkscape:window-height="1013"
     id="namedview3076"
     showgrid="false"
     inkscape:zoom="13.09375"
     inkscape:cx="23.102625"
     inkscape:cy="32"
     inkscape:window-x="0"
     inkscape:window-y="18"
     inkscape:window-maximized="0"
     inkscape:current-layer="svg2" /><path
     style="fill:#ffffff"
     inkscape:connector-curvature="0"
     id="path106"
     d="m 318.55175,36.477888 c -3.00374,0 -4.4803,-1.829863 -5.05651,-3.740509 0.65096,3.102286 4.16454,6.138873 15.2493,7.493756 10.47336,1.279798 17.29806,-1.928412 19.60122,-3.422068 0,0 1.55534,-0.684481 0.62147,0.373749 0,0 -6.59542,6.096974 -19.53821,6.158986 -12.94245,0.06302 -23.20932,-6.470388 -23.14731,-13.066811 -0.0623,-6.595417 10.20486,-13.128487 23.14698,-13.06681 12.94279,0.06268 19.5382,6.160326 19.5382,6.160326 0.93354,1.057895 -0.62146,0.373414 -0.62146,0.373414 -2.30283,-1.493656 -9.0987,-4.434711 -19.60122,-3.423074 -10.32855,0.996888 -13.70034,4.505439 -14.82058,6.870283 -0.43141,0.909736 -0.62549,1.767515 -0.6751,2.632334 0.27922,-2.255568 1.68137,-4.915724 5.30288,-4.915724 4.10253,0 5.35786,3.413353 5.35786,5.785571 3.3e-4,2.373224 -1.255,5.786577 -5.35752,5.786577 z m 41.7017,-2.280708 h 5.46512 v 1.990089 h -7.76091 V 25.196024 h 2.29612 v 9.001156 z m -8.43131,-3.934926 h 4.59225 v 5.925015 h -1.53086 l -0.22928,-1.377677 c -0.58191,0.672749 -1.42393,1.668631 -3.42944,1.668631 -2.64742,0 -5.05081,-1.898244 -5.05081,-5.755738 0,-3.00005 1.66863,-5.831829 5.3726,-5.816745 3.36743,0 4.69918,2.188863 4.82187,3.703972 h -2.29613 c 0,-0.428722 -0.78035,-1.805728 -2.40339,-1.805728 -1.63779,0 -3.15257,1.132644 -3.15257,3.949339 0,2.999715 1.63779,3.779728 3.19883,3.779728 0.50514,0 2.18886,-0.198774 2.66283,-2.417471 h -2.5559 V 30.262254 z M 318.55175,26.22174 c -2.38797,0 -3.82632,1.882489 -3.82632,4.469236 0,2.587082 1.43868,4.469907 3.82632,4.469907 2.38764,0 3.82665,-1.882825 3.82665,-4.469907 -3.3e-4,-2.586412 -1.43901,-4.469236 -3.82665,-4.469236 z m 6.18144,2.936026 h 1.11522 v 0.994542 h 0.0272 c 0.28157,-0.402241 0.81956,-1.195327 2.09601,-1.195327 1.86841,0 3.19983,1.582819 3.19983,3.55816 0,1.680363 -0.9684,3.872913 -3.36106,3.872913 -0.94058,0 -1.55869,-0.4428 -1.86741,-0.940239 h -0.0272 v 3.521288 h -1.18259 v -9.811337 z m 2.98832,6.209936 c 1.29019,0 2.16506,-1.118231 2.16506,-2.663843 0,-0.900351 -0.36402,-2.685632 -2.19221,-2.685632 -1.70584,0 -1.89456,1.84126 -1.89456,2.983626 3.4e-4,1.868411 1.16885,2.365849 1.92171,2.365849 z m 10.6061,-1.385051 c -0.0396,0.336207 -0.36235,1.331084 -1.24963,1.921708 -0.32246,0.215534 -0.77934,0.48336 -1.90797,0.48336 -1.97567,0 -3.14485,-1.491645 -3.14485,-3.520282 0,-2.177467 1.04884,-3.910792 3.37279,-3.910792 2.02998,0 3.02385,1.612988 3.02385,4.099175 h -5.1336 c 0,1.464829 0.68548,2.311547 2.04305,2.311547 1.11555,0 1.77388,-0.860461 1.81444,-1.385051 h 1.18192 z m -1.25332,-1.868076 c -0.0667,-1.088063 -0.52358,-2.096348 -1.96126,-2.096348 -1.08907,0 -1.94919,1.008285 -1.94919,2.096348 h 3.91045 z m 7.8836,4.072694 h -1.18259 v -4.327782 c 0,-1.223149 -0.34962,-1.84126 -1.50506,-1.84126 -0.67241,0 -1.85399,0.430734 -1.85399,2.339033 v 3.830344 h -1.18293 v -7.029838 h 1.11555 v 0.994542 h 0.0268 c 0.25475,-0.375425 0.91342,-1.195327 2.12316,-1.195327 1.08806,0 2.45937,0.443136 2.45937,2.445962 v 4.784326 z" /></svg>