<?xml version="1.0" encoding="UTF-8" standalone="no"?>
<!-- Created with Inkscape (http://www.inkscape.org/) -->

<svg
   xmlns:dc="http://purl.org/dc/elements/1.1/"
   xmlns:cc="http://creativecommons.org/ns#"
   xmlns:rdf="http://www.w3.org/1999/02/22-rdf-syntax-ns#"
   xmlns:svg="http://www.w3.org/2000/svg"
   xmlns="http://www.w3.org/2000/svg"
   xmlns:sodipodi="http://sodipodi.sourceforge.net/DTD/sodipodi-0.dtd"
   xmlns:inkscape="http://www.inkscape.org/namespaces/inkscape"
   width="64"
   height="45"
   id="svg2"
   version="1.1"
   inkscape:version="0.48.3.1 r9886"
   sodipodi:docname="radiovatikana_logo.svg">
  <defs
     id="defs4">
    <linearGradient
       id="SVGID_2_"
       gradientUnits="userSpaceOnUse"
       x1="144.76511"
       y1="227.18359"
       x2="144.76511"
       y2="70.472504">
      <stop
         offset="0"
         style="stop-color:#21697C"
         id="stop4133" />
      <stop
         offset="1"
         style="stop-color:#123D49"
         id="stop4135" />
    </linearGradient>
    <linearGradient
       id="SVGID_2_-6"
       gradientUnits="userSpaceOnUse"
       x1="144.76511"
       y1="227.18359"
       x2="144.76511"
       y2="70.472504">
      <stop
         offset="0"
         style="stop-color:#21697C"
         id="stop4133-5" />
      <stop
         offset="1"
         style="stop-color:#123D49"
         id="stop4135-9" />
    </linearGradient>
    <linearGradient
       id="SVGID_1_"
       gradientUnits="userSpaceOnUse"
       x1="144.76421"
       y1="1.9375"
       x2="144.7641"
       y2="282.10941">
      <stop
         offset="0"
         style="stop-color:#46C8F5"
         id="stop4124" />
      <stop
         offset="1"
         style="stop-color:#0D7B99"
         id="stop4126" />
    </linearGradient>
    <linearGradient
       x1="0"
       y1="0"
       x2="1"
       y2="0"
       id="linearGradient312"
       gradientUnits="userSpaceOnUse"
       gradientTransform="matrix(0,-82.30423,-82.30423,0,55.296387,104.37598)"
       spreadMethod="pad">
      <stop
         id="stop314"
         style="stop-color:#f9f9f9;stop-opacity:1"
         offset="0" />
      <stop
         id="stop316"
         style="stop-color:#d1d1d3;stop-opacity:1"
         offset="1" />
    </linearGradient>
    <linearGradient
       x1="0"
       y1="0"
       x2="1"
       y2="0"
       id="linearGradient280"
       gradientUnits="userSpaceOnUse"
       gradientTransform="matrix(0,-36.206055,-36.206055,0,106,103.95264)"
       spreadMethod="pad">
      <stop
         id="stop282"
         style="stop-color:#f9f9f9;stop-opacity:1"
         offset="0" />
      <stop
         id="stop284"
         style="stop-color:#d1d1d3;stop-opacity:1"
         offset="1" />
    </linearGradient>
  </defs>
  <sodipodi:namedview
     id="base"
     pagecolor="#ffffff"
     bordercolor="#666666"
     borderopacity="1.0"
     inkscape:pageopacity="0.0"
     inkscape:pageshadow="2"
     inkscape:zoom="2.2461538"
     inkscape:cx="-26.295661"
     inkscape:cy="80.663266"
     inkscape:document-units="px"
     inkscape:current-layer="layer1"
     showgrid="false"
     inkscape:window-width="1280"
     inkscape:window-height="781"
     inkscape:window-x="0"
     inkscape:window-y="-4"
     inkscape:window-maximized="1" />
  <metadata
     id="metadata7">
    <rdf:RDF>
      <cc:Work
         rdf:about="">
        <dc:format>image/svg+xml</dc:format>
        <dc:type
           rdf:resource="http://purl.org/dc/dcmitype/StillImage" />
        <dc:title />
      </cc:Work>
    </rdf:RDF>
  </metadata>
  <g
     inkscape:label="Layer 1"
     inkscape:groupmode="layer"
     id="layer1"
     transform="translate(0,-1007.3622)">
    <path
       style="fill:#ffffff;fill-opacity:1"
       d="m 26.330548,1042.6659 c -2.286344,-1.3665 -3.981345,-3.1603 -7.02953,-7.4395 -2.219436,-3.1158 -3.316023,-4.2665 -4.96138,-5.2063 -1.324164,-0.7561 -1.889671,-1.2782 -1.515749,-1.3994 0.328036,-0.1055 1.276531,-0.4022 2.10775,-0.6575 5.284653,-1.6235 6.636384,-8.012 2.259881,-10.6804 l -1.312111,-0.8 1.350643,0 c 1.692215,0 3.121734,1.3534 3.79403,3.5974 0.618134,2.0631 0.259185,4.0698 -1.081302,6.0452 l -1.038039,1.5296 4.547445,7.5861 c 2.501111,4.1723 4.494668,7.7431 4.430152,7.9349 -0.06446,0.1918 -0.762828,-0.036 -1.55179,-0.5086 z m -23.3945065,0.4175 0.063807,-13.2249 c 0.066004,-0.2419 0.3799681,0.1501 0.4816544,0.1509 1.0180232,0 4.7871572,2.4727 5.7811918,3.7809 0.559356,0.736 1.6853893,2.808 2.5023143,4.6041 0.816925,1.7962 1.782699,3.5945 2.14615,3.9961 0.313701,0.3467 0.542678,0.7308 0.455615,0.7322 z m 29.7142135,-4.8177 c 2.501077,-4.822 2.523665,-4.896 2.362714,-7.7445 -0.276199,-4.8879 1.329159,-8.9309 4.913799,-12.3754 1.453096,-1.3962 2.001521,-1.6634 3.392591,-1.653 1.427689,0.011 1.544883,0.075 0.839595,0.4582 -1.736385,0.9442 -3.893566,2.5251 -3.893566,2.8534 0,0.1889 0.541336,0.6235 1.202948,0.9656 1.118795,0.5786 1.220161,0.5679 1.448892,-0.1529 0.135198,-0.4262 0.793908,-1.5313 1.463632,-2.4558 l 1.217704,-1.681 2.779766,0 2.779783,0 1.396593,2.3566 c 0.768139,1.2961 1.442925,2.4238 1.49951,2.5059 0.05656,0.082 0.771616,-0.2641 1.588936,-0.7692 1.027521,-0.6351 1.617362,-0.7871 1.911698,-0.4927 0.294335,0.2943 -0.09695,0.7714 -1.26809,1.5465 -1.354055,0.896 -1.639817,1.2907 -1.424853,1.9681 0.147893,0.4659 0.38228,1.776 0.520858,2.9114 l 0.251946,2.0638 2.766478,0.1204 c 2.406751,0.1056 2.766477,0.2229 2.766477,0.9035 0,0.6804 -0.359726,0.7979 -2.766477,0.9033 l -2.766478,0.1204 -0.244016,1.6395 c -0.134208,0.9016 -0.372734,2.2848 -0.530041,3.0738 -0.271731,1.3627 -0.200901,1.4826 1.41534,2.3943 1.242798,0.7012 1.579242,1.082 1.248189,1.4132 -0.331053,0.331 -0.855423,0.2234 -1.945365,-0.3997 l -1.492155,-0.8528 -1.685077,2.5136 -1.685059,2.5136 -10.295744,0.1089 -10.29576,0.1088 2.525232,-4.8686 z m 11.416517,1.9955 -1.453772,-2.4494 -1.158266,0.6842 c -0.951331,0.562 -1.069514,0.7924 -0.661497,1.2898 0.548194,0.6682 3.969177,2.9248 4.434143,2.9248 0.161247,0 -0.361028,-1.1022 -1.160608,-2.4494 z m 3.575884,-0.8295 0,-2.459 -1.410278,0 c -0.775657,0 -1.522493,0.1816 -1.659653,0.4035 -0.265977,0.4303 2.227302,4.5146 2.755992,4.5146 0.172674,0 0.313939,-1.1065 0.313939,-2.4591 z m 3.247715,0.3985 c 1.512584,-2.2192 1.416512,-2.7007 -0.583691,-2.9247 l -1.229542,-0.1369 -0.122008,2.5615 c -0.0671,1.4089 0.02506,2.5612 0.204924,2.5609 0.179813,0 0.95847,-0.9275 1.730334,-2.06 z m -10.14663,-2.3452 c 1.04958,-0.6173 1.184036,-0.8887 0.964422,-1.9469 -0.140309,-0.6762 -0.363649,-2.1056 -0.496225,-3.1763 l -0.241031,-1.9467 -2.391748,0 -2.391749,0 0.231056,1.3319 c 0.241015,1.3894 2.506815,6.4552 2.887216,6.4552 0.120194,0 0.767281,-0.3228 1.438059,-0.7172 z m 5.771843,-1.9289 c 1.077329,-0.228 1.127072,-0.3467 1.127072,-2.6897 l 0,-2.4513 -2.459084,0 c -2.364462,0 -2.459083,0.039 -2.459083,1.048 0,0.5764 0.205847,1.8655 0.457463,2.8649 0.488377,1.9394 0.299694,1.87 3.333632,1.2281 z m 6.806931,-0.9401 c 0.210892,-0.8454 0.490042,-2.1363 0.620327,-2.869 l 0.236909,-1.3319 -2.653768,0 -2.653769,0 0,2.4513 c 0,2.6345 -0.01649,2.6208 3.775301,3.2391 0.160424,0.026 0.464124,-0.6442 0.675,-1.4895 z m -12.091797,-7.9919 c 0.143111,-1.1835 0.367111,-2.6182 0.497675,-3.1884 0.201709,-0.8809 0.02226,-1.1392 -1.194983,-1.7196 -1.399166,-0.6673 -1.446617,-0.6613 -2.047917,0.2564 -0.899165,1.3723 -1.739419,3.5121 -2.067917,5.2664 l -0.287807,1.5368 2.420322,0 2.420321,0 z m 6.411938,-0.2609 0,-2.4126 -1.893759,-0.2839 c -1.053735,-0.1579 -2.064076,-0.1136 -2.277754,0.1 -0.211188,0.2113 -0.491394,1.4246 -0.622668,2.6966 l -0.238674,2.3126 2.516427,0 2.516428,0 z m 6.410224,1.6953 c -0.111456,-0.3944 -0.324343,-1.5 -0.473143,-2.457 -0.148717,-0.9568 -0.439442,-1.844 -0.645916,-1.9716 -0.206457,-0.1276 -1.204778,-0.1076 -2.218498,0.044 l -1.843109,0.2764 0,2.4126 0,2.4125 2.691624,0 c 2.367414,0 2.667239,-0.085 2.489042,-0.7172 z m -6.410224,-8.2994 c 0,-1.5779 -0.08738,-2.8689 -0.194026,-2.8689 -0.332817,0 -3.084753,4.2659 -3.084753,4.7818 0,0.458 0.887525,0.77 2.561554,0.9002 0.620081,0.049 0.717225,-0.3327 0.717225,-2.8131 z m 3.227568,2.6129 c 0.70443,-0.141 1.280768,-0.4737 1.280768,-0.7395 0,-0.7279 -2.379399,-4.3325 -2.859912,-4.3325 -0.2423,0 -0.418866,1.123 -0.418866,2.6641 0,1.4652 0.161413,2.6639 0.358604,2.6639 0.197241,0 0.934975,-0.1152 1.639406,-0.256 z m -19.339012,11.0375 c -0.214057,-0.3463 -6.198226,-14.1261 -7.12936,-16.4168 -0.158776,-0.3904 0.809092,-0.5124 4.067575,-0.5124 4.052737,0 4.327007,0.054 5.257135,1.0446 1.398737,1.4889 1.592367,5.5347 0.461799,9.6492 -1.071393,3.8994 -2.307777,6.8007 -2.657149,6.2354 z m -28.642881,-11.1906 0.1239863,-5.7386 1.3522587,0 c 2.9775179,0 5.79138,3.2701 5.4208397,6.2998 -0.241626,1.9756 -2.1552019,4.058 -4.3269904,4.7086 -2.817226,0.8441 -2.7072376,1.0695 -2.5701767,-5.2698 z"
       id="path6008"
       inkscape:connector-curvature="0"
       sodipodi:nodetypes="cscccscscccsccccccccccccscccscccccccccccccccsccccccccccccccscccssscsssscccscccccsccccsccscssccsccccscscscscccccccccscccccccccccsccssscscsssscccscccccssccc" />
  </g>
</svg>
