<?xml version="1.0" encoding="UTF-8" standalone="no"?>
<!-- Created with Inkscape (http://www.inkscape.org/) -->

<svg
   xmlns:dc="http://purl.org/dc/elements/1.1/"
   xmlns:cc="http://creativecommons.org/ns#"
   xmlns:rdf="http://www.w3.org/1999/02/22-rdf-syntax-ns#"
   xmlns:svg="http://www.w3.org/2000/svg"
   xmlns="http://www.w3.org/2000/svg"
   xmlns:sodipodi="http://sodipodi.sourceforge.net/DTD/sodipodi-0.dtd"
   xmlns:inkscape="http://www.inkscape.org/namespaces/inkscape"
   width="64"
   height="45"
   id="svg3868"
   version="1.1"
   inkscape:version="0.48.3.1 r9886"
   sodipodi:docname="Novo documento 7">
  <defs
     id="defs3870" />
  <sodipodi:namedview
     id="base"
     pagecolor="#ffffff"
     bordercolor="#666666"
     borderopacity="1.0"
     inkscape:pageopacity="0.0"
     inkscape:pageshadow="2"
     inkscape:zoom="0.35"
     inkscape:cx="350"
     inkscape:cy="520"
     inkscape:document-units="px"
     inkscape:current-layer="layer1"
     showgrid="false"
     inkscape:window-width="602"
     inkscape:window-height="424"
     inkscape:window-x="0"
     inkscape:window-y="19"
     inkscape:window-maximized="0" />
  <metadata
     id="metadata3873">
    <rdf:RDF>
      <cc:Work
         rdf:about="">
        <dc:format>image/svg+xml</dc:format>
        <dc:type
           rdf:resource="http://purl.org/dc/dcmitype/StillImage" />
        <dc:title></dc:title>
      </cc:Work>
    </rdf:RDF>
  </metadata>
  <g
     inkscape:label="Camada 1"
     inkscape:groupmode="layer"
     id="layer1"
     transform="translate(0,-1007.3622)">
    <g
       id="g3770"
       transform="matrix(0.05756761,0,0,0.05756761,17.77325,1013.7407)"
       style="fill:#ffffff">
      <g
         id="text2985"
         style="font-size:524.57592773px;font-style:normal;font-variant:normal;font-weight:normal;font-stretch:normal;text-align:start;line-height:125%;letter-spacing:0px;word-spacing:0px;writing-mode:lr-tb;text-anchor:start;fill:#ffffff;fill-opacity:1;stroke:none;font-family:Arial Black;-inkscape-font-specification:'Arial Black,'">
        <path
           sodipodi:nodetypes="cccscccccsccccscccccccccccccsssc"
           inkscape:connector-curvature="0"
           id="path2990"
           d="M 83.964806,475.97653 194.3614,466.68595 c 2.39051,24.08685 7.25718,42.43862 14.60001,55.05533 11.95308,20.41645 29.0291,30.62462 51.22812,30.62452 16.56355,10e-5 29.28519,-5.16133 38.16495,-15.4843 9.05006,-10.55215 13.5752,-22.71021 13.57545,-36.47416 -2.5e-4,-13.07549 -4.26925,-30.77473 -12.80703,-41.09777 -8.53824,-10.32269 -28.34643,-28.07206 -59.42462,-37.24814 -50.88672,-15.36941 -87.17326,-21.78574 -108.85975,-47.24907 -21.85737,-25.46279 -32.786024,-57.92247 -32.785992,-97.37912 -3.2e-5,-25.92149 5.549672,-50.35226 16.649142,-73.2924 11.27012,-23.16867 28.09,-41.29103 50.45969,-54.36715 22.54025,-13.30453 53.36247,-19.95705 92.46676,-19.95756 47.98343,5.1e-4 84.52611,12.04385 109.62817,36.13006 16.42308,15.50391 28.51954,37.01384 36.28941,64.52983 4.18659,14.82626 30.33131,29.9569 32.00562,48.27065 L 302.96501,288.7884 c -2.90316,-22.70995 -9.05053,-39.22652 -18.44212,-49.54979 -9.22127,-10.32246 -22.02829,-15.4839 -38.42109,-15.48432 -13.49024,4.2e-4 -23.65047,3.90018 -30.48073,11.69926 -6.83056,7.57051 -10.24576,16.86109 -10.24562,27.87177 -1.4e-4,8.02927 2.8174,23.25528 8.45263,29.67804 5.46418,6.65286 18.44196,20.84659 38.93337,26.58117 50.7156,14.68174 87.00215,21.59255 108.85975,36.73245 22.02778,14.9111 37.99386,25.49226 47.8983,47.74353 10.0745,22.25174 15.11193,47.14131 15.11229,74.66879 -3.6e-4,32.34514 -6.66001,62.16675 -19.97897,89.46491 -13.31963,27.29832 -31.9325,48.05874 -55.83864,62.28135 -23.90672,13.99323 -54.0459,20.98984 -90.41763,20.98984 -63.86452,0 -108.09133,-16.51671 -132.68083,-49.54979 C 108.39248,578.64388 96.366199,550.93186 89.63687,518.77949 86.814232,505.29307 59.669731,496.45353 58.710992,481.40463"
           style="fill:#ffffff" />
      </g>
      <path
         style="font-size:medium;font-style:normal;font-variant:normal;font-weight:normal;font-stretch:normal;text-indent:0;text-align:start;text-decoration:none;line-height:normal;letter-spacing:normal;word-spacing:normal;text-transform:none;direction:ltr;block-progression:tb;writing-mode:lr-tb;text-anchor:start;baseline-shift:baseline;color:#000000;fill:#ffffff;fill-opacity:1;fill-rule:nonzero;stroke:none;stroke-width:24.31923103;marker:none;visibility:visible;display:inline;overflow:visible;enable-background:accumulate;font-family:Sans;-inkscape-font-specification:Sans"
         d="m 247.3125,34.5 c -13.52006,0 -25.93028,3.236203 -35.8125,9.34375 -9.88222,6.107547 -17.9375,16.113956 -17.9375,28.53125 0,12.417293 8.05528,22.392453 17.9375,28.5 9.88222,6.10755 22.29244,9.375 35.8125,9.375 13.52006,0 25.93028,-3.26745 35.8125,-9.375 9.88222,-6.107547 17.96875,-16.082707 17.96875,-28.5 0,-12.417294 -8.08653,-22.423703 -17.96875,-28.53125 C 273.24278,37.736203 260.83256,34.5 247.3125,34.5 z m 0,24.3125 c 9.45862,0 17.85485,2.519557 23.03125,5.71875 5.1764,3.199193 6.4375,6.059436 6.4375,7.84375 0,1.784314 -1.2611,4.613307 -6.4375,7.8125 -5.1764,3.199193 -13.57263,5.71875 -23.03125,5.71875 -9.45863,0 -17.85485,-2.519556 -23.03125,-5.71875 -5.1764,-3.199194 -6.40625,-6.028186 -6.40625,-7.8125 0,-1.784314 1.22985,-4.644557 6.40625,-7.84375 5.1764,-3.199193 13.57262,-5.71875 23.03125,-5.71875 z"
         id="path2992"
         inkscape:connector-curvature="0" />
      <path
         style="font-size:medium;font-style:normal;font-variant:normal;font-weight:normal;font-stretch:normal;text-indent:0;text-align:start;text-decoration:none;line-height:normal;letter-spacing:normal;word-spacing:normal;text-transform:none;direction:ltr;block-progression:tb;writing-mode:lr-tb;text-anchor:start;baseline-shift:baseline;color:#000000;fill:#ffffff;fill-opacity:1;fill-rule:nonzero;stroke:none;stroke-width:24.31923103;marker:none;visibility:visible;display:inline;overflow:visible;enable-background:accumulate;font-family:Sans;-inkscape-font-specification:Sans"
         d="m 185.84375,-79 0,60.59375 24.3125,0 0,-60.59375 -24.3125,0 z"
         id="path3762"
         inkscape:connector-curvature="0" />
      <path
         style="font-size:medium;font-style:normal;font-variant:normal;font-weight:normal;font-stretch:normal;text-indent:0;text-align:start;text-decoration:none;line-height:normal;letter-spacing:normal;word-spacing:normal;text-transform:none;direction:ltr;block-progression:tb;writing-mode:lr-tb;text-anchor:start;baseline-shift:baseline;color:#000000;fill:#ffffff;fill-opacity:1;fill-rule:nonzero;stroke:none;stroke-width:24.31923103;marker:none;visibility:visible;display:inline;overflow:visible;enable-background:accumulate;font-family:Sans;-inkscape-font-specification:Sans"
         d="m 271.46875,-91.375 -24.25,64.65625 22.78125,8.5625 24.21875,-64.65625 -22.75,-8.5625 z"
         id="path3764"
         inkscape:connector-curvature="0" />
      <path
         style="font-size:medium;font-style:normal;font-variant:normal;font-weight:normal;font-stretch:normal;text-indent:0;text-align:start;text-decoration:none;line-height:normal;letter-spacing:normal;word-spacing:normal;text-transform:none;direction:ltr;block-progression:tb;writing-mode:lr-tb;text-anchor:start;baseline-shift:baseline;color:#000000;fill:#ffffff;fill-opacity:1;fill-rule:nonzero;stroke:none;stroke-width:24.31923103;marker:none;visibility:visible;display:inline;overflow:visible;enable-background:accumulate;font-family:Sans;-inkscape-font-specification:Sans"
         d="m 362.65625,-58.8125 -32.34375,36.375 18.1875,16.15625 32.3125,-36.375 -18.15625,-16.15625 z"
         id="path3766"
         inkscape:connector-curvature="0" />
      <path
         style="font-size:medium;font-style:normal;font-variant:normal;font-weight:normal;font-stretch:normal;text-indent:0;text-align:start;text-decoration:none;line-height:normal;letter-spacing:normal;word-spacing:normal;text-transform:none;direction:ltr;block-progression:tb;writing-mode:lr-tb;text-anchor:start;baseline-shift:baseline;color:#000000;fill:#ffffff;fill-opacity:1;fill-rule:nonzero;stroke:none;stroke-width:24.31923103;marker:none;visibility:visible;display:inline;overflow:visible;enable-background:accumulate;font-family:Sans;-inkscape-font-specification:Sans"
         d="m 149.03125,-54.21875 -23.3125,7 12.125,40.40625 23.3125,-7 -12.125,-40.40625 z"
         id="path3768"
         inkscape:connector-curvature="0" />
    </g>
  </g>
</svg>
