<?xml version="1.0" encoding="UTF-8" standalone="no"?>
<!-- Created with Inkscape (http://www.inkscape.org/) -->

<svg
   xmlns:dc="http://purl.org/dc/elements/1.1/"
   xmlns:cc="http://creativecommons.org/ns#"
   xmlns:rdf="http://www.w3.org/1999/02/22-rdf-syntax-ns#"
   xmlns:svg="http://www.w3.org/2000/svg"
   xmlns="http://www.w3.org/2000/svg"
   xmlns:sodipodi="http://sodipodi.sourceforge.net/DTD/sodipodi-0.dtd"
   xmlns:inkscape="http://www.inkscape.org/namespaces/inkscape"
   width="64"
   height="45"
   id="svg2"
   version="1.1"
   inkscape:version="0.48.3.1 r9886"
   sodipodi:docname="verdastacio_logo.svg">
  <defs
     id="defs4">
    <linearGradient
       id="SVGID_2_"
       gradientUnits="userSpaceOnUse"
       x1="144.76511"
       y1="227.18359"
       x2="144.76511"
       y2="70.472504">
      <stop
         offset="0"
         style="stop-color:#21697C"
         id="stop4133" />
      <stop
         offset="1"
         style="stop-color:#123D49"
         id="stop4135" />
    </linearGradient>
    <linearGradient
       id="SVGID_2_-6"
       gradientUnits="userSpaceOnUse"
       x1="144.76511"
       y1="227.18359"
       x2="144.76511"
       y2="70.472504">
      <stop
         offset="0"
         style="stop-color:#21697C"
         id="stop4133-5" />
      <stop
         offset="1"
         style="stop-color:#123D49"
         id="stop4135-9" />
    </linearGradient>
    <linearGradient
       id="SVGID_1_"
       gradientUnits="userSpaceOnUse"
       x1="144.76421"
       y1="1.9375"
       x2="144.7641"
       y2="282.10941">
      <stop
         offset="0"
         style="stop-color:#46C8F5"
         id="stop4124" />
      <stop
         offset="1"
         style="stop-color:#0D7B99"
         id="stop4126" />
    </linearGradient>
    <linearGradient
       x1="0"
       y1="0"
       x2="1"
       y2="0"
       id="linearGradient312"
       gradientUnits="userSpaceOnUse"
       gradientTransform="matrix(0,-82.30423,-82.30423,0,55.296387,104.37598)"
       spreadMethod="pad">
      <stop
         id="stop314"
         style="stop-color:#f9f9f9;stop-opacity:1"
         offset="0" />
      <stop
         id="stop316"
         style="stop-color:#d1d1d3;stop-opacity:1"
         offset="1" />
    </linearGradient>
    <linearGradient
       x1="0"
       y1="0"
       x2="1"
       y2="0"
       id="linearGradient280"
       gradientUnits="userSpaceOnUse"
       gradientTransform="matrix(0,-36.206055,-36.206055,0,106,103.95264)"
       spreadMethod="pad">
      <stop
         id="stop282"
         style="stop-color:#f9f9f9;stop-opacity:1"
         offset="0" />
      <stop
         id="stop284"
         style="stop-color:#d1d1d3;stop-opacity:1"
         offset="1" />
    </linearGradient>
  </defs>
  <sodipodi:namedview
     id="base"
     pagecolor="#ffffff"
     bordercolor="#666666"
     borderopacity="1.0"
     inkscape:pageopacity="0.0"
     inkscape:pageshadow="2"
     inkscape:zoom="2.3910522"
     inkscape:cx="-15.095832"
     inkscape:cy="48.095978"
     inkscape:document-units="px"
     inkscape:current-layer="layer1"
     showgrid="false"
     inkscape:window-width="1280"
     inkscape:window-height="781"
     inkscape:window-x="0"
     inkscape:window-y="-4"
     inkscape:window-maximized="1" />
  <metadata
     id="metadata7">
    <rdf:RDF>
      <cc:Work
         rdf:about="">
        <dc:format>image/svg+xml</dc:format>
        <dc:type
           rdf:resource="http://purl.org/dc/dcmitype/StillImage" />
        <dc:title />
      </cc:Work>
    </rdf:RDF>
  </metadata>
  <g
     inkscape:label="Layer 1"
     inkscape:groupmode="layer"
     id="layer1"
     transform="translate(0,-1007.3622)">
    <g
       id="g5495"
       style="fill:#ffffff"
       transform="matrix(0.2904322,0,0,0.2904322,26.939303,792.51953)">
      <path
         sodipodi:nodetypes="ccsssscccscsssssscsssscsscscsssscccsssssscsssscccccccssccsssscsccc"
         inkscape:connector-curvature="0"
         id="path5295"
         d="m -22.553751,814.52675 c -0.31676,-0.2859 -1.438623,-0.56584 -2.241913,-0.82082 -1.787632,-0.56736 -3.250245,-2.14 -3.250245,-3.49462 0,-1.8393 2.394553,-2.46305 9.456083,-2.46305 10.5184628,0 12.4810828,-2.59541 4.298218,-5.68412 -2.836826,-1.07078 -5.157862,-2.35784 -5.157862,-2.8602 0,-0.50222 6.382853,-3.49843 14.1841218,-6.6583 7.8012719,-3.15971 16.6985852,-7.64739 19.7718152,-9.97258 5.816439,-4.40085 7.288973,-10.26018 3.524539,-14.02456 -3.296992,-3.29708 -20.3844292,-2.5196 -27.8078822,1.26507 -3.5904438,1.83049 -7.5117418,2.95064 -8.7140078,2.48934 -1.494181,-0.57337 -2.535087,1.70846 -3.289255,7.21069 -1.108525,8.08752 -6.898814,19.63821 -9.844571,19.63821 -2.417492,0 -1.889363,-7.72717 1.36214,-19.92961 2.754695,-10.33809 2.759853,-11.71489 0.08132,-21.71148 -2.670603,-9.96727 -2.751787,-13.67841 -0.244358,-11.17099 0.582427,0.58241 1.584979,3.61263 2.227923,6.73387 0.937082,4.54916 2.006015,5.68067 5.388387,5.70382 2.320676,0.0155 6.347024,-1.86967 8.947449,-4.19008 2.600422,-2.32042 4.7280418,-3.42044 4.7280418,-2.44444 0,0.97596 -1.4683758,3.10333 -3.2630388,4.72747 -1.794675,1.62418 -3.572403,5.60295 -3.950509,8.84181 -0.661202,5.66368 -0.552922,5.79022 2.833216,3.31359 16.7729939,-12.26818 38.766093,-8.75738 38.766093,6.18823 0,7.58481 -7.315933,14.06276 -21.0399471,18.62987 -11.4956551,3.82543 -11.5304031,3.85638 -8.8825451,7.89754 3.515189,5.36471 0.849509,10.4798 -6.2772918,12.04515 -1.546309,0.33963 -2.879316,0.40933 -3.510327,0.71413 m -3.827184,-49.04846 c 1.407633,-3.66828 -3.214657,-6.544 -5.10087,-3.17352 -1.539915,2.75162 -0.268829,5.92592 2.372875,5.92592 0.919475,0 2.14708,-1.23855 2.727995,-2.7524 z m -38.068988,36.96005 c -6.980944,-6.12944 -7.69077,-10.53184 -2.306167,-14.30344 l 3.771189,-2.64133 -5.541145,-7.34207 c -3.047623,-4.03806 -7.21437,-10.61883 -9.259445,-14.62377 -3.568726,-6.98894 -3.602392,-7.52493 -0.83678,-13.32449 2.708586,-5.67997 3.380329,-6.04261 11.193235,-6.04261 6.712615,0 9.688478,1.05818 15.467866,5.50002 7.234005,5.55986 13.262723,15.27056 11.843811,19.07741 -0.424681,1.13938 -1.585234,0.031 -2.579018,-2.45976 -4.336471,-10.87513 -19.267574,-20.53731 -27.633423,-17.8821 -8.093447,2.56873 -5.521906,10.66494 9.29208,29.25498 11.344119,14.23573 11.9158,16.99224 3.18426,15.35429 -8.157525,-1.53033 -7.301317,2.18228 1.621716,7.03206 3.47965,1.89123 6.328734,4.40566 6.331294,5.58767 0.0085,4.02041 -8.451294,2.16734 -14.549473,-3.18686 z m 47.6504068,-19.11316 c -5.0725858,-2.44638 -4.8988018,-5.74361 0.488829,-9.27383 3.382008,-2.21598 5.209852,-2.44327 8.16661599,-1.0156 3.75029811,1.81076 3.73931511,1.8412 -0.708139,1.95572 -2.48462999,0.0636 -5.57934899,1.4074 -6.87715099,2.9852 -2.139138,2.60092 -1.843748,2.76683 3.161406,1.77566 5.9169129,-1.17168 9.5080231,1.54426 5.44477899,4.11787 -2.98910299,1.89329 -4.83639199,1.78928 -9.67633999,-0.54502 z M -50.826474,770.96908 c -1.654815,-1.25611 -3.008753,-3.16572 -3.008753,-4.24356 0,-2.88281 4.625897,-2.38704 5.779609,0.61949 0.544294,1.41841 1.787578,2.57893 2.762859,2.57893 3.179343,0 1.866427,-4.89776 -2.047875,-7.63937 l -3.82112,-2.67639 3.78149,0 c 4.374022,0 9.878907,7.31334 8.401988,11.16215 -1.22054,3.18054 -7.775293,3.29056 -11.848198,0.19895 z"
         style="fill:#ffffff" />
      <g
         id="g7305"
         transform="translate(15.65521,-70.87437)"
         style="fill:#ffffff">
        <path
           transform="matrix(1.0511267,0,0,1.0511267,72.520821,1030.472)"
           d="m -32.166668,-141.11758 c 0,2.3119 -1.874169,4.18607 -4.186073,4.18607 -2.311904,0 -4.186073,-1.87417 -4.186073,-4.18607 0,-2.31191 1.874169,-4.18608 4.186073,-4.18608 2.311904,0 4.186073,1.87417 4.186073,4.18608 z"
           sodipodi:ry="4.1860728"
           sodipodi:rx="4.1860728"
           sodipodi:cy="-141.11758"
           sodipodi:cx="-36.352741"
           id="path5333"
           style="opacity:0.98999999000000005;fill:#ffffff;fill-opacity:1;stroke:none"
           sodipodi:type="arc" />
        <path
           sodipodi:type="arc"
           style="opacity:0.98999999000000005;fill:#ffffff;fill-opacity:1;stroke:none"
           id="path5335"
           sodipodi:cx="-36.352741"
           sodipodi:cy="-141.11758"
           sodipodi:rx="4.1860728"
           sodipodi:ry="4.1860728"
           d="m -32.166668,-141.11758 c 0,2.3119 -1.874169,4.18607 -4.186073,4.18607 -2.311904,0 -4.186073,-1.87417 -4.186073,-4.18607 0,-2.31191 1.874169,-4.18608 4.186073,-4.18608 2.311904,0 4.186073,1.87417 4.186073,4.18608 z"
           transform="matrix(1.0511267,0,0,1.0511267,72.520821,1041.5679)" />
        <path
           transform="matrix(1.0511267,0,0,1.0511267,72.520821,1051.8986)"
           d="m -32.166668,-141.11758 c 0,2.3119 -1.874169,4.18607 -4.186073,4.18607 -2.311904,0 -4.186073,-1.87417 -4.186073,-4.18607 0,-2.31191 1.874169,-4.18608 4.186073,-4.18608 2.311904,0 4.186073,1.87417 4.186073,4.18608 z"
           sodipodi:ry="4.1860728"
           sodipodi:rx="4.1860728"
           sodipodi:cy="-141.11758"
           sodipodi:cx="-36.352741"
           id="path5337"
           style="opacity:0.98999999000000005;fill:#ffffff;fill-opacity:1;stroke:none"
           sodipodi:type="arc" />
        <path
           sodipodi:type="arc"
           style="opacity:0.98999999000000005;fill:#ffffff;fill-opacity:1;stroke:none"
           id="path5339"
           sodipodi:cx="-36.352741"
           sodipodi:cy="-141.11758"
           sodipodi:rx="4.1860728"
           sodipodi:ry="4.1860728"
           d="m -32.166668,-141.11758 c 0,2.3119 -1.874169,4.18607 -4.186073,4.18607 -2.311904,0 -4.186073,-1.87417 -4.186073,-4.18607 0,-2.31191 1.874169,-4.18608 4.186073,-4.18608 2.311904,0 4.186073,1.87417 4.186073,4.18608 z"
           transform="matrix(1.0511267,0,0,1.0511267,72.520821,1063.3771)" />
        <path
           transform="matrix(1.0511267,0,0,1.0511267,72.520821,1073.3251)"
           d="m -32.166668,-141.11758 c 0,2.3119 -1.874169,4.18607 -4.186073,4.18607 -2.311904,0 -4.186073,-1.87417 -4.186073,-4.18607 0,-2.31191 1.874169,-4.18608 4.186073,-4.18608 2.311904,0 4.186073,1.87417 4.186073,4.18608 z"
           sodipodi:ry="4.1860728"
           sodipodi:rx="4.1860728"
           sodipodi:cy="-141.11758"
           sodipodi:cx="-36.352741"
           id="path5341"
           style="opacity:0.98999999000000005;fill:#ffffff;fill-opacity:1;stroke:none"
           sodipodi:type="arc" />
        <path
           sodipodi:type="arc"
           style="opacity:0.98999999000000005;fill:#ffffff;fill-opacity:1;stroke:none"
           id="path5343"
           sodipodi:cx="-36.352741"
           sodipodi:cy="-141.11758"
           sodipodi:rx="4.1860728"
           sodipodi:ry="4.1860728"
           d="m -32.166668,-141.11758 c 0,2.3119 -1.874169,4.18607 -4.186073,4.18607 -2.311904,0 -4.186073,-1.87417 -4.186073,-4.18607 0,-2.31191 1.874169,-4.18608 4.186073,-4.18608 2.311904,0 4.186073,1.87417 4.186073,4.18608 z"
           transform="matrix(1.0511267,0,0,1.0511267,72.520821,1084.421)" />
        <path
           transform="matrix(1.0511267,0,0,1.0511267,72.520821,1094.369)"
           d="m -32.166668,-141.11758 c 0,2.3119 -1.874169,4.18607 -4.186073,4.18607 -2.311904,0 -4.186073,-1.87417 -4.186073,-4.18607 0,-2.31191 1.874169,-4.18608 4.186073,-4.18608 2.311904,0 4.186073,1.87417 4.186073,4.18608 z"
           sodipodi:ry="4.1860728"
           sodipodi:rx="4.1860728"
           sodipodi:cy="-141.11758"
           sodipodi:cx="-36.352741"
           id="path5345"
           style="opacity:0.98999999000000005;fill:#ffffff;fill-opacity:1;stroke:none"
           sodipodi:type="arc" />
        <path
           sodipodi:type="arc"
           style="opacity:0.98999999000000005;fill:#ffffff;fill-opacity:1;stroke:none"
           id="path5347"
           sodipodi:cx="-36.352741"
           sodipodi:cy="-141.11758"
           sodipodi:rx="4.1860728"
           sodipodi:ry="4.1860728"
           d="m -32.166668,-141.11758 c 0,2.3119 -1.874169,4.18607 -4.186073,4.18607 -2.311904,0 -4.186073,-1.87417 -4.186073,-4.18607 0,-2.31191 1.874169,-4.18608 4.186073,-4.18608 2.311904,0 4.186073,1.87417 4.186073,4.18608 z"
           transform="matrix(1.0511267,0,0,1.0511267,72.520821,1105.0823)" />
        <path
           sodipodi:type="arc"
           style="opacity:0.98999999000000005;fill:#ffffff;fill-opacity:1;stroke:none"
           id="path5349"
           sodipodi:cx="-36.352741"
           sodipodi:cy="-141.11758"
           sodipodi:rx="4.1860728"
           sodipodi:ry="4.1860728"
           d="m -32.166668,-141.11758 c 0,2.3119 -1.874169,4.18607 -4.186073,4.18607 -2.311904,0 -4.186073,-1.87417 -4.186073,-4.18607 0,-2.31191 1.874169,-4.18608 4.186073,-4.18608 2.311904,0 4.186073,1.87417 4.186073,4.18608 z"
           transform="matrix(1.0511267,0,0,1.0511267,82.851475,1019.7588)" />
        <path
           transform="matrix(1.0511267,0,0,1.0511267,82.851475,1030.8546)"
           d="m -32.166668,-141.11758 c 0,2.3119 -1.874169,4.18607 -4.186073,4.18607 -2.311904,0 -4.186073,-1.87417 -4.186073,-4.18607 0,-2.31191 1.874169,-4.18608 4.186073,-4.18608 2.311904,0 4.186073,1.87417 4.186073,4.18608 z"
           sodipodi:ry="4.1860728"
           sodipodi:rx="4.1860728"
           sodipodi:cy="-141.11758"
           sodipodi:cx="-36.352741"
           id="path5351"
           style="opacity:0.98999999000000005;fill:#ffffff;fill-opacity:1;stroke:none"
           sodipodi:type="arc" />
        <path
           sodipodi:type="arc"
           style="opacity:0.98999999000000005;fill:#ffffff;fill-opacity:1;stroke:none"
           id="path5353"
           sodipodi:cx="-36.352741"
           sodipodi:cy="-141.11758"
           sodipodi:rx="4.1860728"
           sodipodi:ry="4.1860728"
           d="m -32.166668,-141.11758 c 0,2.3119 -1.874169,4.18607 -4.186073,4.18607 -2.311904,0 -4.186073,-1.87417 -4.186073,-4.18607 0,-2.31191 1.874169,-4.18608 4.186073,-4.18608 2.311904,0 4.186073,1.87417 4.186073,4.18608 z"
           transform="matrix(1.0511267,0,0,1.0511267,82.851475,1041.1853)" />
        <path
           transform="matrix(1.0511267,0,0,1.0511267,82.851475,1052.6638)"
           d="m -32.166668,-141.11758 c 0,2.3119 -1.874169,4.18607 -4.186073,4.18607 -2.311904,0 -4.186073,-1.87417 -4.186073,-4.18607 0,-2.31191 1.874169,-4.18608 4.186073,-4.18608 2.311904,0 4.186073,1.87417 4.186073,4.18608 z"
           sodipodi:ry="4.1860728"
           sodipodi:rx="4.1860728"
           sodipodi:cy="-141.11758"
           sodipodi:cx="-36.352741"
           id="path5355"
           style="opacity:0.98999999000000005;fill:#ffffff;fill-opacity:1;stroke:none"
           sodipodi:type="arc" />
        <path
           sodipodi:type="arc"
           style="opacity:0.98999999000000005;fill:#ffffff;fill-opacity:1;stroke:none"
           id="path5357"
           sodipodi:cx="-36.352741"
           sodipodi:cy="-141.11758"
           sodipodi:rx="4.1860728"
           sodipodi:ry="4.1860728"
           d="m -32.166668,-141.11758 c 0,2.3119 -1.874169,4.18607 -4.186073,4.18607 -2.311904,0 -4.186073,-1.87417 -4.186073,-4.18607 0,-2.31191 1.874169,-4.18608 4.186073,-4.18608 2.311904,0 4.186073,1.87417 4.186073,4.18608 z"
           transform="matrix(1.0511267,0,0,1.0511267,82.851475,1062.6119)" />
        <path
           transform="matrix(1.0511267,0,0,1.0511267,82.851475,1073.7077)"
           d="m -32.166668,-141.11758 c 0,2.3119 -1.874169,4.18607 -4.186073,4.18607 -2.311904,0 -4.186073,-1.87417 -4.186073,-4.18607 0,-2.31191 1.874169,-4.18608 4.186073,-4.18608 2.311904,0 4.186073,1.87417 4.186073,4.18608 z"
           sodipodi:ry="4.1860728"
           sodipodi:rx="4.1860728"
           sodipodi:cy="-141.11758"
           sodipodi:cx="-36.352741"
           id="path5359"
           style="opacity:0.98999999000000005;fill:#ffffff;fill-opacity:1;stroke:none"
           sodipodi:type="arc" />
        <path
           sodipodi:type="arc"
           style="opacity:0.98999999000000005;fill:#ffffff;fill-opacity:1;stroke:none"
           id="path5361"
           sodipodi:cx="-36.352741"
           sodipodi:cy="-141.11758"
           sodipodi:rx="4.1860728"
           sodipodi:ry="4.1860728"
           d="m -32.166668,-141.11758 c 0,2.3119 -1.874169,4.18607 -4.186073,4.18607 -2.311904,0 -4.186073,-1.87417 -4.186073,-4.18607 0,-2.31191 1.874169,-4.18608 4.186073,-4.18608 2.311904,0 4.186073,1.87417 4.186073,4.18608 z"
           transform="matrix(1.0511267,0,0,1.0511267,82.851475,1083.6557)" />
        <path
           transform="matrix(1.0511267,0,0,1.0511267,82.851475,1094.369)"
           d="m -32.166668,-141.11758 c 0,2.3119 -1.874169,4.18607 -4.186073,4.18607 -2.311904,0 -4.186073,-1.87417 -4.186073,-4.18607 0,-2.31191 1.874169,-4.18608 4.186073,-4.18608 2.311904,0 4.186073,1.87417 4.186073,4.18608 z"
           sodipodi:ry="4.1860728"
           sodipodi:rx="4.1860728"
           sodipodi:cy="-141.11758"
           sodipodi:cx="-36.352741"
           id="path5363"
           style="opacity:0.98999999000000005;fill:#ffffff;fill-opacity:1;stroke:none"
           sodipodi:type="arc" />
        <path
           transform="matrix(1.0511267,0,0,1.0511267,93.947361,1009.4281)"
           d="m -32.166668,-141.11758 c 0,2.3119 -1.874169,4.18607 -4.186073,4.18607 -2.311904,0 -4.186073,-1.87417 -4.186073,-4.18607 0,-2.31191 1.874169,-4.18608 4.186073,-4.18608 2.311904,0 4.186073,1.87417 4.186073,4.18608 z"
           sodipodi:ry="4.1860728"
           sodipodi:rx="4.1860728"
           sodipodi:cy="-141.11758"
           sodipodi:cx="-36.352741"
           id="path5365"
           style="opacity:0.98999999000000005;fill:#ffffff;fill-opacity:1;stroke:none"
           sodipodi:type="arc" />
        <path
           sodipodi:type="arc"
           style="opacity:0.98999999000000005;fill:#ffffff;fill-opacity:1;stroke:none"
           id="path5367"
           sodipodi:cx="-36.352741"
           sodipodi:cy="-141.11758"
           sodipodi:rx="4.1860728"
           sodipodi:ry="4.1860728"
           d="m -32.166668,-141.11758 c 0,2.3119 -1.874169,4.18607 -4.186073,4.18607 -2.311904,0 -4.186073,-1.87417 -4.186073,-4.18607 0,-2.31191 1.874169,-4.18608 4.186073,-4.18608 2.311904,0 4.186073,1.87417 4.186073,4.18608 z"
           transform="matrix(1.0511267,0,0,1.0511267,93.947361,1020.5239)" />
        <path
           transform="matrix(1.0511267,0,0,1.0511267,93.947361,1030.8546)"
           d="m -32.166668,-141.11758 c 0,2.3119 -1.874169,4.18607 -4.186073,4.18607 -2.311904,0 -4.186073,-1.87417 -4.186073,-4.18607 0,-2.31191 1.874169,-4.18608 4.186073,-4.18608 2.311904,0 4.186073,1.87417 4.186073,4.18608 z"
           sodipodi:ry="4.1860728"
           sodipodi:rx="4.1860728"
           sodipodi:cy="-141.11758"
           sodipodi:cx="-36.352741"
           id="path5369"
           style="opacity:0.98999999000000005;fill:#ffffff;fill-opacity:1;stroke:none"
           sodipodi:type="arc" />
        <path
           sodipodi:type="arc"
           style="opacity:0.98999999000000005;fill:#ffffff;fill-opacity:1;stroke:none"
           id="path5371"
           sodipodi:cx="-36.352741"
           sodipodi:cy="-141.11758"
           sodipodi:rx="4.1860728"
           sodipodi:ry="4.1860728"
           d="m -32.166668,-141.11758 c 0,2.3119 -1.874169,4.18607 -4.186073,4.18607 -2.311904,0 -4.186073,-1.87417 -4.186073,-4.18607 0,-2.31191 1.874169,-4.18608 4.186073,-4.18608 2.311904,0 4.186073,1.87417 4.186073,4.18608 z"
           transform="matrix(1.0511267,0,0,1.0511267,93.947361,1042.3331)" />
        <path
           transform="matrix(1.0511267,0,0,1.0511267,93.947361,1052.2812)"
           d="m -32.166668,-141.11758 c 0,2.3119 -1.874169,4.18607 -4.186073,4.18607 -2.311904,0 -4.186073,-1.87417 -4.186073,-4.18607 0,-2.31191 1.874169,-4.18608 4.186073,-4.18608 2.311904,0 4.186073,1.87417 4.186073,4.18608 z"
           sodipodi:ry="4.1860728"
           sodipodi:rx="4.1860728"
           sodipodi:cy="-141.11758"
           sodipodi:cx="-36.352741"
           id="path5373"
           style="opacity:0.98999999000000005;fill:#ffffff;fill-opacity:1;stroke:none"
           sodipodi:type="arc" />
        <path
           sodipodi:type="arc"
           style="opacity:0.98999999000000005;fill:#ffffff;fill-opacity:1;stroke:none"
           id="path5375"
           sodipodi:cx="-36.352741"
           sodipodi:cy="-141.11758"
           sodipodi:rx="4.1860728"
           sodipodi:ry="4.1860728"
           d="m -32.166668,-141.11758 c 0,2.3119 -1.874169,4.18607 -4.186073,4.18607 -2.311904,0 -4.186073,-1.87417 -4.186073,-4.18607 0,-2.31191 1.874169,-4.18608 4.186073,-4.18608 2.311904,0 4.186073,1.87417 4.186073,4.18608 z"
           transform="matrix(1.0511267,0,0,1.0511267,93.947361,1063.377)" />
        <path
           transform="matrix(1.0511267,0,0,1.0511267,93.947361,1073.325)"
           d="m -32.166668,-141.11758 c 0,2.3119 -1.874169,4.18607 -4.186073,4.18607 -2.311904,0 -4.186073,-1.87417 -4.186073,-4.18607 0,-2.31191 1.874169,-4.18608 4.186073,-4.18608 2.311904,0 4.186073,1.87417 4.186073,4.18608 z"
           sodipodi:ry="4.1860728"
           sodipodi:rx="4.1860728"
           sodipodi:cy="-141.11758"
           sodipodi:cx="-36.352741"
           id="path5377"
           style="opacity:0.98999999000000005;fill:#ffffff;fill-opacity:1;stroke:none"
           sodipodi:type="arc" />
        <path
           sodipodi:type="arc"
           style="opacity:0.98999999000000005;fill:#ffffff;fill-opacity:1;stroke:none"
           id="path5379"
           sodipodi:cx="-36.352741"
           sodipodi:cy="-141.11758"
           sodipodi:rx="4.1860728"
           sodipodi:ry="4.1860728"
           d="m -32.166668,-141.11758 c 0,2.3119 -1.874169,4.18607 -4.186073,4.18607 -2.311904,0 -4.186073,-1.87417 -4.186073,-4.18607 0,-2.31191 1.874169,-4.18608 4.186073,-4.18608 2.311904,0 4.186073,1.87417 4.186073,4.18608 z"
           transform="matrix(1.0511267,0,0,1.0511267,93.947361,1084.0383)" />
        <path
           transform="matrix(1.0511267,0,0,1.0511267,104.66063,1009.4281)"
           d="m -32.166668,-141.11758 c 0,2.3119 -1.874169,4.18607 -4.186073,4.18607 -2.311904,0 -4.186073,-1.87417 -4.186073,-4.18607 0,-2.31191 1.874169,-4.18608 4.186073,-4.18608 2.311904,0 4.186073,1.87417 4.186073,4.18608 z"
           sodipodi:ry="4.1860728"
           sodipodi:rx="4.1860728"
           sodipodi:cy="-141.11758"
           sodipodi:cx="-36.352741"
           id="path5383"
           style="opacity:0.98999999000000005;fill:#ffffff;fill-opacity:1;stroke:none"
           sodipodi:type="arc" />
        <path
           sodipodi:type="arc"
           style="opacity:0.98999999000000005;fill:#ffffff;fill-opacity:1;stroke:none"
           id="path5385"
           sodipodi:cx="-36.352741"
           sodipodi:cy="-141.11758"
           sodipodi:rx="4.1860728"
           sodipodi:ry="4.1860728"
           d="m -32.166668,-141.11758 c 0,2.3119 -1.874169,4.18607 -4.186073,4.18607 -2.311904,0 -4.186073,-1.87417 -4.186073,-4.18607 0,-2.31191 1.874169,-4.18608 4.186073,-4.18608 2.311904,0 4.186073,1.87417 4.186073,4.18608 z"
           transform="matrix(1.0511267,0,0,1.0511267,104.66063,1019.7588)" />
        <path
           transform="matrix(1.0511267,0,0,1.0511267,104.66063,1031.2373)"
           d="m -32.166668,-141.11758 c 0,2.3119 -1.874169,4.18607 -4.186073,4.18607 -2.311904,0 -4.186073,-1.87417 -4.186073,-4.18607 0,-2.31191 1.874169,-4.18608 4.186073,-4.18608 2.311904,0 4.186073,1.87417 4.186073,4.18608 z"
           sodipodi:ry="4.1860728"
           sodipodi:rx="4.1860728"
           sodipodi:cy="-141.11758"
           sodipodi:cx="-36.352741"
           id="path5387"
           style="opacity:0.98999999000000005;fill:#ffffff;fill-opacity:1;stroke:none"
           sodipodi:type="arc" />
        <path
           sodipodi:type="arc"
           style="opacity:0.98999999000000005;fill:#ffffff;fill-opacity:1;stroke:none"
           id="path5389"
           sodipodi:cx="-36.352741"
           sodipodi:cy="-141.11758"
           sodipodi:rx="4.1860728"
           sodipodi:ry="4.1860728"
           d="m -32.166668,-141.11758 c 0,2.3119 -1.874169,4.18607 -4.186073,4.18607 -2.311904,0 -4.186073,-1.87417 -4.186073,-4.18607 0,-2.31191 1.874169,-4.18608 4.186073,-4.18608 2.311904,0 4.186073,1.87417 4.186073,4.18608 z"
           transform="matrix(1.0511267,0,0,1.0511267,104.66063,1041.1853)" />
        <path
           transform="matrix(1.0511267,0,0,1.0511267,104.66063,1052.2812)"
           d="m -32.166668,-141.11758 c 0,2.3119 -1.874169,4.18607 -4.186073,4.18607 -2.311904,0 -4.186073,-1.87417 -4.186073,-4.18607 0,-2.31191 1.874169,-4.18608 4.186073,-4.18608 2.311904,0 4.186073,1.87417 4.186073,4.18608 z"
           sodipodi:ry="4.1860728"
           sodipodi:rx="4.1860728"
           sodipodi:cy="-141.11758"
           sodipodi:cx="-36.352741"
           id="path5391"
           style="opacity:0.98999999000000005;fill:#ffffff;fill-opacity:1;stroke:none"
           sodipodi:type="arc" />
        <path
           sodipodi:type="arc"
           style="opacity:0.98999999000000005;fill:#ffffff;fill-opacity:1;stroke:none"
           id="path5393"
           sodipodi:cx="-36.352741"
           sodipodi:cy="-141.11758"
           sodipodi:rx="4.1860728"
           sodipodi:ry="4.1860728"
           d="m -32.166668,-141.11758 c 0,2.3119 -1.874169,4.18607 -4.186073,4.18607 -2.311904,0 -4.186073,-1.87417 -4.186073,-4.18607 0,-2.31191 1.874169,-4.18608 4.186073,-4.18608 2.311904,0 4.186073,1.87417 4.186073,4.18608 z"
           transform="matrix(1.0511267,0,0,1.0511267,104.66063,1062.2292)" />
        <path
           transform="matrix(1.0511267,0,0,1.0511267,104.66063,1072.9425)"
           d="m -32.166668,-141.11758 c 0,2.3119 -1.874169,4.18607 -4.186073,4.18607 -2.311904,0 -4.186073,-1.87417 -4.186073,-4.18607 0,-2.31191 1.874169,-4.18608 4.186073,-4.18608 2.311904,0 4.186073,1.87417 4.186073,4.18608 z"
           sodipodi:ry="4.1860728"
           sodipodi:rx="4.1860728"
           sodipodi:cy="-141.11758"
           sodipodi:cx="-36.352741"
           id="path5395"
           style="opacity:0.98999999000000005;fill:#ffffff;fill-opacity:1;stroke:none"
           sodipodi:type="arc" />
        <path
           transform="matrix(1.0511267,0,0,1.0511267,115.08049,1019.7588)"
           d="m -32.166668,-141.11758 c 0,2.3119 -1.874169,4.18607 -4.186073,4.18607 -2.311904,0 -4.186073,-1.87417 -4.186073,-4.18607 0,-2.31191 1.874169,-4.18608 4.186073,-4.18608 2.311904,0 4.186073,1.87417 4.186073,4.18608 z"
           sodipodi:ry="4.1860728"
           sodipodi:rx="4.1860728"
           sodipodi:cy="-141.11758"
           sodipodi:cx="-36.352741"
           id="path5401"
           style="opacity:0.98999999000000005;fill:#ffffff;fill-opacity:1;stroke:none"
           sodipodi:type="arc" />
        <path
           sodipodi:type="arc"
           style="opacity:0.98999999000000005;fill:#ffffff;fill-opacity:1;stroke:none"
           id="path5403"
           sodipodi:cx="-36.352741"
           sodipodi:cy="-141.11758"
           sodipodi:rx="4.1860728"
           sodipodi:ry="4.1860728"
           d="m -32.166668,-141.11758 c 0,2.3119 -1.874169,4.18607 -4.186073,4.18607 -2.311904,0 -4.186073,-1.87417 -4.186073,-4.18607 0,-2.31191 1.874169,-4.18608 4.186073,-4.18608 2.311904,0 4.186073,1.87417 4.186073,4.18608 z"
           transform="matrix(1.0511267,0,0,1.0511267,115.08049,1031.2373)" />
        <path
           transform="matrix(1.0511267,0,0,1.0511267,115.08049,1041.1853)"
           d="m -32.166668,-141.11758 c 0,2.3119 -1.874169,4.18607 -4.186073,4.18607 -2.311904,0 -4.186073,-1.87417 -4.186073,-4.18607 0,-2.31191 1.874169,-4.18608 4.186073,-4.18608 2.311904,0 4.186073,1.87417 4.186073,4.18608 z"
           sodipodi:ry="4.1860728"
           sodipodi:rx="4.1860728"
           sodipodi:cy="-141.11758"
           sodipodi:cx="-36.352741"
           id="path5405"
           style="opacity:0.98999999000000005;fill:#ffffff;fill-opacity:1;stroke:none"
           sodipodi:type="arc" />
        <path
           sodipodi:type="arc"
           style="opacity:0.98999999000000005;fill:#ffffff;fill-opacity:1;stroke:none"
           id="path5407"
           sodipodi:cx="-36.352741"
           sodipodi:cy="-141.11758"
           sodipodi:rx="4.1860728"
           sodipodi:ry="4.1860728"
           d="m -32.166668,-141.11758 c 0,2.3119 -1.874169,4.18607 -4.186073,4.18607 -2.311904,0 -4.186073,-1.87417 -4.186073,-4.18607 0,-2.31191 1.874169,-4.18608 4.186073,-4.18608 2.311904,0 4.186073,1.87417 4.186073,4.18608 z"
           transform="matrix(1.0511267,0,0,1.0511267,115.08049,1052.2812)" />
        <path
           transform="matrix(1.0511267,0,0,1.0511267,115.08049,1062.2292)"
           d="m -32.166668,-141.11758 c 0,2.3119 -1.874169,4.18607 -4.186073,4.18607 -2.311904,0 -4.186073,-1.87417 -4.186073,-4.18607 0,-2.31191 1.874169,-4.18608 4.186073,-4.18608 2.311904,0 4.186073,1.87417 4.186073,4.18608 z"
           sodipodi:ry="4.1860728"
           sodipodi:rx="4.1860728"
           sodipodi:cy="-141.11758"
           sodipodi:cx="-36.352741"
           id="path5409"
           style="opacity:0.98999999000000005;fill:#ffffff;fill-opacity:1;stroke:none"
           sodipodi:type="arc" />
        <path
           transform="matrix(1.0511267,0,0,1.0511267,125.50036,1031.2373)"
           d="m -32.166668,-141.11758 c 0,2.3119 -1.874169,4.18607 -4.186073,4.18607 -2.311904,0 -4.186073,-1.87417 -4.186073,-4.18607 0,-2.31191 1.874169,-4.18608 4.186073,-4.18608 2.311904,0 4.186073,1.87417 4.186073,4.18608 z"
           sodipodi:ry="4.1860728"
           sodipodi:rx="4.1860728"
           sodipodi:cy="-141.11758"
           sodipodi:cx="-36.352741"
           id="path5419"
           style="opacity:0.98999999000000005;fill:#ffffff;fill-opacity:1;stroke:none"
           sodipodi:type="arc" />
        <path
           sodipodi:type="arc"
           style="opacity:0.98999999000000005;fill:#ffffff;fill-opacity:1;stroke:none"
           id="path5421"
           sodipodi:cx="-36.352741"
           sodipodi:cy="-141.11758"
           sodipodi:rx="4.1860728"
           sodipodi:ry="4.1860728"
           d="m -32.166668,-141.11758 c 0,2.3119 -1.874169,4.18607 -4.186073,4.18607 -2.311904,0 -4.186073,-1.87417 -4.186073,-4.18607 0,-2.31191 1.874169,-4.18608 4.186073,-4.18608 2.311904,0 4.186073,1.87417 4.186073,4.18608 z"
           transform="matrix(1.0511267,0,0,1.0511267,125.50036,1041.1853)" />
        <path
           transform="matrix(1.0511267,0,0,1.0511267,125.50036,1052.2812)"
           d="m -32.166668,-141.11758 c 0,2.3119 -1.874169,4.18607 -4.186073,4.18607 -2.311904,0 -4.186073,-1.87417 -4.186073,-4.18607 0,-2.31191 1.874169,-4.18608 4.186073,-4.18608 2.311904,0 4.186073,1.87417 4.186073,4.18608 z"
           sodipodi:ry="4.1860728"
           sodipodi:rx="4.1860728"
           sodipodi:cy="-141.11758"
           sodipodi:cx="-36.352741"
           id="path5423"
           style="opacity:0.98999999000000005;fill:#ffffff;fill-opacity:1;stroke:none"
           sodipodi:type="arc" />
        <path
           transform="matrix(-1.0516533,0,0,1.0511267,-14.166625,1019.7588)"
           d="m -32.166668,-141.11758 c 0,2.3119 -1.874169,4.18607 -4.186073,4.18607 -2.311904,0 -4.186073,-1.87417 -4.186073,-4.18607 0,-2.31191 1.874169,-4.18608 4.186073,-4.18608 2.311904,0 4.186073,1.87417 4.186073,4.18608 z"
           sodipodi:ry="4.1860728"
           sodipodi:rx="4.1860728"
           sodipodi:cy="-141.11758"
           sodipodi:cx="-36.352741"
           id="path5429"
           style="opacity:0.98999999000000005;fill:#ffffff;fill-opacity:1;stroke:none"
           sodipodi:type="arc" />
        <path
           sodipodi:type="arc"
           style="opacity:0.98999999000000005;fill:#ffffff;fill-opacity:1;stroke:none"
           id="path5431"
           sodipodi:cx="-36.352741"
           sodipodi:cy="-141.11758"
           sodipodi:rx="4.1860728"
           sodipodi:ry="4.1860728"
           d="m -32.166668,-141.11758 c 0,2.3119 -1.874169,4.18607 -4.186073,4.18607 -2.311904,0 -4.186073,-1.87417 -4.186073,-4.18607 0,-2.31191 1.874169,-4.18608 4.186073,-4.18608 2.311904,0 4.186073,1.87417 4.186073,4.18608 z"
           transform="matrix(-1.0516533,0,0,1.0511267,-14.166625,1030.8546)" />
        <path
           transform="matrix(-1.0516533,0,0,1.0511267,-14.166625,1041.1853)"
           d="m -32.166668,-141.11758 c 0,2.3119 -1.874169,4.18607 -4.186073,4.18607 -2.311904,0 -4.186073,-1.87417 -4.186073,-4.18607 0,-2.31191 1.874169,-4.18608 4.186073,-4.18608 2.311904,0 4.186073,1.87417 4.186073,4.18608 z"
           sodipodi:ry="4.1860728"
           sodipodi:rx="4.1860728"
           sodipodi:cy="-141.11758"
           sodipodi:cx="-36.352741"
           id="path5433"
           style="opacity:0.98999999000000005;fill:#ffffff;fill-opacity:1;stroke:none"
           sodipodi:type="arc" />
        <path
           sodipodi:type="arc"
           style="opacity:0.98999999000000005;fill:#ffffff;fill-opacity:1;stroke:none"
           id="path5435"
           sodipodi:cx="-36.352741"
           sodipodi:cy="-141.11758"
           sodipodi:rx="4.1860728"
           sodipodi:ry="4.1860728"
           d="m -32.166668,-141.11758 c 0,2.3119 -1.874169,4.18607 -4.186073,4.18607 -2.311904,0 -4.186073,-1.87417 -4.186073,-4.18607 0,-2.31191 1.874169,-4.18608 4.186073,-4.18608 2.311904,0 4.186073,1.87417 4.186073,4.18608 z"
           transform="matrix(-1.0516533,0,0,1.0511267,-14.166625,1052.6638)" />
        <path
           transform="matrix(-1.0516533,0,0,1.0511267,-14.166625,1062.6119)"
           d="m -32.166668,-141.11758 c 0,2.3119 -1.874169,4.18607 -4.186073,4.18607 -2.311904,0 -4.186073,-1.87417 -4.186073,-4.18607 0,-2.31191 1.874169,-4.18608 4.186073,-4.18608 2.311904,0 4.186073,1.87417 4.186073,4.18608 z"
           sodipodi:ry="4.1860728"
           sodipodi:rx="4.1860728"
           sodipodi:cy="-141.11758"
           sodipodi:cx="-36.352741"
           id="path5437"
           style="opacity:0.98999999000000005;fill:#ffffff;fill-opacity:1;stroke:none"
           sodipodi:type="arc" />
        <path
           sodipodi:type="arc"
           style="opacity:0.98999999000000005;fill:#ffffff;fill-opacity:1;stroke:none"
           id="path5439"
           sodipodi:cx="-36.352741"
           sodipodi:cy="-141.11758"
           sodipodi:rx="4.1860728"
           sodipodi:ry="4.1860728"
           d="m -32.166668,-141.11758 c 0,2.3119 -1.874169,4.18607 -4.186073,4.18607 -2.311904,0 -4.186073,-1.87417 -4.186073,-4.18607 0,-2.31191 1.874169,-4.18608 4.186073,-4.18608 2.311904,0 4.186073,1.87417 4.186073,4.18608 z"
           transform="matrix(-1.0516533,0,0,1.0511267,-14.166625,1073.7077)" />
        <path
           transform="matrix(-1.0516533,0,0,1.0511267,-14.166625,1083.6557)"
           d="m -32.166668,-141.11758 c 0,2.3119 -1.874169,4.18607 -4.186073,4.18607 -2.311904,0 -4.186073,-1.87417 -4.186073,-4.18607 0,-2.31191 1.874169,-4.18608 4.186073,-4.18608 2.311904,0 4.186073,1.87417 4.186073,4.18608 z"
           sodipodi:ry="4.1860728"
           sodipodi:rx="4.1860728"
           sodipodi:cy="-141.11758"
           sodipodi:cx="-36.352741"
           id="path5441"
           style="opacity:0.98999999000000005;fill:#ffffff;fill-opacity:1;stroke:none"
           sodipodi:type="arc" />
        <path
           sodipodi:type="arc"
           style="opacity:0.98999999000000005;fill:#ffffff;fill-opacity:1;stroke:none"
           id="path5443"
           sodipodi:cx="-36.352741"
           sodipodi:cy="-141.11758"
           sodipodi:rx="4.1860728"
           sodipodi:ry="4.1860728"
           d="m -32.166668,-141.11758 c 0,2.3119 -1.874169,4.18607 -4.186073,4.18607 -2.311904,0 -4.186073,-1.87417 -4.186073,-4.18607 0,-2.31191 1.874169,-4.18608 4.186073,-4.18608 2.311904,0 4.186073,1.87417 4.186073,4.18608 z"
           transform="matrix(-1.0516533,0,0,1.0511267,-14.166625,1094.369)" />
        <path
           sodipodi:type="arc"
           style="opacity:0.98999999000000005;fill:#ffffff;fill-opacity:1;stroke:none"
           id="path5445"
           sodipodi:cx="-36.352741"
           sodipodi:cy="-141.11758"
           sodipodi:rx="4.1860728"
           sodipodi:ry="4.1860728"
           d="m -32.166668,-141.11758 c 0,2.3119 -1.874169,4.18607 -4.186073,4.18607 -2.311904,0 -4.186073,-1.87417 -4.186073,-4.18607 0,-2.31191 1.874169,-4.18608 4.186073,-4.18608 2.311904,0 4.186073,1.87417 4.186073,4.18608 z"
           transform="matrix(-1.0516533,0,0,1.0511267,-25.268069,1009.4281)" />
        <path
           transform="matrix(-1.0516533,0,0,1.0511267,-25.268069,1020.5239)"
           d="m -32.166668,-141.11758 c 0,2.3119 -1.874169,4.18607 -4.186073,4.18607 -2.311904,0 -4.186073,-1.87417 -4.186073,-4.18607 0,-2.31191 1.874169,-4.18608 4.186073,-4.18608 2.311904,0 4.186073,1.87417 4.186073,4.18608 z"
           sodipodi:ry="4.1860728"
           sodipodi:rx="4.1860728"
           sodipodi:cy="-141.11758"
           sodipodi:cx="-36.352741"
           id="path5447"
           style="opacity:0.98999999000000005;fill:#ffffff;fill-opacity:1;stroke:none"
           sodipodi:type="arc" />
        <path
           sodipodi:type="arc"
           style="opacity:0.98999999000000005;fill:#ffffff;fill-opacity:1;stroke:none"
           id="path5449"
           sodipodi:cx="-36.352741"
           sodipodi:cy="-141.11758"
           sodipodi:rx="4.1860728"
           sodipodi:ry="4.1860728"
           d="m -32.166668,-141.11758 c 0,2.3119 -1.874169,4.18607 -4.186073,4.18607 -2.311904,0 -4.186073,-1.87417 -4.186073,-4.18607 0,-2.31191 1.874169,-4.18608 4.186073,-4.18608 2.311904,0 4.186073,1.87417 4.186073,4.18608 z"
           transform="matrix(-1.0516533,0,0,1.0511267,-25.268069,1030.8546)" />
        <path
           transform="matrix(-1.0516533,0,0,1.0511267,-25.268069,1042.3331)"
           d="m -32.166668,-141.11758 c 0,2.3119 -1.874169,4.18607 -4.186073,4.18607 -2.311904,0 -4.186073,-1.87417 -4.186073,-4.18607 0,-2.31191 1.874169,-4.18608 4.186073,-4.18608 2.311904,0 4.186073,1.87417 4.186073,4.18608 z"
           sodipodi:ry="4.1860728"
           sodipodi:rx="4.1860728"
           sodipodi:cy="-141.11758"
           sodipodi:cx="-36.352741"
           id="path5451"
           style="opacity:0.98999999000000005;fill:#ffffff;fill-opacity:1;stroke:none"
           sodipodi:type="arc" />
        <path
           sodipodi:type="arc"
           style="opacity:0.98999999000000005;fill:#ffffff;fill-opacity:1;stroke:none"
           id="path5453"
           sodipodi:cx="-36.352741"
           sodipodi:cy="-141.11758"
           sodipodi:rx="4.1860728"
           sodipodi:ry="4.1860728"
           d="m -32.166668,-141.11758 c 0,2.3119 -1.874169,4.18607 -4.186073,4.18607 -2.311904,0 -4.186073,-1.87417 -4.186073,-4.18607 0,-2.31191 1.874169,-4.18608 4.186073,-4.18608 2.311904,0 4.186073,1.87417 4.186073,4.18608 z"
           transform="matrix(-1.0516533,0,0,1.0511267,-25.268069,1052.2812)" />
        <path
           transform="matrix(-1.0516533,0,0,1.0511267,-25.268069,1063.377)"
           d="m -32.166668,-141.11758 c 0,2.3119 -1.874169,4.18607 -4.186073,4.18607 -2.311904,0 -4.186073,-1.87417 -4.186073,-4.18607 0,-2.31191 1.874169,-4.18608 4.186073,-4.18608 2.311904,0 4.186073,1.87417 4.186073,4.18608 z"
           sodipodi:ry="4.1860728"
           sodipodi:rx="4.1860728"
           sodipodi:cy="-141.11758"
           sodipodi:cx="-36.352741"
           id="path5455"
           style="opacity:0.98999999000000005;fill:#ffffff;fill-opacity:1;stroke:none"
           sodipodi:type="arc" />
        <path
           sodipodi:type="arc"
           style="opacity:0.98999999000000005;fill:#ffffff;fill-opacity:1;stroke:none"
           id="path5457"
           sodipodi:cx="-36.352741"
           sodipodi:cy="-141.11758"
           sodipodi:rx="4.1860728"
           sodipodi:ry="4.1860728"
           d="m -32.166668,-141.11758 c 0,2.3119 -1.874169,4.18607 -4.186073,4.18607 -2.311904,0 -4.186073,-1.87417 -4.186073,-4.18607 0,-2.31191 1.874169,-4.18608 4.186073,-4.18608 2.311904,0 4.186073,1.87417 4.186073,4.18608 z"
           transform="matrix(-1.0516533,0,0,1.0511267,-25.268069,1073.325)" />
        <path
           transform="matrix(-1.0516533,0,0,1.0511267,-25.268069,1084.0383)"
           d="m -32.166668,-141.11758 c 0,2.3119 -1.874169,4.18607 -4.186073,4.18607 -2.311904,0 -4.186073,-1.87417 -4.186073,-4.18607 0,-2.31191 1.874169,-4.18608 4.186073,-4.18608 2.311904,0 4.186073,1.87417 4.186073,4.18608 z"
           sodipodi:ry="4.1860728"
           sodipodi:rx="4.1860728"
           sodipodi:cy="-141.11758"
           sodipodi:cx="-36.352741"
           id="path5459"
           style="opacity:0.98999999000000005;fill:#ffffff;fill-opacity:1;stroke:none"
           sodipodi:type="arc" />
        <path
           sodipodi:type="arc"
           style="opacity:0.98999999000000005;fill:#ffffff;fill-opacity:1;stroke:none"
           id="path5461"
           sodipodi:cx="-36.352741"
           sodipodi:cy="-141.11758"
           sodipodi:rx="4.1860728"
           sodipodi:ry="4.1860728"
           d="m -32.166668,-141.11758 c 0,2.3119 -1.874169,4.18607 -4.186073,4.18607 -2.311904,0 -4.186073,-1.87417 -4.186073,-4.18607 0,-2.31191 1.874169,-4.18608 4.186073,-4.18608 2.311904,0 4.186073,1.87417 4.186073,4.18608 z"
           transform="matrix(-1.0516533,0,0,1.0511267,-35.986707,1009.4281)" />
        <path
           transform="matrix(-1.0516533,0,0,1.0511267,-35.986707,1019.7588)"
           d="m -32.166668,-141.11758 c 0,2.3119 -1.874169,4.18607 -4.186073,4.18607 -2.311904,0 -4.186073,-1.87417 -4.186073,-4.18607 0,-2.31191 1.874169,-4.18608 4.186073,-4.18608 2.311904,0 4.186073,1.87417 4.186073,4.18608 z"
           sodipodi:ry="4.1860728"
           sodipodi:rx="4.1860728"
           sodipodi:cy="-141.11758"
           sodipodi:cx="-36.352741"
           id="path5463"
           style="opacity:0.98999999000000005;fill:#ffffff;fill-opacity:1;stroke:none"
           sodipodi:type="arc" />
        <path
           sodipodi:type="arc"
           style="opacity:0.98999999000000005;fill:#ffffff;fill-opacity:1;stroke:none"
           id="path5465"
           sodipodi:cx="-36.352741"
           sodipodi:cy="-141.11758"
           sodipodi:rx="4.1860728"
           sodipodi:ry="4.1860728"
           d="m -32.166668,-141.11758 c 0,2.3119 -1.874169,4.18607 -4.186073,4.18607 -2.311904,0 -4.186073,-1.87417 -4.186073,-4.18607 0,-2.31191 1.874169,-4.18608 4.186073,-4.18608 2.311904,0 4.186073,1.87417 4.186073,4.18608 z"
           transform="matrix(-1.0516533,0,0,1.0511267,-35.986707,1031.2373)" />
        <path
           transform="matrix(-1.0516533,0,0,1.0511267,-35.986707,1041.1853)"
           d="m -32.166668,-141.11758 c 0,2.3119 -1.874169,4.18607 -4.186073,4.18607 -2.311904,0 -4.186073,-1.87417 -4.186073,-4.18607 0,-2.31191 1.874169,-4.18608 4.186073,-4.18608 2.311904,0 4.186073,1.87417 4.186073,4.18608 z"
           sodipodi:ry="4.1860728"
           sodipodi:rx="4.1860728"
           sodipodi:cy="-141.11758"
           sodipodi:cx="-36.352741"
           id="path5467"
           style="opacity:0.98999999000000005;fill:#ffffff;fill-opacity:1;stroke:none"
           sodipodi:type="arc" />
        <path
           sodipodi:type="arc"
           style="opacity:0.98999999000000005;fill:#ffffff;fill-opacity:1;stroke:none"
           id="path5469"
           sodipodi:cx="-36.352741"
           sodipodi:cy="-141.11758"
           sodipodi:rx="4.1860728"
           sodipodi:ry="4.1860728"
           d="m -32.166668,-141.11758 c 0,2.3119 -1.874169,4.18607 -4.186073,4.18607 -2.311904,0 -4.186073,-1.87417 -4.186073,-4.18607 0,-2.31191 1.874169,-4.18608 4.186073,-4.18608 2.311904,0 4.186073,1.87417 4.186073,4.18608 z"
           transform="matrix(-1.0516533,0,0,1.0511267,-35.986707,1052.2812)" />
        <path
           transform="matrix(-1.0516533,0,0,1.0511267,-35.986707,1062.2292)"
           d="m -32.166668,-141.11758 c 0,2.3119 -1.874169,4.18607 -4.186073,4.18607 -2.311904,0 -4.186073,-1.87417 -4.186073,-4.18607 0,-2.31191 1.874169,-4.18608 4.186073,-4.18608 2.311904,0 4.186073,1.87417 4.186073,4.18608 z"
           sodipodi:ry="4.1860728"
           sodipodi:rx="4.1860728"
           sodipodi:cy="-141.11758"
           sodipodi:cx="-36.352741"
           id="path5471"
           style="opacity:0.98999999000000005;fill:#ffffff;fill-opacity:1;stroke:none"
           sodipodi:type="arc" />
        <path
           sodipodi:type="arc"
           style="opacity:0.98999999000000005;fill:#ffffff;fill-opacity:1;stroke:none"
           id="path5473"
           sodipodi:cx="-36.352741"
           sodipodi:cy="-141.11758"
           sodipodi:rx="4.1860728"
           sodipodi:ry="4.1860728"
           d="m -32.166668,-141.11758 c 0,2.3119 -1.874169,4.18607 -4.186073,4.18607 -2.311904,0 -4.186073,-1.87417 -4.186073,-4.18607 0,-2.31191 1.874169,-4.18608 4.186073,-4.18608 2.311904,0 4.186073,1.87417 4.186073,4.18608 z"
           transform="matrix(-1.0516533,0,0,1.0511267,-35.986707,1072.9425)" />
        <path
           sodipodi:type="arc"
           style="opacity:0.98999999000000005;fill:#ffffff;fill-opacity:1;stroke:none"
           id="path5475"
           sodipodi:cx="-36.352741"
           sodipodi:cy="-141.11758"
           sodipodi:rx="4.1860728"
           sodipodi:ry="4.1860728"
           d="m -32.166668,-141.11758 c 0,2.3119 -1.874169,4.18607 -4.186073,4.18607 -2.311904,0 -4.186073,-1.87417 -4.186073,-4.18607 0,-2.31191 1.874169,-4.18608 4.186073,-4.18608 2.311904,0 4.186073,1.87417 4.186073,4.18608 z"
           transform="matrix(-1.0516533,0,0,1.0511267,-46.411793,1019.7588)" />
        <path
           transform="matrix(-1.0516533,0,0,1.0511267,-46.411793,1031.2373)"
           d="m -32.166668,-141.11758 c 0,2.3119 -1.874169,4.18607 -4.186073,4.18607 -2.311904,0 -4.186073,-1.87417 -4.186073,-4.18607 0,-2.31191 1.874169,-4.18608 4.186073,-4.18608 2.311904,0 4.186073,1.87417 4.186073,4.18608 z"
           sodipodi:ry="4.1860728"
           sodipodi:rx="4.1860728"
           sodipodi:cy="-141.11758"
           sodipodi:cx="-36.352741"
           id="path5477"
           style="opacity:0.98999999000000005;fill:#ffffff;fill-opacity:1;stroke:none"
           sodipodi:type="arc" />
        <path
           sodipodi:type="arc"
           style="opacity:0.98999999000000005;fill:#ffffff;fill-opacity:1;stroke:none"
           id="path5479"
           sodipodi:cx="-36.352741"
           sodipodi:cy="-141.11758"
           sodipodi:rx="4.1860728"
           sodipodi:ry="4.1860728"
           d="m -32.166668,-141.11758 c 0,2.3119 -1.874169,4.18607 -4.186073,4.18607 -2.311904,0 -4.186073,-1.87417 -4.186073,-4.18607 0,-2.31191 1.874169,-4.18608 4.186073,-4.18608 2.311904,0 4.186073,1.87417 4.186073,4.18608 z"
           transform="matrix(-1.0516533,0,0,1.0511267,-46.411793,1041.1853)" />
        <path
           transform="matrix(-1.0516533,0,0,1.0511267,-46.411793,1052.2812)"
           d="m -32.166668,-141.11758 c 0,2.3119 -1.874169,4.18607 -4.186073,4.18607 -2.311904,0 -4.186073,-1.87417 -4.186073,-4.18607 0,-2.31191 1.874169,-4.18608 4.186073,-4.18608 2.311904,0 4.186073,1.87417 4.186073,4.18608 z"
           sodipodi:ry="4.1860728"
           sodipodi:rx="4.1860728"
           sodipodi:cy="-141.11758"
           sodipodi:cx="-36.352741"
           id="path5481"
           style="opacity:0.98999999000000005;fill:#ffffff;fill-opacity:1;stroke:none"
           sodipodi:type="arc" />
        <path
           sodipodi:type="arc"
           style="opacity:0.98999999000000005;fill:#ffffff;fill-opacity:1;stroke:none"
           id="path5483"
           sodipodi:cx="-36.352741"
           sodipodi:cy="-141.11758"
           sodipodi:rx="4.1860728"
           sodipodi:ry="4.1860728"
           d="m -32.166668,-141.11758 c 0,2.3119 -1.874169,4.18607 -4.186073,4.18607 -2.311904,0 -4.186073,-1.87417 -4.186073,-4.18607 0,-2.31191 1.874169,-4.18608 4.186073,-4.18608 2.311904,0 4.186073,1.87417 4.186073,4.18608 z"
           transform="matrix(-1.0516533,0,0,1.0511267,-46.411793,1062.2292)" />
        <path
           sodipodi:type="arc"
           style="opacity:0.98999999000000005;fill:#ffffff;fill-opacity:1;stroke:none"
           id="path5485"
           sodipodi:cx="-36.352741"
           sodipodi:cy="-141.11758"
           sodipodi:rx="4.1860728"
           sodipodi:ry="4.1860728"
           d="m -32.166668,-141.11758 c 0,2.3119 -1.874169,4.18607 -4.186073,4.18607 -2.311904,0 -4.186073,-1.87417 -4.186073,-4.18607 0,-2.31191 1.874169,-4.18608 4.186073,-4.18608 2.311904,0 4.186073,1.87417 4.186073,4.18608 z"
           transform="matrix(-1.0516533,0,0,1.0511267,-56.836878,1031.2373)" />
        <path
           transform="matrix(-1.0516533,0,0,1.0511267,-56.836878,1041.1853)"
           d="m -32.166668,-141.11758 c 0,2.3119 -1.874169,4.18607 -4.186073,4.18607 -2.311904,0 -4.186073,-1.87417 -4.186073,-4.18607 0,-2.31191 1.874169,-4.18608 4.186073,-4.18608 2.311904,0 4.186073,1.87417 4.186073,4.18608 z"
           sodipodi:ry="4.1860728"
           sodipodi:rx="4.1860728"
           sodipodi:cy="-141.11758"
           sodipodi:cx="-36.352741"
           id="path5487"
           style="opacity:0.98999999000000005;fill:#ffffff;fill-opacity:1;stroke:none"
           sodipodi:type="arc" />
        <path
           sodipodi:type="arc"
           style="opacity:0.98999999000000005;fill:#ffffff;fill-opacity:1;stroke:none"
           id="path5489"
           sodipodi:cx="-36.352741"
           sodipodi:cy="-141.11758"
           sodipodi:rx="4.1860728"
           sodipodi:ry="4.1860728"
           d="m -32.166668,-141.11758 c 0,2.3119 -1.874169,4.18607 -4.186073,4.18607 -2.311904,0 -4.186073,-1.87417 -4.186073,-4.18607 0,-2.31191 1.874169,-4.18608 4.186073,-4.18608 2.311904,0 4.186073,1.87417 4.186073,4.18608 z"
           transform="matrix(-1.0516533,0,0,1.0511267,-56.836878,1052.2812)" />
      </g>
    </g>
  </g>
</svg>
