<?xml version="1.0" encoding="UTF-8" standalone="no"?>
<svg
   xmlns:dc="http://purl.org/dc/elements/1.1/"
   xmlns:cc="http://creativecommons.org/ns#"
   xmlns:rdf="http://www.w3.org/1999/02/22-rdf-syntax-ns#"
   xmlns:svg="http://www.w3.org/2000/svg"
   xmlns="http://www.w3.org/2000/svg"
   xmlns:sodipodi="http://sodipodi.sourceforge.net/DTD/sodipodi-0.dtd"
   xmlns:inkscape="http://www.inkscape.org/namespaces/inkscape"
   id="svg"
   xml:space="preserve"
   height="45"
   width="64"
   version="1.0"
   stroke-miterlimit="10"
   viewbox="0 0 64 20"
   inkscape:version="0.48.3.1 r9886"
   sodipodi:docname="vortaro_logo.svg"
   style="fill-rule:evenodd;stroke-miterlimit:10"><defs
   id="defs7970" /><sodipodi:namedview
   pagecolor="#ffffff"
   bordercolor="#666666"
   borderopacity="1"
   objecttolerance="10"
   gridtolerance="10"
   guidetolerance="10"
   inkscape:pageopacity="0"
   inkscape:pageshadow="2"
   inkscape:window-width="1280"
   inkscape:window-height="781"
   id="namedview7968"
   showgrid="false"
   inkscape:zoom="3.7275692"
   inkscape:cx="29.954895"
   inkscape:cy="6.3687112"
   inkscape:window-x="0"
   inkscape:window-y="-4"
   inkscape:window-maximized="1"
   inkscape:current-layer="svg" /><metadata
   id="metadata3009"><rdf:RDF><cc:Work
       rdf:about=""><dc:format>image/svg+xml</dc:format><dc:type
         rdf:resource="http://purl.org/dc/dcmitype/StillImage" /><dc:title /></cc:Work></rdf:RDF></metadata>
	
<g
   id="g7972"
   transform="matrix(0.12524238,0,0,0.12524238,2.2549535,26.257271)"
   style="fill:#ffffff"><g
     transform="matrix(9.6774,0,0,10,325,-120)"
     id="textshapes"
     style="fill:#ffffff">
		<path
   style="fill:#ffffff"
   inkscape:connector-curvature="0"
   d="M 6.75,2 1.625,14 c -0.375,0.75 -0.75,1 -1.25,1 H 0 v 1 H 4.75 V 15 H 3.625 C 3.125,15 2.875,14.875 2.875,14.625 2.875,14.375 3,14 3,14 L 3.75,12.25 H 9.5 L 10.25,14 c 0,0 0.125,0.375 0.125,0.625 0,0.25 -0.125,0.375 -0.5,0.375 H 9.5 v 1 h 6 V 15 H 15 c -0.375,0 -0.75,-0.5 -1.25,-1.5 L 8.75,2 h -2 z M 6.625,5.5 9,11 H 4.25 L 6.625,5.5 z"
   id="LatinA" />
	</g><path
     style="fill:#ffffff;fill-rule:evenodd"
     inkscape:connector-curvature="0"
     d="m 92.5,-65 c 0,0 -1.25,7.5 -3.75,12.5 h -10 c 0,0 -13.75,1.25 -20,2.5 L 60,-66.25 c 13.75,0 45,-3.75 66.25,-6.25 l -1.25,-20 c -15,5 -47.5,8.75 -63.75,8.75 0,-3.75 1.25,-13.75 2.5,-20 l -20,-1.25 c 0,7.5 0,11.25 -1.25,22.5 0,0 -30,-1.25 -37.5,-2.5 v 17.5 c 0,0 17.5,1.25 36.25,1.25 L 40,-45 c -8.75,3.75 -16.25,8.75 -22.5,15 C 6.25,-18.75 0,-5 0,8.75 c 0,17.5 10,30 26.25,30 13.75,0 30,-8.75 45,-25 12.5,-12.5 21.25,-25 30,-45 C 113.75,-27.5 120,-18.75 120,-7.5 120,15 90,25 68.75,25 73.75,33.75 75,37.5 77.5,45 100,45 140,27.5 140,-5 c 0,-20 -7.5,-35 -32.5,-42.5 2.5,-7.5 3.75,-12.5 3.75,-12.5 m -70,33.75 c 0,17.5 1.25,27.5 2.5,38.75 -3.75,3.75 -10,6.25 -12.75,6.25 -7.25,0 -11,-3.75 -11,-12.5 0,-15 11.25,-25 21.25,-32.5 z M 60,0 c -1.25,-13.75 -1.25,-21.25 -1.25,-33.75 7.5,-2.5 16.25,-3.75 25,-2.5 C 78.75,-22.5 70,-10 60,0 z"
     id="HiraginaA" /><path
     style="fill:#ffffff"
     inkscape:connector-curvature="0"
     d="M 151,-0.81 H 254.77 L 254.58,45 302.79,7.86 351,-29.292 303.1,-67.136 255.17,-105 l -0.16634,44.538 h -104 v 59.657 z"
     id="path2466" /></g></svg>