<?xml version="1.0" encoding="UTF-8" standalone="no"?>
<!-- Generator: Adobe Illustrator 14.0.0, SVG Export Plug-In . SVG Version: 6.00 Build 43363)  -->

<svg
   xmlns:dc="http://purl.org/dc/elements/1.1/"
   xmlns:cc="http://creativecommons.org/ns#"
   xmlns:rdf="http://www.w3.org/1999/02/22-rdf-syntax-ns#"
   xmlns:svg="http://www.w3.org/2000/svg"
   xmlns="http://www.w3.org/2000/svg"
   xmlns:sodipodi="http://sodipodi.sourceforge.net/DTD/sodipodi-0.dtd"
   xmlns:inkscape="http://www.inkscape.org/namespaces/inkscape"
   version="1.0"
   x="0px"
   y="0px"
   width="64"
   height="64"
   viewBox="0 0 64.000001 64.000002"
   enable-background="new 0 0 1824.73 1032.413"
   xml:space="preserve"
   id="svg3052"
   inkscape:version="0.48.4 r9939"
   sodipodi:docname="webgl-logo.svg"
   inkscape:export-filename="/home/acmt/Documentos/git/komputilisto_kvadratoj/assets/images/webgl-logo.png"
   inkscape:export-xdpi="90"
   inkscape:export-ydpi="90"><metadata
     id="metadata3079"><rdf:RDF><cc:Work
         rdf:about=""><dc:format>image/svg+xml</dc:format><dc:type
           rdf:resource="http://purl.org/dc/dcmitype/StillImage" /><dc:title></dc:title></cc:Work></rdf:RDF></metadata><defs
     id="defs3077" /><sodipodi:namedview
     pagecolor="#ffffff"
     bordercolor="#666666"
     borderopacity="1"
     objecttolerance="10"
     gridtolerance="10"
     guidetolerance="10"
     inkscape:pageopacity="0"
     inkscape:pageshadow="2"
     inkscape:window-width="817"
     inkscape:window-height="733"
     id="namedview3075"
     showgrid="false"
     inkscape:zoom="6.9712278"
     inkscape:cx="18.75704"
     inkscape:cy="25.048215"
     inkscape:window-x="0"
     inkscape:window-y="18"
     inkscape:window-maximized="0"
     inkscape:current-layer="svg3052" /><rect
     style="fill:#d40000;fill-opacity:0;stroke:none"
     id="rect3862"
     width="64"
     height="64"
     x="1.4073487e-06"
     y="1e-06" /><g
     id="g3081"
     transform="matrix(0.04642098,0,0,0.04642098,-12.513115,53.044093)"
     style="fill:#ffffff"><g
       transform="translate(0,-968.413)"
       id="OpenGL"
       style="fill:#ffffff"><g
         id="g3055"
         style="fill:#ffffff"><g
           id="g3057"
           style="fill:#ffffff"><path
             style="fill:#ffffff"
             inkscape:connector-curvature="0"
             id="path3059"
             d="m 1315.346,626.965 c -10.911,4.599 -21.929,6.902 -33.043,6.902 -17.549,0 -33.323,-3.059 -47.338,-9.16 -14.015,-6.108 -25.832,-14.52 -35.46,-25.242 -9.627,-10.715 -17.005,-23.311 -22.14,-37.778 -5.135,-14.467 -7.702,-30.068 -7.702,-46.786 0,-17.141 2.56,-33.059 7.68,-47.746 5.12,-14.679 12.482,-27.485 22.087,-38.42 9.604,-10.934 21.407,-19.504 35.414,-25.726 14.008,-6.215 29.781,-9.325 47.33,-9.325 11.765,0 23.151,1.773 34.169,5.315 11.017,3.549 20.962,8.759 29.842,15.631 8.88,6.871 16.204,15.344 21.98,25.409 5.776,10.073 9.311,21.626 10.595,34.674 h -48.131 c -2.998,-12.828 -8.774,-22.456 -17.33,-28.875 -8.562,-6.418 -18.938,-9.627 -31.125,-9.627 -11.342,0 -20.969,2.197 -28.883,6.592 -7.913,4.395 -14.332,10.292 -19.255,17.685 -4.924,7.399 -8.503,15.812 -10.745,25.243 -2.25,9.432 -3.368,19.18 -3.368,29.253 0,9.649 1.125,19.028 3.376,28.136 2.25,9.105 5.837,17.307 10.76,24.593 4.924,7.287 11.35,13.124 19.277,17.519 7.922,4.395 17.564,6.592 28.921,6.592 16.703,0 29.601,-4.213 38.707,-12.641 9.106,-8.426 14.407,-20.645 15.91,-36.652 h -50.698 v -37.695 h 96.125 v 123.891 h -31.986 l -5.119,-25.99 c -8.987,11.55 -18.939,19.629 -29.85,24.228 z" /><path
             style="fill:#ffffff"
             inkscape:connector-curvature="0"
             id="path3061"
             d="m 1463.996,399.482 v 186.541 h 111.672 V 628.55 H 1413.736 V 399.482 h 50.26 z" /></g><path
           style="fill:#ffffff;stroke:#ffffff;stroke-width:0.40000001000000002;stroke-linecap:round;stroke-linejoin:round"
           inkscape:connector-curvature="0"
           id="path3063"
           d="m 1226.304,657.026 c -76.9,46.771 -192.076,73.392 -320.583,73.392 -231.527,0 -419.217,-96.407 -419.217,-215.336 0,-118.93 187.69,-215.34 419.217,-215.34 128.979,0 244.624,27.115 321.524,74.18 C 1143.307,295.067 992.804,239.656 820.724,239.631 557.173,239.587 343.503,362.879 343.48,515.006 c -0.022,152.123 213.608,275.488 477.159,275.526 171.397,0.03 321.508,-55.202 405.665,-133.506 z" /></g></g><g
       transform="translate(0,-968.413)"
       id="Layer_3"
       style="fill:#ffffff"><g
         id="g3066"
         style="fill:#ffffff"><path
           style="fill:#ffffff;stroke:#ffffff;stroke-width:5.50000000000000000"
           inkscape:connector-curvature="0"
           id="path3068"
           d="M 629.204,628.489 H 594.23 L 530.101,384.714 h 36.002 l 45.957,198.279 h 0.686 l 55.205,-198.279 h 36.346 l 55.329,198.279 h 0.686 l 45.822,-198.279 h 38.39 L 778.142,628.489 H 743.043 L 686.81,426.474 h -0.686 l -56.92,202.015 z" /><path
           style="fill:#ffffff;stroke:#ffffff;stroke-width:5"
           inkscape:connector-curvature="0"
           id="path3070"
           d="m 971.736,578.072 c -0.935,7.712 -8.413,30.543 -28.977,44.118 -7.478,4.936 -17.938,11.106 -44.11,11.106 -45.803,0 -72.419,-34.246 -72.419,-80.833 0,-49.98 23.678,-89.78 77.582,-89.78 47.048,0 70.105,37.023 70.105,94.1 H 855.518 c 0,33.629 15.399,53.066 46.869,53.066 25.861,0 40.995,-19.746 41.93,-31.777 h 27.419 z m -26.173,-42.885 c -1.558,-24.99 -11.794,-48.13 -45.491,-48.13 -25.238,0 -44.554,23.141 -44.554,48.13 h 90.045 z" /><path
           style="fill:#ffffff;stroke:#ffffff;stroke-width:5"
           inkscape:connector-curvature="0"
           id="path3072"
           d="m 998.965,628.775 v -221.52 h 27.419 v 80.525 h 0.624 c 11.84,-16.969 28.042,-24.683 47.048,-24.99 43.31,0 68.416,35.171 68.416,80.523 0,38.565 -16.693,90.089 -72.155,90.089 -27.731,0 -39.259,-15.734 -44.868,-24.683 h -0.624 v 20.055 h -25.86 z m 70.106,-141.611 c -39.571,0 -43.933,42.268 -43.933,68.491 0,42.885 27.107,54.3 44.556,54.3 29.912,0 43.933,-26.842 43.933,-62.321 -10e-4,-20.671 -2.181,-60.47 -44.556,-60.47 z" /></g></g></g><g
     id="Layer_4"
     transform="translate(0,-968.413)" /></svg>