<?xml version="1.0" encoding="UTF-8" standalone="no"?>
<!-- Creator: CorelDRAW -->

<svg
   xmlns:dc="http://purl.org/dc/elements/1.1/"
   xmlns:cc="http://creativecommons.org/ns#"
   xmlns:rdf="http://www.w3.org/1999/02/22-rdf-syntax-ns#"
   xmlns:svg="http://www.w3.org/2000/svg"
   xmlns="http://www.w3.org/2000/svg"
   xmlns:sodipodi="http://sodipodi.sourceforge.net/DTD/sodipodi-0.dtd"
   xmlns:inkscape="http://www.inkscape.org/namespaces/inkscape"
   xml:space="preserve"
   width="64"
   height="45"
   style="fill-rule:evenodd"
   viewBox="0 0 18.062245 12.700018"
   id="svg3065"
   version="1.1"
   inkscape:version="0.48.3.1 r9886"
   sodipodi:docname="bel_logo.svg"><sodipodi:namedview
   pagecolor="#ffffff"
   bordercolor="#666666"
   borderopacity="1"
   objecttolerance="10"
   gridtolerance="10"
   guidetolerance="10"
   inkscape:pageopacity="0"
   inkscape:pageshadow="2"
   inkscape:window-width="1280"
   inkscape:window-height="781"
   id="namedview3105"
   showgrid="false"
   inkscape:zoom="2.330939"
   inkscape:cx="59.632619"
   inkscape:cy="127.20219"
   inkscape:window-x="0"
   inkscape:window-y="-4"
   inkscape:window-maximized="1"
   inkscape:current-layer="svg3065" />
 <defs
   id="defs3067">
  <style
   type="text/css"
   id="style3069">
   
    .fil0 {fill:#009933}
   
  </style>
 </defs>
 <g
   id="Camada_x0020_1"
   transform="matrix(0.16615916,0,0,0.16615916,2.5016912,0.32658332)"
   style="fill:#ffffff">
  <metadata
   id="CorelCorpID_0Corel-Layer" />
  <path
   class="fil0"
   d="m 1.4655,31.8023 c -0.0933,-0.934801 0.858501,-0.742201 1.4854,-0.742201 7.03091,-4e-4 14.0617,-8e-4 21.0925,-0.0011 1.9783,0 3.96201,0.143 5.93521,-2e-4 3.1682,-0.23 4.49021,-8.69251 5.14391,-11.0213 -0.498701,1.0735 -0.713001,2.227 -1.0346,3.1895 -1.1794,3.5293 -1.8984,5.97611 -6.06851,5.97631 -8.43431,5e-4 -16.8687,0 -25.303,0 -0.490401,0 -1.4542,-0.089 -1.8691,0.104 -1.4279,0.664801 -0.963601,2.5244 0.738201,2.9557 0.455301,0.1154 -0.0187,0.1072 -0.12,-0.460701 z"
   id="path3073"
   inkscape:connector-curvature="0"
   style="fill:#ffffff" />
  <path
   class="fil0"
   d="m 2.6374,27.7309 c -0.0818,-0.934801 0.752401,-0.742301 1.3018,-0.742301 6.16161,-3e-4 12.3231,-7e-4 18.4846,-0.001 1.7338,0 3.4722,0.143 5.20141,-2e-4 2.7765,-0.23 5.12721,-11.1576 5.70011,-13.4864 -1.8665,4.58551 -2.5448,11.6306 -7.41711,11.6309 -7.39141,5e-4 -14.783,0 -22.1745,0 -0.429801,0 -1.2744,-0.089 -1.638,0.104 -1.2514,0.664801 -0.844501,2.5244 0.646901,2.9557 0.399001,0.1153 -0.0164,0.1072 -0.1052,-0.460701 z"
   id="path3075"
   inkscape:connector-curvature="0"
   style="fill:#ffffff" />
  <path
   class="fil0"
   d="m 4.08291,23.6686 c -0.0692,-0.934901 0.636001,-0.742301 1.1006,-0.742301 5.20921,-4e-4 10.4185,-7e-4 15.6277,-0.001 1.4658,-10e-5 2.9356,0.1429 4.39751,-3e-4 2.3474,-0.23 5.79791,-14.6612 6.28221,-16.99 -1.8754,4.52611 -3.4824,15.091 -7.38531,15.1345 -6.24891,0.0697 -12.8468,0 -19.0959,0 -0.3634,0 -1.0774,-0.089 -1.3848,0.104 -1.058,0.664801 -0.714001,2.5244 0.546901,2.9557 0.3373,0.1154 -0.0139,0.1072 -0.0889,-0.460601 z"
   id="path3077"
   inkscape:connector-curvature="0"
   style="fill:#ffffff" />
  <path
   class="fil0"
   d="m 33.0731,2.6356 c 0.3061,-1.1682 0.782801,-1.261 1.1627,-0.1493 2.8749,8.41171 5.65261,16.8573 8.62461,25.235 0.3605,1.0162 0.911801,1.5286 1.6797,1.8913 1.5849,0.748501 7.46891,0.3057 9.47351,0.2775 0.1747,-0.0112 1.1899,-0.0225 1.3646,-0.0338 -3.0702,-0.584601 -9.50101,0.749001 -10.8162,-3.1045 -2.8739,-8.41611 -5.74801,-16.8324 -8.62181,-25.2484 -0.979901,-2.8698 -2.9035,-0.994201 -2.9752,0.390301 -0.0111,0.2135 0.0506,0.3864 0.1081,0.741901 z"
   id="path3079"
   inkscape:connector-curvature="0"
   style="fill:#ffffff" />
  <path
   class="fil0"
   d="m 37.3948,2.2851 c 0.3648,-1.0128 0.846201,-1.0933 1.1702,-0.1294 2.4524,7.29301 4.80601,14.6154 7.35721,21.8791 0.2527,0.719301 0.649401,1.1474 1.1945,1.4515 1.6067,0.896301 12.6616,0.3011 15.1749,0.1609 -2.4829,-0.3286 -9.25731,0.449201 -12.6411,-0.553201 -1.9307,-0.571901 -1.7665,-1.2699 -2.2426,-2.6879 -0.1986,-0.591401 -0.397301,-1.1827 -0.595901,-1.774 -2.1641,-6.44291 -4.32901,-12.8858 -6.49321,-19.3287 -0.835801,-2.488 -2.8536,-0.861901 -2.9948,0.3385 -0.0218,0.1851 0.0311,0.3349 0.0708,0.643201 z"
   id="path3081"
   inkscape:connector-curvature="0"
   style="fill:#ffffff" />
  <path
   class="fil0"
   d="m 41.6439,2.176 c 0.402601,-0.854401 0.887001,-0.922301 1.1751,-0.1091 2.1804,6.15281 4.26091,12.3304 6.54121,18.4584 0.2258,0.606901 0.606601,0.968101 1.1404,1.2247 1.5731,0.756101 13.6699,0.1466 16.1884,0.0283 -2.4707,-0.2772 -10.2936,0.486301 -13.64,-0.3593 -1.9094,-0.482501 -1.7192,-1.0714 -2.1424,-2.2677 -0.1765,-0.498901 -0.3532,-0.997801 -0.529701,-1.4967 -1.9238,-5.43561 -3.8485,-10.8712 -5.77231,-16.3068 -0.743001,-2.099 -2.8215,-0.727101 -3.0075,0.2856 -0.0287,0.1561 0.0187,0.2826 0.0468,0.542601 z"
   id="path3083"
   inkscape:connector-curvature="0"
   style="fill:#ffffff" />
  <path
   class="fil0"
   d="m 72.2413,21.9607 c 1.2069,-0.0258 1.4316,0.407301 0.473901,1.0774 -7.24601,5.07071 -14.5522,10.0573 -21.7381,15.2122 -0.871601,0.625201 -1.2059,1.2959 -1.3351,2.1338 -0.2667,1.7296 1.832,7.26721 2.4294,9.18741 0.0605,0.1649 0.3601,1.1382 0.420601,1.3031 -0.2766,-1.7153 -1.1567,-3.8291 -1.6745,-5.85321 -0.570201,-2.2287 -0.418701,-4.00731 1.5733,-5.40031 l 0.897101,-0.627501 8.08411,-5.65411 c 4.25691,-2.9772 8.51371,-5.95461 12.7705,-8.93171 2.4723,-1.729 0.1269,-3.0649 -1.2207,-2.7544 -0.2079,0.0479 -0.3561,0.1545 -0.680501,0.3073 z"
   id="path3085"
   inkscape:connector-curvature="0"
   style="fill:#ffffff" />
  <path
   class="fil0"
   d="m 74.1635,25.6282 c 1.0456,0.1111 1.2402,0.569701 0.410501,1.1311 -6.27721,4.24871 -12.6065,8.40661 -18.8316,12.7461 -0.755101,0.526401 -1.4787,1.7232 -1.5906,2.5465 -0.3204,2.3567 2.9167,9.21811 3.8141,12.1589 -0.2396,-1.7466 -2.0697,-5.85411 -2.3618,-7.95231 -0.480801,-3.4532 0.2734,-4.46001 2.1401,-5.74761 l 7.00331,-4.73701 c 3.6877,-2.4943 7.37541,-4.98871 11.063,-7.48291 2.1418,-1.4486 0.11,-3.0506 -1.0575,-2.8929 -0.18,0.0243 -0.3084,0.1141 -0.589501,0.2301 z"
   id="path3087"
   inkscape:connector-curvature="0"
   style="fill:#ffffff" />
  <path
   class="fil0"
   d="m 75.2669,29.6905 c 0.859801,0.2167 1.0198,0.694901 0.3376,1.1726 -5.16211,3.6147 -10.3669,7.13341 -15.4861,10.8443 -0.620901,0.450101 -1.216,1.5739 -1.308,2.3858 -0.2635,2.3243 4.05431,10.6165 4.79231,13.648 -0.1079,-1.7658 -1.9435,-5.50001 -2.9796,-9.29261 -0.595501,-2.1802 -0.736001,-4.07971 1.1415,-5.53361 l 5.75911,-4.02971 c 3.0325,-2.1219 6.06511,-4.24391 9.09761,-6.36561 1.7613,-1.2323 0.0904,-3.0395 -0.869701,-2.9998 -0.148,0.0061 -0.2536,0.0831 -0.484701,0.1706 z"
   id="path3089"
   inkscape:connector-curvature="0"
   style="fill:#ffffff" />
  <path
   class="fil0"
   d="M 65.4288,64.5187 C 64.945299,65.335101 64.2969,64.6269 63.7941,64.2638 58.15489,60.19229 52.5158,56.12089 46.8767,52.0494 45.29,50.9037 43.6528,49.8238 42.11639,48.6123 c -0.628401,-0.495401 -1.5408,-0.671501 -2.4782,-0.259 -3.431,1.51 -8.41541,5.95561 -9.89661,6.92151 1.0411,-0.586701 3.6809,-2.3492 4.51371,-2.9478 2.2746,-1.6351 3.87321,-2.6357 5.98031,-2.1914 0.721901,0.1522 1.4904,0.508401 2.3438,1.1246 6.76481,4.88421 13.5292,9.76911 20.2937,14.6537 0.393401,0.284 1.1132,0.914801 1.5612,0.997601 1.5423,0.2848 2.2806,-1.5007 1.1734,-2.838 -0.2963,-0.3577 0.079,-0.0766 -0.1789,0.445201 z"
   id="path3091"
   inkscape:connector-curvature="0"
   style="fill:#ffffff" />
  <path
   class="fil0"
   d="m 61.6813,66.8441 c -0.420201,0.866801 -0.983801,0.2262 -1.4208,-0.0845 -4.90131,-3.4836 -9.80261,-6.96721 -14.7038,-10.4508 -1.3791,-0.980301 -2.6321,-2.2046 -4.13751,-2.9408 -3.1259,-1.5285 -11.4758,6.58241 -13.289,7.96291 1.5902,-1.2218 5.23051,-4.25351 8.47571,-5.83511 3.51,-1.7108 4.29211,-0.3654 7.25191,1.7592 1.9484,1.3985 3.87581,2.9147 4.52601,3.377 3.6922,2.6245 7.38421,5.24921 11.0763,7.87371 0.3418,0.243 0.967401,0.798701 1.3568,0.834901 1.3406,0.124 1.9823,-1.7385 1.0199,-2.9603 -0.2575,-0.3269 0.0687,-0.0849 -0.1555,0.463801 z"
   id="path3093"
   inkscape:connector-curvature="0"
   style="fill:#ffffff" />
  <path
   class="fil0"
   d="m 58.2607,69.2118 c -0.3679,0.910801 -0.861201,0.329 -1.2438,0.064 -4.29051,-2.9713 -8.58101,-5.94251 -12.8715,-8.91391 -1.7559,-1.2161 -2.4816,-2.4737 -3.92181,-2.49 -0.592001,-0.0067 -1.3102,0.1624 -2.2595,0.698501 -3.90491,2.2053 -10.3957,7.60111 -11.8184,8.63521 0.989501,-0.986601 6.54911,-4.74161 10.1317,-6.65541 3.6296,-1.9389 3.4838,-1.0941 6.38091,0.935501 1.7055,1.1949 3.3927,2.5097 3.96201,2.9039 3.232,2.2386 6.46391,4.47741 9.69591,6.71601 0.2993,0.2073 0.846901,0.697601 1.1878,0.693001 1.1735,-0.0161 1.7352,-1.9456 0.892801,-3.0669 -0.2254,-0.3 0.0601,-0.092 -0.1361,0.480101 z"
   id="path3095"
   inkscape:connector-curvature="0"
   style="fill:#ffffff" />
  <path
   class="fil0"
   d="m 21.4979,70.0963 c -0.925501,-0.2019 -0.450901,-1.0082 -0.26,-1.5782 2.1405,-6.39231 4.28111,-12.7845 6.42171,-19.1767 0.602301,-1.7986 1.1266,-3.6241 1.807,-5.39611 0.2782,-0.724601 0.1653,-1.6156 -0.515501,-2.3547 -2.4916,-2.7052 -8.25441,-5.96621 -9.62891,-7.04081 0.878401,0.782701 3.3671,2.6856 4.19281,3.2733 2.2552,1.605 4.06251,2.7167 4.28761,4.78531 0.077,0.708601 -0.389301,1.5815 -0.713201,2.5489 -2.5679,7.66811 -5.13661,15.3363 -7.70481,23.0044 -0.1494,0.445801 -0.528301,1.2947 -0.469401,1.7311 0.2032,1.5022 2.1292,1.6506 3.0613,0.2357 0.2494,-0.3785 0.0972,0.0499 -0.478601,-0.0322 z"
   id="path3097"
   inkscape:connector-curvature="0"
   style="fill:#ffffff" />
  <path
   class="fil0"
   d="m 17.8121,67.5402 c -0.932701,-0.1763 -0.486601,-0.880301 -0.3159,-1.378 1.9142,-5.58151 3.8284,-11.1629 5.74261,-16.7442 0.538701,-1.5705 0.998301,-3.1645 1.616,-4.71171 0.2525,-0.632701 0.108,-1.4107 -0.598901,-2.056 -2.5874,-2.362 -9.73721,-6.83851 -11.1497,-7.77681 1.9733,1.4883 9.75961,6.98441 10.0372,8.66551 0.1022,0.618801 -0.3333,1.3809 -0.623001,2.2256 -2.2963,6.69551 -4.59341,13.3909 -6.89011,20.0864 -0.1336,0.389301 -0.482401,1.1305 -0.408101,1.5115 0.2564,1.3117 2.1876,1.4412 3.0696,0.2058 0.236,-0.3305 0.099,0.0436 -0.479701,-0.0281 z"
   id="path3099"
   inkscape:connector-curvature="0"
   style="fill:#ffffff" />
  <path
   class="fil0"
   d="m 14.3471,64.8673 c -0.943701,-0.1472 -0.541601,-0.734901 -0.401901,-1.1503 1.5658,-4.65911 3.1316,-9.31811 4.69741,-13.9771 0.440701,-1.311 0.800801,-2.6415 1.3219,-3.93301 0.395901,-0.981401 -1.6346,-2.795 -2.6489,-3.5001 -3.7248,-2.5899 -9.93941,-6.56971 -11.1382,-7.22841 1.4691,0.842101 6.57231,4.43471 9.63141,7.08071 2.4562,2.1245 2.682,2.1667 1.8874,4.53121 -1.8784,5.58901 -3.7576,11.1779 -5.63641,16.7669 -0.1092,0.325 -0.411801,0.943701 -0.3137,1.2618 0.3383,1.0949 2.2776,1.203 3.0825,0.1718 0.2153,-0.2759 0.1017,0.0363 -0.481501,-0.0235 z"
   id="path3101"
   inkscape:connector-curvature="0"
   style="fill:#ffffff" />
 </g>
<metadata
   id="metadata3103"><rdf:RDF><cc:Work><dc:format>image/svg+xml</dc:format><dc:type
         rdf:resource="http://purl.org/dc/dcmitype/StillImage" /><cc:license
         rdf:resource="http://creativecommons.org/licenses/publicdomain/" /><dc:publisher><cc:Agent
           rdf:about="http://openclipart.org/"><dc:title>Open Clip Art Library</dc:title></cc:Agent></dc:publisher><dc:title>Logo Brazila Esperanto-Ligo</dc:title><dc:date>2010-10-25T19:39:07</dc:date><dc:description>Logomarko de la BEL Asocio</dc:description><dc:source>http://openclipart.org/detail/92659/logo-brazila-esperanto-ligo-by-esperanton</dc:source><dc:creator><cc:Agent><dc:title>esperanton</dc:title></cc:Agent></dc:creator><dc:subject><rdf:Bag><rdf:li>BEL</rdf:li><rdf:li>Esperanto</rdf:li><rdf:li>Institucioj</rdf:li><rdf:li>Languages</rdf:li><rdf:li>Lingvoj</rdf:li><rdf:li>Media</rdf:li><rdf:li>clip art</rdf:li><rdf:li>clipart</rdf:li></rdf:Bag></dc:subject></cc:Work><cc:License
       rdf:about="http://creativecommons.org/licenses/publicdomain/"><cc:permits
         rdf:resource="http://creativecommons.org/ns#Reproduction" /><cc:permits
         rdf:resource="http://creativecommons.org/ns#Distribution" /><cc:permits
         rdf:resource="http://creativecommons.org/ns#DerivativeWorks" /></cc:License></rdf:RDF></metadata>



</svg>