<?xml version="1.0" encoding="UTF-8" standalone="no"?>
<!-- Created with Inkscape (http://www.inkscape.org/) -->

<svg
   xmlns:dc="http://purl.org/dc/elements/1.1/"
   xmlns:cc="http://creativecommons.org/ns#"
   xmlns:rdf="http://www.w3.org/1999/02/22-rdf-syntax-ns#"
   xmlns:svg="http://www.w3.org/2000/svg"
   xmlns="http://www.w3.org/2000/svg"
   xmlns:sodipodi="http://sodipodi.sourceforge.net/DTD/sodipodi-0.dtd"
   xmlns:inkscape="http://www.inkscape.org/namespaces/inkscape"
   width="64"
   height="64"
   id="svg2"
   version="1.1"
   inkscape:version="0.48.4 r9939"
   sodipodi:docname="twitter_logo.svg">
  <defs
     id="defs4">
    <linearGradient
       id="SVGID_2_"
       gradientUnits="userSpaceOnUse"
       x1="144.76511"
       y1="227.18359"
       x2="144.76511"
       y2="70.472504">
      <stop
         offset="0"
         style="stop-color:#21697C"
         id="stop4133" />
      <stop
         offset="1"
         style="stop-color:#123D49"
         id="stop4135" />
    </linearGradient>
    <linearGradient
       id="SVGID_2_-6"
       gradientUnits="userSpaceOnUse"
       x1="144.76511"
       y1="227.18359"
       x2="144.76511"
       y2="70.472504">
      <stop
         offset="0"
         style="stop-color:#21697C"
         id="stop4133-5" />
      <stop
         offset="1"
         style="stop-color:#123D49"
         id="stop4135-9" />
    </linearGradient>
    <linearGradient
       id="SVGID_1_"
       gradientUnits="userSpaceOnUse"
       x1="144.76421"
       y1="1.9375"
       x2="144.7641"
       y2="282.10941">
      <stop
         offset="0"
         style="stop-color:#46C8F5"
         id="stop4124" />
      <stop
         offset="1"
         style="stop-color:#0D7B99"
         id="stop4126" />
    </linearGradient>
    <linearGradient
       x1="0"
       y1="0"
       x2="1"
       y2="0"
       id="linearGradient312"
       gradientUnits="userSpaceOnUse"
       gradientTransform="matrix(0,-82.30423,-82.30423,0,55.296387,104.37598)"
       spreadMethod="pad">
      <stop
         id="stop314"
         style="stop-color:#f9f9f9;stop-opacity:1"
         offset="0" />
      <stop
         id="stop316"
         style="stop-color:#d1d1d3;stop-opacity:1"
         offset="1" />
    </linearGradient>
    <linearGradient
       x1="0"
       y1="0"
       x2="1"
       y2="0"
       id="linearGradient280"
       gradientUnits="userSpaceOnUse"
       gradientTransform="matrix(0,-36.206055,-36.206055,0,106,103.95264)"
       spreadMethod="pad">
      <stop
         id="stop282"
         style="stop-color:#f9f9f9;stop-opacity:1"
         offset="0" />
      <stop
         id="stop284"
         style="stop-color:#d1d1d3;stop-opacity:1"
         offset="1" />
    </linearGradient>
  </defs>
  <sodipodi:namedview
     id="base"
     pagecolor="#ffffff"
     bordercolor="#666666"
     borderopacity="1.0"
     inkscape:pageopacity="0.0"
     inkscape:pageshadow="2"
     inkscape:zoom="6.84375"
     inkscape:cx="31.064726"
     inkscape:cy="31.999997"
     inkscape:document-units="px"
     inkscape:current-layer="layer1"
     showgrid="false"
     inkscape:window-width="838"
     inkscape:window-height="991"
     inkscape:window-x="840"
     inkscape:window-y="30"
     inkscape:window-maximized="0" />
  <metadata
     id="metadata7">
    <rdf:RDF>
      <cc:Work
         rdf:about="">
        <dc:format>image/svg+xml</dc:format>
        <dc:type
           rdf:resource="http://purl.org/dc/dcmitype/StillImage" />
        <dc:title></dc:title>
      </cc:Work>
    </rdf:RDF>
  </metadata>
  <g
     inkscape:label="Layer 1"
     inkscape:groupmode="layer"
     id="layer1"
     transform="translate(0,-988.36218)">
    <rect
       style="opacity:0.98999999000000005;fill:#f04933;fill-opacity:1;stroke:none"
       id="rect3087"
       width="64"
       height="64"
       x="0"
       y="988.36218" />
    <g
       id="g4918"
       transform="matrix(4.7849466,0,0,4.7849466,-411.01168,-3780.6889)"
       style="fill:#ffffff">
      <g
         id="g268"
         transform="matrix(0.12634768,0,0,-0.12634768,82.848067,1011.6545)"
         style="fill:#ffffff">
        <g
           id="g270"
           style="fill:#ffffff">
          <g
             id="g276"
             style="fill:#ffffff">
            <g
               id="g278"
               style="fill:#ffffff">
              <path
                 style="fill:#ffffff;stroke:none"
                 id="path286"
                 d="m 104,104 0,-16 -16,0 0,-4 16,0 0,-16 4,0 0,16 16,0 0,4 -16,0 0,16 -4,0 z"
                 inkscape:connector-curvature="0" />
            </g>
          </g>
        </g>
      </g>
      <g
         id="g300"
         transform="matrix(0.12634768,0,0,-0.12634768,82.848067,1011.6545)"
         style="fill:#ffffff">
        <g
           id="g302"
           style="fill:#ffffff">
          <g
             id="g308"
             style="fill:#ffffff">
            <g
               id="g310"
               style="fill:#ffffff">
              <path
                 style="fill:#ffffff;stroke:none"
                 id="path318"
                 d="M 56.367,104 C 45.281,104 34.848,95.602 34.848,85.873 l 0,0 c 0,-9.941 7.556,-17.964 18.834,-17.964 l 0,0 c 0.785,0 1.547,0.015 2.293,0.069 l 0,0 C 55.243,66.577 54.72,64.998 54.72,63.359 l 0,0 c 0,-2.762 1.486,-5.003 3.365,-6.831 l 0,0 c -1.419,0 -2.791,-0.04 -4.287,-0.04 l 0,0 c -13.73,0 -24.299,-8.746 -24.299,-17.814 l 0,0 c 0,-8.931 11.586,-14.518 25.317,-14.518 l 0,0 c 15.654,0 24.3,8.882 24.3,17.814 l 0,0 c 0,7.161 -2.113,11.449 -8.646,16.07 l 0,0 c -2.235,1.582 -6.509,5.43 -6.509,7.692 l 0,0 c 0,2.65 0.757,3.956 4.747,7.073 l 0,0 c 4.089,3.195 6.983,7.687 6.983,12.912 l 0,0 c 0,6.22 -2.77,12.283 -7.97,14.283 l 0,0 7.839,0 5.534,4 -24.727,0 z M 57.261,70.429 C 50.89,70.619 44.835,77.556 43.736,85.92 l 0,0 c -1.099,8.367 3.172,14.77 9.541,14.579 l 0,0 c 6.369,-0.191 12.426,-6.903 13.526,-15.268 l 0,0 C 67.886,76.982 63.747,70.425 57.527,70.425 l 0,0 c -0.089,0 -0.177,0.001 -0.266,0.004 m -18.84,-29.1 c 0,7.073 8.502,12.961 17.993,12.858 l 0,0 c 2.215,-0.023 4.278,-0.38 6.152,-0.986 l 0,0 c 5.153,-3.583 8.848,-5.607 9.89,-9.691 l 0,0 c 0.196,-0.828 0.304,-1.679 0.304,-2.549 l 0,0 c 0,-7.217 -4.651,-12.857 -17.994,-12.857 l 0,0 c -9.491,0 -16.345,6.009 -16.345,13.225"
                 inkscape:connector-curvature="0" />
            </g>
          </g>
        </g>
      </g>
    </g>
  </g>
</svg>
